<svg id="logo"  viewBox="0 0 59 27" version="1.1" xmlns="http://www.w3.org/2000/svg" xmlns:xlink="http://www.w3.org/1999/xlink">
<title>Sekisui House_Colour</title>
<desc>Created using Figma</desc>
<g id="Canvas" transform="translate(-610 -1939)">
<g id="Sekisui House_Colour">
<g id="Sekisui House_Colour">
<g id="Group 6">
<mask id="mask0_outline" mask-type="alpha">
<g id="Clip 2">
<use xlink:href="#path0_fill" transform="translate(624.113 1939.15)" fill="#FFFFFF"/>
</g>
</mask>
<g id="Fill 1" mask="url(#mask0_outline)">
<use xlink:href="#path1_fill" transform="translate(624.113 1939.4)" fill="#0B69A5"/>
</g>
<g id="Fill 3" mask="url(#mask0_outline)">
<use xlink:href="#path2_fill" transform="translate(641.456 1939.15)" fill="#D91F43"/>
</g>
<g id="Fill 4" mask="url(#mask0_outline)">
<use xlink:href="#path3_fill" transform="translate(665.681 1960.04)" fill="#272F32"/>
</g>
<g id="Fill 5" mask="url(#mask0_outline)">
<use xlink:href="#path4_fill" transform="translate(660.677 1959.79)" fill="#272F32"/>
</g>
</g>
<g id="Fill 7">
<use xlink:href="#path5_fill" transform="translate(644.275 1960.04)" fill="#272F32"/>
</g>
<g id="Fill 8">
<use xlink:href="#path6_fill" transform="translate(627.668 1959.77)" fill="#272F32"/>
</g>
<g id="Group 12">
<mask id="mask1_outline" mask-type="alpha">
<g id="Clip 10">
<use xlink:href="#path7_fill" transform="translate(610.012 1959.73)" fill="#FFFFFF"/>
</g>
</mask>
<g id="Fill 9" mask="url(#mask1_outline)">
<use xlink:href="#path8_fill" transform="translate(619.789 1960.04)" fill="#272F32"/>
</g>
<g id="Fill 11" mask="url(#mask1_outline)">
<use xlink:href="#path9_fill" transform="translate(610 1959.73)" fill="#272F32"/>
</g>
</g>
<g id="Fill 13">
<use xlink:href="#path10_fill" transform="translate(614.931 1960.06)" fill="#272F32"/>
</g>
<g id="Fill 14">
<use xlink:href="#path11_fill" transform="translate(625.139 1960.04)" fill="#272F32"/>
</g>
<g id="Fill 15">
<use xlink:href="#path12_fill" transform="translate(632.592 1960.04)" fill="#272F32"/>
</g>
<g id="Fill 16">
<use xlink:href="#path13_fill" transform="translate(638.108 1960.04)" fill="#272F32"/>
</g>
<g id="Fill 17">
<use xlink:href="#path14_fill" transform="translate(655.504 1960.04)" fill="#272F32"/>
</g>
<g id="Fill 18">
<use xlink:href="#path15_fill" transform="translate(666.776 1961.12)" fill="#272F32"/>
</g>
<g id="Fill 19">
<use xlink:href="#path16_fill" transform="translate(649.5 1959.78)" fill="#272F32"/>
</g>
</g>
</g>
</g>
<defs>
<path id="path0_fill" fill-rule="evenodd" d="M 0 0L 44.7288 0L 44.7288 26.8355L 0 26.8355L 0 0Z"/>
<path id="path1_fill" fill-rule="evenodd" d="M 3.32801 16.6615C 1.27792 14.828 0 12.3464 0 9.46755C 0 4.23882 4.25773 -0.0129551 9.50914 2.96621e-05C 13.0332 0.00909836 15.57 1.52481 17.6563 4.41546C 17.789 4.5993 17.8536 4.94886 17.628 5.20114L 4.12503 16.7365C 3.9 16.9053 3.53503 16.8468 3.32801 16.6615Z"/>
<path id="path2_fill" fill-rule="evenodd" d="M 1.37462 5.79449C 1.25269 5.54655 1.29926 5.17947 1.52491 4.91297C 1.52491 4.91297 6.63949 0.520631 7.10652 0.11357C 7.33217 -0.0828497 7.72675 0.00144796 7.92383 0.170043L 13.534 4.77261C 13.9288 5.05333 14.0271 5.24955 14.0555 5.62858L 14.0555 16.1674C 14.0555 16.6446 13.8578 16.8126 13.4495 16.8126L 0.42565 16.8126C 0.0451515 16.8126 -0.124189 16.3888 0.10146 16.0974C 1.38393 14.4413 2.25817 12.6175 2.28591 9.95084C 2.30392 8.26695 1.99132 7.04927 1.37462 5.79449Z"/>
<path id="path3_fill" fill-rule="evenodd" d="M 1.09491 2.20802L 3.16074 2.20802L 3.16074 3.26927L 1.09491 3.26927L 1.09491 4.56733L 3.16074 4.56733L 3.16074 5.62837L 0 5.62837L 0 0L 3.16074 0L 3.16074 1.0734L 1.09491 1.0734"/>
<path id="path4_fill" fill-rule="evenodd" d="M 1.68427 3.59166C 2.2132 3.82456 2.49619 3.95936 2.49619 4.48575C 2.49619 5.00019 2.14965 5.15065 1.68427 5.14694C 1.19322 5.14344 0.532424 4.93981 0.22314 4.67331L 0.22314 5.75145C 0.593494 6.03629 1.08558 6.20489 1.64701 6.20716C 2.98765 6.2119 3.68696 5.44724 3.6822 4.51007C 3.6764 3.42039 2.99366 2.86349 1.89294 2.46529C 1.48781 2.31874 1.17211 2.03947 1.17211 1.70022C 1.17211 1.36014 1.52259 1.09674 1.95484 1.08499C 2.55726 1.06933 2.92927 1.1629 3.3106 1.40487L 3.3106 0.292508C 2.94998 0.120615 2.44133 -0.00263654 1.88694 4.28497e-05C 0.835498 0.00395888 0.0115681 0.736463 0.000182089 1.64478C -0.01286 2.67304 0.675887 3.13864 1.68427 3.59166Z"/>
<path id="path5_fill" fill-rule="evenodd" d="M 1.1684 2.2816L 2.85373 2.2816L 2.85373 0L 3.97245 0L 3.97245 5.64857L 2.85373 5.64857L 2.85373 3.35893L 1.1684 3.35893L 1.1684 5.64857L 0 5.64857L 0 0L 1.1684 0L 1.1684 2.2816Z"/>
<path id="path6_fill" fill-rule="evenodd" d="M 1.68407 3.59245C 2.213 3.82515 2.49578 3.95994 2.49578 4.48655C 2.49578 5.00037 2.14986 5.15041 1.68407 5.14712C 1.19281 5.14382 0.532015 4.9406 0.223353 4.6741L 0.223353 5.75204C 0.593085 6.03688 1.08537 6.20547 1.6468 6.20795C 2.98786 6.21269 3.68737 5.44783 3.6822 4.51087C 3.67682 3.42097 2.99366 2.86407 1.89336 2.46608C 1.4874 2.31913 1.17211 2.04027 1.17211 1.70081C 1.17211 1.36094 1.52259 1.09712 1.95526 1.0862C 2.55685 1.06992 2.92907 1.16287 3.31019 1.40546L 3.31019 0.2931C 2.94998 0.121413 2.44196 -0.00163248 1.88715 1.63743e-05C 0.83571 0.00455072 0.0113668 0.737054 0.000187865 1.64537C -0.0130612 2.67384 0.675685 3.13923 1.68407 3.59245Z"/>
<path id="path7_fill" fill-rule="evenodd" d="M 0 0L 14.167 0L 14.167 6.20757L 0 6.20757L 0 0Z"/>
<path id="path8_fill" fill-rule="evenodd" d="M 2.27512 2.68496L 4.39022 5.64857L 2.97588 5.64857L 1.16841 3.10603L 1.16841 5.64857L 0 5.64857L 0 0L 1.16841 0L 1.16841 2.25254L 2.89017 0L 4.27885 0L 2.27512 2.68496Z"/>
<path id="path9_fill" fill-rule="evenodd" d="M 1.68427 3.59226C 2.2132 3.82454 2.49599 3.95933 2.49599 4.48573C 2.49599 5.00038 2.15027 5.15042 1.68427 5.14713C 1.19322 5.14321 0.532217 4.9404 0.223554 4.6739L 0.223554 5.75205C 0.593494 6.03689 1.08558 6.20548 1.64763 6.20754C 2.98827 6.21249 3.68737 5.44722 3.68261 4.51026C 3.67661 3.42078 2.99366 2.86408 1.89356 2.46527C 1.4876 2.31852 1.17252 2.04007 1.17252 1.7002C 1.17252 1.36095 1.52259 1.09713 1.95526 1.08559C 2.55788 1.06992 2.92989 1.16288 3.31101 1.40547L 3.31101 0.293109C 2.94998 0.121422 2.44195 -0.00203564 1.88756 2.54255e-05C 0.835912 0.00435366 0.0115681 0.736856 0.000182089 1.64517C -0.01286 2.67364 0.675887 3.13923 1.68427 3.59226Z"/>
<path id="path10_fill" fill-rule="evenodd" d="M 1.09471 2.20823L 1.09471 1.07361L 3.16054 1.07361L 3.16054 0L 0 0L 0 5.62857L 3.16054 5.62857L 3.16054 4.56733L 1.09471 4.56733L 1.09471 3.27009L 3.16054 3.27009L 3.16054 2.20823L 1.09471 2.20823Z"/>
<path id="path11_fill" fill-rule="evenodd" d="M 0 5.64836L 1.21809 5.64836L 1.21809 0L 0 0L 0 5.64836Z"/>
<path id="path12_fill" fill-rule="evenodd" d="M 4.00641 0L 2.82868 0L 2.832 4.07515C 2.832 4.52013 2.46972 4.88062 2.02339 4.88062C 1.57664 4.88062 1.21457 4.52013 1.21457 4.07515L 1.21768 0L 0 0L 0 3.94963C 0 5.18359 0.905701 5.93671 2.00765 5.93671C 3.11002 5.93671 4.01241 5.24439 4.00641 3.94963L 4.00641 0Z"/>
<path id="path13_fill" fill-rule="evenodd" d="M 0 5.64258L 1.21706 5.64258L 1.21706 0L 0 0L 0 5.64258Z"/>
<path id="path14_fill" fill-rule="evenodd" d="M 4.00974 0L 2.82911 0L 2.83242 4.07185C 2.83242 4.51684 2.47055 4.87732 2.0236 4.87732C 1.57727 4.87732 1.21665 4.51684 1.21665 4.07185L 1.21665 0L 0 0L 0 3.94592C 0.000828073 5.18029 0.906533 5.93361 2.00828 5.93361C 3.11066 5.93361 4.00974 5.2411 4.00415 3.94592L 4.00974 0Z"/>
<path id="path15_fill" fill-rule="evenodd" d="M 0 0L 0 1.13462L 0 0Z"/>
<path id="path16_fill" fill-rule="evenodd" d="M 2.40431 2.09976e-07C 0.792672 -0.000618111 0 1.36443 0 3.04771C 0 4.73139 0.904047 6.09665 2.40431 6.09603C 3.99131 6.09562 4.80882 4.73139 4.80882 3.04771C 4.80882 1.36443 4.00373 0.000618531 2.40431 2.09976e-07ZM 2.40433 5.10837C 1.61104 5.12156 1.11523 4.18604 1.11523 3.04771C 1.11523 1.91 1.57398 0.987053 2.40433 0.987671C 3.23509 0.987671 3.69342 1.91 3.69342 3.04771C 3.69342 4.18604 3.19782 5.096 2.40433 5.10837Z"/>
</defs>
</svg>
