<svg id="logo" width="381" height="253" viewBox="0 0 381 253" version="1.1" xmlns="http://www.w3.org/2000/svg" xmlns:xlink="http://www.w3.org/1999/xlink">
<title>Melrose Logo</title>
<desc>Created using Figma</desc>
<g id="Canvas" transform="translate(-455 -66)">
<g id="Melrose Logo">
<g id="Page 1">
<g id="Group 3">
<mask id="mask0_outline" mask-type="alpha">
<g id="Clip 2">
<use xlink:href="#path0_fill" transform="translate(455 269.997)" fill="#FFFFFF"/>
</g>
</mask>
<g id="Fill 1" mask="url(#mask0_outline)">
<use xlink:href="#path1_fill" transform="translate(455 269.997)" fill="#FEFEFE"/>
</g>
</g>
<g id="Fill 4">
<use xlink:href="#path2_fill" transform="translate(507.54 283.052)" fill="#FEFEFE"/>
</g>
<g id="Fill 6">
<use xlink:href="#path3_fill" transform="translate(546.233 270.843)" fill="#FEFEFE"/>
</g>
<g id="Fill 8">
<use xlink:href="#path4_fill" transform="translate(580.688 282.849)" fill="#FEFEFE"/>
</g>
<g id="Fill 10">
<use xlink:href="#path5_fill" transform="translate(620.37 282.85)" fill="#FEFEFE"/>
</g>
<g id="Fill 12">
<use xlink:href="#path6_fill" transform="translate(649.325 283.052)" fill="#FEFEFE"/>
</g>
<g id="Fill 14">
<use xlink:href="#path7_fill" transform="translate(737.58 283.118)" fill="#FEFEFE"/>
</g>
<g id="Fill 16">
<use xlink:href="#path8_fill" transform="translate(779.369 283.189)" fill="#FEFEFE"/>
</g>
<g id="Fill 18">
<use xlink:href="#path9_fill" transform="translate(560.096 283.189)" fill="#FEFEFE"/>
</g>
<g id="Fill 20">
<use xlink:href="#path10_fill" transform="translate(703.387 270.843)" fill="#FEFEFE"/>
</g>
<g id="Fill 22">
<use xlink:href="#path11_fill" transform="translate(603.233 104.251)" fill="#FEFEFE"/>
</g>
<g id="Fill 24">
<use xlink:href="#path12_fill" transform="translate(641.941 66)" fill="#FEFEFE"/>
</g>
<g id="Fill 26">
<use xlink:href="#path13_fill" transform="translate(573.287 134.471)" fill="#FEFEFE"/>
</g>
<g id="Fill 28">
<use xlink:href="#path14_fill" transform="translate(657.887 104.251)" fill="#FEFEFE"/>
</g>
<g id="Group 32">
<mask id="mask1_outline" mask-type="alpha">
<g id="Clip 31">
<use xlink:href="#path15_fill" transform="translate(803.61 270.843)" fill="#FFFFFF"/>
</g>
</mask>
<g id="Fill 30" mask="url(#mask1_outline)">
<use xlink:href="#path16_fill" transform="translate(803.61 270.843)" fill="#FEFEFE"/>
</g>
</g>
</g>
</g>
</g>
<defs>
<path id="path0_fill" fill-rule="evenodd" d="M 0 0L 48.1504 0L 48.1504 47.8584L 0 47.8584L 0 0Z"/>
<path id="path1_fill" fill-rule="evenodd" d="M 24.956 27.3023C 24.4717 27.8871 23.6789 27.8871 23.1946 27.3023L 0.881002 0.362993C 0.396675 -0.221811 0 -0.0795184 0 0.678844L 0 46.4789C 0 47.2376 0.622524 47.8584 1.38324 47.8584L 6.9367 47.8584C 7.69742 47.8584 8.31962 47.2376 8.31962 46.4789L 8.31962 22.5961C 8.31962 21.8374 8.71438 21.6967 9.19678 22.2834L 23.1981 39.3046C 23.6805 39.891 24.4701 39.891 24.9525 39.3046L 38.9538 22.2834C 39.4362 21.6967 39.831 21.8374 39.831 22.5961L 39.831 46.4789C 39.831 47.2376 40.4532 47.8584 41.2139 47.8584L 46.7677 47.8584C 47.5284 47.8584 48.1506 47.2376 48.1506 46.4789L 48.1506 0.676292C 48.1506 -0.0823898 47.7542 -0.224363 47.2699 0.36044L 24.956 27.3023Z"/>
<path id="path2_fill" fill-rule="evenodd" d="M 17.6504 0C 12.51 0 8.25084 1.6169 4.93605 4.92282C 1.62413 8.1595 0 12.4761 0 17.8045L 0 18.143C 0 23.4706 1.62413 27.7876 4.93605 31.0243C 8.25084 34.1952 12.6479 35.8121 17.9876 35.8121C 22.9339 35.8121 27.0404 34.7232 30.3168 32.5448C 30.4752 32.4399 30.5689 32.259 30.5689 32.0695L 30.5689 25.9978C 30.5689 25.5297 30.0376 25.294 29.6646 25.5782C 26.8888 27.6963 23.1265 28.7323 18.327 28.7323C 12.5401 28.7323 8.62736 25.5514 8.09633 20.5096C 8.0621 20.1851 8.33337 19.8948 8.66063 19.8948L 34.1492 19.8948C 34.218 19.019 34.2871 18.0077 34.2871 16.9966C 34.2871 12.2065 32.7321 8.1595 29.6191 4.92282C 26.5779 1.6169 22.5865 0 17.6504 0ZM 8.87849 14.1648C 8.54547 14.1648 8.26844 13.8681 8.31995 13.5395C 8.5941 11.7895 9.52468 10.3035 11.159 9.03559C 12.985 7.62256 15.1504 6.87888 17.6504 6.87888C 20.0177 6.87888 21.9787 7.62256 23.6028 9.03559C 25.0583 10.307 25.8616 11.8511 26.011 13.5704C 26.0385 13.8888 25.7637 14.1648 25.4432 14.1648L 8.87849 14.1648Z"/>
<path id="path3_fill" fill-rule="evenodd" d="M 0 45.6309C 0 46.3896 0.622203 47.0101 1.38292 47.0101L 6.73515 47.0101C 7.49555 47.0101 8.11775 46.3896 8.11775 45.6309L 8.11775 1.37922C 8.11775 0.620536 7.49555 0 6.73515 0L 1.38292 0C 0.622203 0 0 0.620536 0 1.37922L 0 45.6309Z"/>
<path id="path4_fill" fill-rule="evenodd" d="M 18.598 0C 13.3913 0 8.99396 1.75218 5.41109 5.19527C 1.82598 8.63358 0 12.9502 0 18.008C 0 23.0657 1.82598 27.3824 5.41109 30.8207C 8.99396 34.2615 13.3913 36.016 18.598 36.016C 23.8072 36.016 28.1994 34.2615 31.7845 30.8207C 35.3671 27.3824 37.1956 23.0657 37.1956 18.008C 37.1956 12.9502 35.3671 8.63358 31.7845 5.19527C 28.1994 1.75218 23.8072 0 18.598 0ZM 26.1028 25.6305C 24.0753 27.6526 21.5727 28.6636 18.598 28.6636C 15.5541 28.6636 13.0515 27.6526 11.024 25.6305C 9.06271 23.5395 8.04895 21.0436 8.04895 18.0079C 8.04895 14.9723 9.06271 12.4764 11.024 10.4546C 13.0515 8.36364 15.5541 7.3526 18.598 7.3526C 21.5727 7.3526 24.0753 8.36364 26.1028 10.4546C 28.1329 12.4764 29.1466 14.9723 29.1466 18.0079C 29.1466 21.0436 28.1329 23.5395 26.1028 25.6305Z"/>
<path id="path5_fill" fill-rule="evenodd" d="M 22.4512 17.9394C 21.1668 17.0633 19.9486 16.3225 18.9348 15.8484C 17.9211 15.3775 16.4326 14.7024 14.4713 13.9616C 13.4575 13.5542 12.3084 13.1515 11.4962 12.8816C 10.7505 12.5431 10.6178 12.4078 10.0765 12.1405C 9.19806 11.6007 8.72301 10.9259 8.72301 9.98089C 8.72301 8.02517 10.3471 7.08017 13.6616 7.08017C 16.5205 7.08017 19.216 7.79163 21.6978 9.16096C 22.0682 9.36546 22.5177 9.11916 22.5177 8.69707L 22.5177 2.61263C 22.5177 2.41451 22.416 2.22627 22.2458 2.12418C 19.8587 0.687853 16.9031 0 13.3222 0C 9.80586 0 6.89734 0.876407 4.53009 2.62858C 2.23194 4.38331 1.0803 6.81026 1.0803 9.84594C 1.0803 14.094 3.51633 17.331 8.31705 19.4242C 9.87208 20.0278 12.7144 21.1764 14.0653 21.7826C 14.8081 22.0525 15.485 22.3913 16.2282 22.7962C 17.7857 23.6033 18.3936 24.482 18.3936 25.5594C 18.3936 27.65 16.2282 28.7986 12.6453 28.7986C 8.02371 28.7986 4.07423 27.5658 0.903395 25.0511C 0.535511 24.7595 0 24.9956 0 25.4643L 0 31.9309C 0 32.1214 0.0969294 32.3029 0.255919 32.4079C 3.77897 34.7232 7.82313 35.881 12.51 35.881C 17.1779 35.881 20.6252 34.8677 22.8571 32.8431C 25.089 30.7546 26.2381 28.3251 26.2381 25.4244C 26.2381 22.1211 25.1556 19.7605 22.4512 17.9394Z"/>
<path id="path6_fill" fill-rule="evenodd" d="M 17.6504 0C 12.51 0 8.25052 1.6169 4.93605 4.92282C 1.62381 8.1595 0 12.4761 0 17.8045L 0 18.143C 0 23.4706 1.62381 27.7876 4.93605 31.0243C 8.25052 34.1952 12.6479 35.8121 17.9902 35.8121C 22.9339 35.8121 27.0427 34.7232 30.3172 32.5451C 30.4752 32.4399 30.5689 32.259 30.5689 32.0695L 30.5689 25.9978C 30.5689 25.5297 30.0376 25.294 29.6646 25.5785C 26.8888 27.6963 23.1262 28.7323 18.327 28.7323C 12.5397 28.7323 8.62736 25.5514 8.09633 20.5096C 8.0621 20.1851 8.33306 19.8948 8.66031 19.8948L 34.1489 19.8948C 34.218 19.019 34.2868 18.0077 34.2868 16.9966C 34.2868 12.2065 32.7318 8.1595 29.6188 4.92282C 26.5775 1.6169 22.5865 0 17.6504 0ZM 8.87847 14.1648C 8.54513 14.1648 8.26842 13.8681 8.31992 13.5395C 8.59375 11.7895 9.52466 10.3035 11.159 9.03559C 12.985 7.62256 15.1504 6.87888 17.6504 6.87888C 20.0174 6.87888 21.9787 7.62256 23.6025 9.03559C 25.0584 10.307 25.8616 11.8511 26.011 13.5704C 26.0385 13.8888 25.7638 14.1648 25.4429 14.1648L 8.87847 14.1648Z"/>
<path id="path7_fill" fill-rule="evenodd" d="M 27.9285 5.6665C 26.782 2.36091 22.6556 0 17.0426 0C 12.2393 0 8.1843 1.68869 4.86982 5.12668C 1.62413 8.49864 0 12.6803 0 17.7381C 0 22.7959 1.62413 26.9779 4.86982 30.4184C 8.1843 33.79 12.2393 35.4765 17.0426 35.4765C 22.6556 35.4765 26.782 33.1153 27.9285 29.8097L 27.9285 34.1834C 27.9285 34.4881 28.1761 34.7351 28.4816 34.7351L 35.4909 34.7351C 35.7964 34.7351 36.0437 34.4881 36.0437 34.1834L 36.0437 1.29563C 36.0437 0.990944 35.7964 0.743687 35.4909 0.743687L 28.4816 0.743687C 28.1761 0.743687 27.9285 0.990944 27.9285 1.29563L 27.9285 5.6665ZM 25.4924 25.1567C 23.534 27.1128 21.0311 28.1261 18.1251 28.1261C 15.2144 28.1261 12.8497 27.1128 10.8861 25.1567C 8.99395 23.201 8.04865 20.7052 8.04865 17.7381C 8.04865 14.7713 8.99395 12.2754 10.8861 10.3194C 12.8497 8.36367 15.2144 7.35263 18.1251 7.35263C 21.0311 7.35263 23.534 8.36367 25.4924 10.3194C 27.5251 12.2754 28.5388 14.7713 28.5388 17.7381C 28.5388 20.7052 27.5251 23.201 25.4924 25.1567Z"/>
<path id="path8_fill" fill-rule="evenodd" d="M 8.0461 5.73031L 8.0461 2.05144C 8.0461 1.29308 7.4239 0.672221 6.6635 0.672221L 1.38292 0.672221C 0.622204 0.672221 0 1.29308 0 2.05144L 0 33.2844C 0 34.043 0.622204 34.6636 1.38292 34.6636L 6.6635 34.6636C 7.4239 34.6636 8.0461 34.043 8.0461 33.2844L 8.0461 16.7905C 8.0461 11.1929 11.6315 8.02454 17.2442 8.02454C 18.7509 8.02454 18.9511 8.04592 18.9511 8.04592C 19.7074 8.12536 20.3264 7.56991 20.3264 6.81122L 20.3264 1.54225C 20.3264 0.783567 19.7944 0.0896508 19.144 0L 18.1891 0C 13.3881 0 9.67023 2.15704 8.0461 5.73031Z"/>
<path id="path9_fill" fill-rule="evenodd" d="M 8.04643 5.73031L 8.04643 2.05144C 8.04643 1.29308 7.42423 0.672221 6.6635 0.672221L 1.38293 0.672221C 0.622204 0.672221 0 1.29308 0 2.05144L 0 33.2844C 0 34.043 0.622204 34.6636 1.38293 34.6636L 6.6635 34.6636C 7.42423 34.6636 8.04643 34.043 8.04643 33.2844L 8.04643 16.7905C 8.04643 11.1929 11.629 8.02454 17.2445 8.02454C 18.7509 8.02454 18.9512 8.04592 18.9512 8.04592C 19.7077 8.12536 20.3267 7.56991 20.3267 6.81122L 20.3267 1.54225C 20.3267 0.783567 19.7947 0.0896508 19.1441 0L 18.1892 0C 13.3884 0 9.668 2.15704 8.04643 5.73031Z"/>
<path id="path10_fill" fill-rule="evenodd" d="M 28.6745 4.25059C 25.5642 1.41591 19.3495 0.254276 19.3495 0.254276C 18.6019 0.114217 17.368 0 16.6073 0L 1.38293 0C 0.622525 0 0 0.620536 0 1.37922L 0 45.6312C 0 46.3896 0.622525 47.0101 1.38293 47.0101L 7.07234 47.0101C 7.83307 47.0101 8.45527 46.3896 8.45527 45.6312L 8.45527 33.4834C 8.45527 32.7247 9.07748 32.1042 9.83788 32.1042L 17.9905 32.1042C 22.0478 32.1042 25.6329 30.6883 28.6745 27.7872C 31.7849 24.8891 33.3425 20.4707 33.3425 16.0854C 33.3425 11.5675 31.7849 7.0824 28.6745 4.25059ZM 17.5842 24.4845L 9.83786 24.4845C 9.07747 24.4845 8.45526 24.1349 8.45526 23.7077L 8.45526 21.5519L 8.45526 9.00179C 8.45526 8.24311 9.07747 7.62225 9.83786 7.62225L 17.5842 7.62225C 21.3712 7.62225 24.9563 11.1649 24.9563 16.0855C 24.9563 20.9419 21.3712 24.4845 17.5842 24.4845Z"/>
<path id="path11_fill" fill-rule="evenodd" d="M 2.28216 0.388082C 1.89125 0.0026802 1.32982 -0.105156 0.823101 0.107326C 0.314461 0.319169 0 0.791032 0 1.33946L 0 66.6932C 0 67.4302 0.600451 68.029 1.33942 68.029L 6.75436 68.029C 7.49333 68.029 8.09378 67.4302 8.09378 66.6932L 8.09378 17.4479L 28.9944 38.0107C 29.3162 38.3244 29.7708 38.4108 30.1841 38.2405C 30.5993 38.0669 30.8556 37.6815 30.8556 37.2339L 30.8556 29.0594C 30.8556 28.6992 30.7152 28.3616 30.4592 28.108L 2.28216 0.388082Z"/>
<path id="path12_fill" fill-rule="evenodd" d="M 68.6542 72.507C 68.6542 106.479 42.0635 134.7 8.09344 136.804L 8.09344 8.20894C 42.0635 10.3133 68.6542 38.5351 68.6542 72.507ZM 54.7639 21.067C 47.9404 14.4583 40.0188 9.2688 31.2183 5.64225C 22.1335 1.8983 12.5266 0 2.6654 0L 1.33942 0C 0.600451 0 0 0.598841 0 1.33583L 0 179.607C 0 180.344 0.600451 180.943 1.33942 180.943L 6.75436 180.943C 7.49332 180.943 8.09345 180.344 8.09345 179.607L 8.09345 144.898C 26.6486 143.878 43.9395 135.873 56.7933 122.354C 69.7224 108.755 76.8075 90.9677 76.7477 72.2693C 76.6844 52.9198 68.8766 34.736 54.7639 21.067Z"/>
<path id="path13_fill" fill-rule="evenodd" d="M 59.7358 67.1484C 45.3742 64.2173 32.2846 56.3546 22.8779 45.0034C 13.344 33.4991 8.09345 18.9482 8.09345 4.03588L 8.09345 1.33551C 8.09345 0.598841 7.493 0 6.75435 0L 1.33942 0C 0.600451 0 0 0.598841 0 1.33551L 0 4.03588C 0 21.0118 6.03042 37.5321 16.9822 50.5512C 27.7973 63.4079 42.7949 72.187 59.2102 75.2724C 59.2924 75.2874 59.3749 75.2948 59.4568 75.2948C 59.7636 75.2948 60.0649 75.1885 60.3081 74.9869C 60.6222 74.7278 60.802 74.3488 60.802 73.9462L 60.802 68.443C 60.802 67.8104 60.364 67.2789 59.7358 67.1484Z"/>
<path id="path14_fill" fill-rule="evenodd" d="M 28.5734 0.388082C 28.9643 0.0026802 29.5258 -0.105156 30.0325 0.107326C 30.5411 0.319169 30.8556 0.791032 30.8556 1.33946L 30.8556 66.6932C 30.8556 67.4302 30.2551 68.029 29.5162 68.029L 24.1012 68.029C 23.3623 68.029 22.7618 67.4302 22.7618 66.6932L 22.7618 17.4479L 1.86117 38.0107C 1.53936 38.3244 1.08478 38.4108 0.671469 38.2405C 0.255919 38.0669 0 37.6815 0 37.2339L 0 29.0594C 0 28.6992 0.140116 28.3616 0.396355 28.108L 28.5734 0.388082Z"/>
<path id="path15_fill" fill-rule="evenodd" d="M 0 0L 32.2465 0L 32.2465 47.0105L 0 47.0105L 0 0Z"/>
<path id="path16_fill" fill-rule="evenodd" d="M 31.4685 45.8677L 19.6489 28.5431C 19.5014 28.3271 19.3578 28.1325 19.2279 27.9697C 18.9054 27.5279 18.7896 27.4385 18.7896 27.4385C 18.8226 27.3932 18.8785 27.3202 18.9534 27.2251C 18.9668 27.2082 18.9806 27.1906 18.9953 27.1725C 19.0084 27.1559 19.0209 27.1402 19.0353 27.1224C 19.0762 27.0713 19.1201 27.0164 19.1677 26.9577C 19.1681 26.9574 19.1687 26.9565 19.1693 26.9558C 19.2151 26.8994 19.2643 26.8387 19.3155 26.7762C 19.3213 26.7692 19.3274 26.7619 19.3331 26.7545C 19.3865 26.6894 19.4416 26.6221 19.4995 26.5522L 29.7922 14.0812C 30.2756 13.4958 30.0488 13.0166 29.2884 13.0166L 21.63 13.0166C 20.8696 13.0166 19.852 13.4958 19.3686 14.0812L 8.92488 26.7354C 8.44183 27.3211 8.04611 27.4165 8.04611 26.9472L 8.04611 24.7149L 8.04611 23.3168L 8.04611 20.5587L 8.04611 1.37954C 8.04611 0.620855 7.42391 0 6.66351 0L 1.38293 0C 0.622204 0 0 0.620855 0 1.37954L 0 11.6374L 0 14.3955L 0 23.6375L 0 26.3959L 0 33.6311L 0 36.2824L 0 38.9336L 0 45.6312C 0 46.3899 0.588935 47.0105 1.30871 47.0105C 2.38069 47.0105 2.87782 46.6949 3.49618 45.9455L 3.69836 45.7002C 3.69964 45.6986 3.70092 45.697 3.70252 45.6954L 3.97603 45.3636C 4.28697 44.9868 4.71916 44.4632 5.231 43.8424L 5.70957 43.263C 5.82281 43.1255 5.93829 42.9854 6.05634 42.8422L 6.39255 42.4348C 7.02083 41.6735 7.6955 40.8562 8.36249 40.0477L 9.31451 38.8934C 9.45815 38.7195 9.59986 38.5479 9.73902 38.3788L 9.96615 38.1038C 10.1866 37.8367 10.3999 37.5783 10.6031 37.3317L 10.6431 37.2832C 11.1655 36.6499 11.6165 36.1034 11.9591 35.6886L 12.5804 34.9351C 12.6095 34.9 12.6296 34.8757 12.6296 34.8757C 12.811 34.6559 13.0289 34.5232 13.2534 34.4766C 13.4028 34.4453 13.5554 34.4527 13.7016 34.497C 13.9207 34.564 14.1258 34.7159 14.2864 34.951L 21.7343 45.8702C 22.1623 46.4974 23.1345 47.0105 23.8952 47.0105L 30.8636 47.0105C 31.6243 47.0105 32.2468 47.0098 32.2468 47.0092C 32.2468 47.0082 31.8965 46.4949 31.4685 45.8677Z"/>
</defs>
</svg>
