<svg id="logo" width="111" height="74" viewBox="0 0 111 74" version="1.1" xmlns="http://www.w3.org/2000/svg" xmlns:xlink="http://www.w3.org/1999/xlink">
<title>Melrose Logo</title>
<desc>Created using Figma</desc>
<g id="Canvas" transform="translate(-590 -1263)">
<g id="Melrose Logo">
<g id="Page 1">
<g id="Fill 1">
<use xlink:href="#path0_fill" transform="translate(590 1322.67)" fill="#00B398" fill-opacity="0.99"/>
</g>
<g id="Fill 4">
<use xlink:href="#path1_fill" transform="translate(605.307 1326.49)" fill="#00B398" fill-opacity="0.99"/>
</g>
<g id="Fill 6">
<use xlink:href="#path2_fill" transform="translate(616.58 1322.91)" fill="#00B398" fill-opacity="0.99"/>
</g>
<g id="Fill 8">
<use xlink:href="#path3_fill" transform="translate(626.618 1326.43)" fill="#00B398" fill-opacity="0.99"/>
</g>
<g id="Fill 10">
<use xlink:href="#path4_fill" transform="translate(638.179 1326.43)" fill="#00B398" fill-opacity="0.99"/>
</g>
<g id="Fill 12">
<use xlink:href="#path5_fill" transform="translate(646.614 1326.49)" fill="#00B398" fill-opacity="0.99"/>
</g>
<g id="Fill 14">
<use xlink:href="#path6_fill" transform="translate(672.327 1326.51)" fill="#00B398" fill-opacity="0.99"/>
</g>
<g id="Fill 16">
<use xlink:href="#path7_fill" transform="translate(684.501 1326.53)" fill="#00B398" fill-opacity="0.99"/>
</g>
<g id="Fill 18">
<use xlink:href="#path8_fill" transform="translate(620.618 1326.53)" fill="#00B398" fill-opacity="0.99"/>
</g>
<g id="Fill 20">
<use xlink:href="#path9_fill" transform="translate(662.365 1322.91)" fill="#00B398" fill-opacity="0.99"/>
</g>
<g id="Fill 22">
<use xlink:href="#path10_fill" transform="translate(633.186 1274.19)" fill="#00B398" fill-opacity="0.99"/>
</g>
<g id="Fill 24">
<use xlink:href="#path11_fill" transform="translate(644.463 1263)" fill="#00B398" fill-opacity="0.99"/>
</g>
<g id="Fill 26">
<use xlink:href="#path12_fill" transform="translate(624.461 1283.03)" fill="#00B398" fill-opacity="0.99"/>
</g>
<g id="Fill 28">
<use xlink:href="#path13_fill" transform="translate(649.109 1274.19)" fill="#00B398" fill-opacity="0.99"/>
</g>
<g id="Fill 30">
<use xlink:href="#path14_fill" transform="translate(691.563 1322.91)" fill="#00B398" fill-opacity="0.99"/>
</g>
</g>
</g>
</g>
<defs>
<path id="path0_fill" fill-rule="evenodd" d="M 7.27064 7.98562C 7.12954 8.15667 6.89859 8.15667 6.75749 7.98562L 0.25667 0.106172C 0.115567 -0.0648774 0 -0.0232583 0 0.198555L 0 13.5946C 0 13.8165 0.181365 13.9981 0.402992 13.9981L 2.02093 13.9981C 2.24255 13.9981 2.42383 13.8165 2.42383 13.5946L 2.42383 6.60911C 2.42383 6.38721 2.53883 6.34605 2.67938 6.51766L 6.75851 11.4962C 6.89905 11.6677 7.12907 11.6677 7.26961 11.4962L 11.3487 6.51766C 11.4893 6.34605 11.6043 6.38721 11.6043 6.60911L 11.6043 13.5946C 11.6043 13.8165 11.7856 13.9981 12.0072 13.9981L 13.6252 13.9981C 13.8469 13.9981 14.0281 13.8165 14.0281 13.5946L 14.0281 0.197808C 14.0281 -0.0240982 13.9127 -0.065624 13.7715 0.105425L 7.27064 7.98562Z"/>
<path id="path1_fill" fill-rule="evenodd" d="M 5.14225 0C 3.64464 0 2.40379 0.472927 1.43806 1.43987C 0.473171 2.38656 0 3.64913 0 5.20761L 0 5.30662C 0 6.86491 0.473171 8.12757 1.43806 9.07426C 2.40379 10.0017 3.68481 10.4747 5.24049 10.4747C 6.68153 10.4747 7.87792 10.1562 8.83247 9.51901C 8.8786 9.48831 8.90591 9.4354 8.90591 9.37997L 8.90591 7.60407C 8.90591 7.46717 8.75111 7.39821 8.64244 7.48135C 7.83375 8.10088 6.73763 8.40388 5.33937 8.40388C 3.6534 8.40388 2.51348 7.47352 2.35877 5.99884C 2.3488 5.90394 2.42783 5.81902 2.52318 5.81902L 9.94899 5.81902C 9.96903 5.56287 9.98916 5.26705 9.98916 4.97133C 9.98916 3.57028 9.53612 2.38656 8.6292 1.43987C 7.74316 0.472927 6.58031 0 5.14225 0ZM 2.58665 4.14306C 2.48963 4.14306 2.40892 4.05627 2.42392 3.96016C 2.5038 3.44831 2.77491 3.01363 3.25106 2.64279C 3.78304 2.22949 4.41391 2.01196 5.14226 2.01196C 5.83193 2.01196 6.40324 2.22949 6.87641 2.64279C 7.30046 3.01466 7.53448 3.46632 7.57801 3.96921C 7.58602 4.06234 7.50596 4.14306 7.41258 4.14306L 2.58665 4.14306Z"/>
<path id="path2_fill" fill-rule="evenodd" d="M 0 13.3466C 0 13.5685 0.181271 13.75 0.402898 13.75L 1.9622 13.75C 2.18374 13.75 2.36501 13.5685 2.36501 13.3466L 2.36501 0.403407C 2.36501 0.1815 2.18374 0 1.9622 0L 0.402898 0C 0.181271 0 0 0.1815 0 0.403407L 0 13.3466Z"/>
<path id="path3_fill" fill-rule="evenodd" d="M 5.4183 0C 3.9014 0 2.62029 0.512494 1.57646 1.51957C 0.53198 2.52524 0 3.78781 0 5.26716C 0 6.74651 0.53198 8.00908 1.57646 9.01475C 2.62029 10.0212 3.9014 10.5343 5.4183 10.5343C 6.93596 10.5343 8.21558 10.0212 9.26006 9.01475C 10.3038 8.00908 10.8365 6.74651 10.8365 5.26716C 10.8365 3.78781 10.3038 2.52524 9.26006 1.51957C 8.21558 0.512494 6.93596 0 5.4183 0ZM 7.60475 7.49661C 7.01406 8.08805 6.28496 8.38377 5.4183 8.38377C 4.53151 8.38377 3.80242 8.08805 3.21172 7.49661C 2.64032 6.88502 2.34497 6.155 2.34497 5.2671C 2.34497 4.37919 2.64032 3.64918 3.21172 3.05783C 3.80242 2.44623 4.53151 2.15051 5.4183 2.15051C 6.28496 2.15051 7.01406 2.44623 7.60475 3.05783C 8.1962 3.64918 8.49154 4.37919 8.49154 5.2671C 8.49154 6.155 8.1962 6.88502 7.60475 7.49661Z"/>
<path id="path4_fill" fill-rule="evenodd" d="M 6.54087 5.24708C 6.16668 4.99084 5.81178 4.77415 5.51643 4.63549C 5.22108 4.49775 4.78743 4.30029 4.21603 4.08361C 3.92068 3.96445 3.58591 3.84668 3.34928 3.76774C 3.13204 3.66873 3.09336 3.62916 2.93567 3.55096C 2.67974 3.39307 2.54134 3.19571 2.54134 2.91931C 2.54134 2.34728 3.01451 2.07087 3.98014 2.07087C 4.81306 2.07087 5.59835 2.27897 6.32139 2.67948C 6.42931 2.7393 6.56026 2.66726 6.56026 2.5438L 6.56026 0.764167C 6.56026 0.706218 6.53062 0.651161 6.48104 0.6213C 5.78559 0.20119 4.92453 0 3.88126 0C 2.85682 0 2.00946 0.25634 1.31979 0.768833C 0.650247 1.28207 0.314732 1.99193 0.314732 2.87983C 0.314732 4.12234 1.02444 5.06913 2.42307 5.68138C 2.87611 5.85793 3.70418 6.19387 4.09776 6.37117C 4.31417 6.45012 4.51138 6.54922 4.72788 6.66764C 5.18166 6.90373 5.35874 7.16072 5.35874 7.47585C 5.35874 8.08735 4.72788 8.42329 3.68405 8.42329C 2.33761 8.42329 1.18698 8.06271 0.263193 7.32719C 0.156015 7.2419 0 7.31096 0 7.44804L 0 9.33947C 0 9.39518 0.0282392 9.44827 0.074559 9.47898C 1.10096 10.1562 2.27917 10.4948 3.64463 10.4948C 5.00458 10.4948 6.00889 10.1984 6.65914 9.60626C 7.30939 8.99541 7.64416 8.28481 7.64416 7.43638C 7.64416 6.47018 7.32877 5.77973 6.54087 5.24708Z"/>
<path id="path5_fill" fill-rule="evenodd" d="M 5.14226 0C 3.64464 0 2.4037 0.472927 1.43806 1.43987C 0.473078 2.38656 0 3.64913 0 5.20761L 0 5.30662C 0 6.86491 0.473078 8.12757 1.43806 9.07426C 2.4037 10.0017 3.68481 10.4747 5.24123 10.4747C 6.68153 10.4747 7.87858 10.1562 8.83257 9.5191C 8.8786 9.48831 8.90591 9.4354 8.90591 9.37997L 8.90591 7.60407C 8.90591 7.46717 8.75111 7.39821 8.64244 7.48145C 7.83375 8.10088 6.73754 8.40388 5.33937 8.40388C 3.65331 8.40388 2.51348 7.47352 2.35877 5.99884C 2.3488 5.90394 2.42774 5.81902 2.52308 5.81902L 9.9489 5.81902C 9.96903 5.56287 9.98907 5.26705 9.98907 4.97133C 9.98907 3.57028 9.53603 2.38656 8.62911 1.43987C 7.74307 0.472927 6.58032 0 5.14226 0ZM 2.58659 4.14306C 2.48948 4.14306 2.40886 4.05627 2.42386 3.96016C 2.50364 3.44831 2.77486 3.01363 3.25101 2.64279C 3.783 2.22949 4.41387 2.01196 5.14223 2.01196C 5.83181 2.01196 6.40322 2.22949 6.87631 2.64279C 7.30046 3.01466 7.53448 3.46632 7.57801 3.96921C 7.58602 4.06234 7.50597 4.14306 7.41249 4.14306L 2.58659 4.14306Z"/>
<path id="path6_fill" fill-rule="evenodd" d="M 8.13665 1.6574C 7.80262 0.690545 6.60045 0 4.96518 0C 3.5658 0 2.3844 0.493926 1.41877 1.49951C 0.473172 2.48577 0 3.70888 0 5.18823C 0 6.66758 0.473172 7.89078 1.41877 8.89711C 2.3844 9.88328 3.5658 10.3766 4.96518 10.3766C 6.60045 10.3766 7.80262 9.68591 8.13665 8.71906L 8.13665 9.99834C 8.13665 10.0875 8.20879 10.1597 8.29779 10.1597L 10.3399 10.1597C 10.4289 10.1597 10.5009 10.0875 10.5009 9.99834L 10.5009 0.37896C 10.5009 0.289842 10.4289 0.217522 10.3399 0.217522L 8.29779 0.217522C 8.20879 0.217522 8.13665 0.289842 8.13665 0.37896L 8.13665 1.6574ZM 7.4269 7.35804C 6.85634 7.93017 6.12715 8.22654 5.28053 8.22654C 4.43251 8.22654 3.74358 7.93017 3.17152 7.35804C 2.62025 6.78601 2.34485 6.056 2.34485 5.18815C 2.34485 4.3204 2.62025 3.59039 3.17152 3.01826C 3.74358 2.44623 4.43251 2.15051 5.28053 2.15051C 6.12715 2.15051 6.85634 2.44623 7.4269 3.01826C 8.01909 3.59039 8.31444 4.3204 8.31444 5.18815C 8.31444 6.056 8.01909 6.78601 7.4269 7.35804Z"/>
<path id="path7_fill" fill-rule="evenodd" d="M 2.34413 1.67606L 2.34413 0.600026C 2.34413 0.378212 2.16286 0.196618 1.94132 0.196618L 0.402897 0.196618C 0.181271 0.196618 0 0.378212 0 0.600026L 0 9.73536C 0 9.95726 0.181271 10.1388 0.402897 10.1388L 1.94132 10.1388C 2.16286 10.1388 2.34413 9.95726 2.34413 9.73536L 2.34413 4.91107C 2.34413 3.27383 3.3887 2.3471 5.02386 2.3471C 5.46283 2.3471 5.52117 2.35335 5.52117 2.35335C 5.74149 2.37659 5.92183 2.21412 5.92183 1.99222L 5.92183 0.451093C 5.92183 0.229186 5.76684 0.026222 5.57737 0L 5.29917 0C 3.90045 0 2.8173 0.630914 2.34413 1.67606Z"/>
<path id="path8_fill" fill-rule="evenodd" d="M 2.34424 1.67606L 2.34424 0.600026C 2.34424 0.378212 2.16297 0.196618 1.94134 0.196618L 0.4029 0.196618C 0.181272 0.196618 0 0.378212 0 0.600026L 0 9.73536C 0 9.95726 0.181272 10.1388 0.4029 10.1388L 1.94134 10.1388C 2.16297 10.1388 2.34424 9.95726 2.34424 9.73536L 2.34424 4.91107C 2.34424 3.27383 3.38798 2.3471 5.024 2.3471C 5.46287 2.3471 5.52122 2.35335 5.52122 2.35335C 5.74163 2.37659 5.92197 2.21412 5.92197 1.99222L 5.92197 0.451093C 5.92197 0.229186 5.76698 0.026222 5.57741 0L 5.29922 0C 3.90057 0 2.81667 0.630914 2.34424 1.67606Z"/>
<path id="path9_fill" fill-rule="evenodd" d="M 8.35401 1.24326C 7.44783 0.414138 5.63725 0.0743732 5.63725 0.0743732C 5.41944 0.0334073 5.05998 0 4.83835 0L 0.4029 0C 0.181366 0 0 0.1815 0 0.403407L 0 13.3467C 0 13.5685 0.181366 13.75 0.4029 13.75L 2.06045 13.75C 2.28208 13.75 2.46335 13.5685 2.46335 13.3467L 2.46335 9.79356C 2.46335 9.57165 2.64462 9.39015 2.86616 9.39015L 5.24134 9.39015C 6.42339 9.39015 7.46787 8.97602 8.35401 8.12749C 9.26019 7.2798 9.71397 5.98746 9.71397 4.70483C 9.71397 3.38337 9.26019 2.07153 8.35401 1.24326ZM 5.12292 7.16159L 2.86612 7.16159C 2.64459 7.16159 2.46332 7.05931 2.46332 6.93436L 2.46332 6.30382L 2.46332 2.633C 2.46332 2.41109 2.64459 2.22949 2.86612 2.22949L 5.12292 2.22949C 6.22621 2.22949 7.27068 3.26569 7.27068 4.70492C 7.27068 6.1254 6.22621 7.16159 5.12292 7.16159Z"/>
<path id="path10_fill" fill-rule="evenodd" d="M 0.664883 0.11351C 0.550994 0.000783933 0.387429 -0.0307571 0.239802 0.0313917C 0.0916148 0.0933539 0 0.231369 0 0.39178L 0 19.5071C 0 19.7227 0.174935 19.8978 0.390225 19.8978L 1.96781 19.8978C 2.1831 19.8978 2.35803 19.7227 2.35803 19.5071L 2.35803 5.10333L 8.4472 11.1178C 8.54096 11.2095 8.6734 11.2348 8.79381 11.185C 8.91478 11.1342 8.98944 11.0215 8.98944 10.8905L 8.98944 8.49959C 8.98944 8.39423 8.94852 8.2955 8.87396 8.22132L 0.664883 0.11351Z"/>
<path id="path11_fill" fill-rule="evenodd" d="M 20.0016 21.2075C 20.0016 31.144 12.2548 39.3984 2.35797 40.0138L 2.35797 2.401C 12.2548 3.01652 20.0016 11.2711 20.0016 21.2075ZM 15.9548 6.16188C 13.9669 4.22892 11.659 2.71103 9.09511 1.6503C 6.44835 0.555233 3.64949 0 0.776535 0L 0.390225 0C 0.174935 0 0 0.175155 0 0.390716L 0 52.5333C 0 52.7488 0.174935 52.924 0.390225 52.924L 1.96781 52.924C 2.1831 52.924 2.35794 52.7488 2.35794 52.5333L 2.35794 42.3813C 7.76376 42.0829 12.8013 39.7415 16.5461 35.7873C 20.3128 31.8097 22.377 26.6072 22.3596 21.1381C 22.3411 15.4785 20.0664 10.1599 15.9548 6.16188Z"/>
<path id="path12_fill" fill-rule="evenodd" d="M 17.4033 19.6402C 13.2193 18.7829 9.40574 16.4831 6.66522 13.163C 3.88761 9.79813 2.35794 5.54216 2.35794 1.18045L 2.35794 0.390623C 2.35794 0.175155 2.183 0 1.96781 0L 0.390224 0C 0.174935 0 0 0.175155 0 0.390623L 0 1.18045C 0 6.14573 1.7569 10.9777 4.94757 14.7857C 8.09844 18.5462 12.4678 21.114 17.2502 22.0164C 17.2742 22.0208 17.2982 22.023 17.3221 22.023C 17.4114 22.023 17.4992 21.9919 17.5701 21.9329C 17.6616 21.8571 17.714 21.7463 17.714 21.6285L 17.714 20.0189C 17.714 19.8339 17.5864 19.6784 17.4033 19.6402Z"/>
<path id="path13_fill" fill-rule="evenodd" d="M 8.32455 0.11351C 8.43844 0.000783933 8.602 -0.0307571 8.74963 0.0313917C 8.89782 0.0933539 8.98943 0.231369 8.98943 0.39178L 8.98943 19.5071C 8.98943 19.7227 8.8145 19.8978 8.59921 19.8978L 7.02163 19.8978C 6.80633 19.8978 6.6314 19.7227 6.6314 19.5071L 6.6314 5.10333L 0.542233 11.1178C 0.448474 11.2095 0.316038 11.2348 0.195625 11.185C 0.0745593 11.1342 0 11.0215 0 10.8905L 0 8.49959C 0 8.39423 0.0408212 8.2955 0.115474 8.22132L 8.32455 0.11351Z"/>
<path id="path14_fill" fill-rule="evenodd" d="M 9.16801 13.4158L 5.72448 8.34856C 5.68152 8.28539 5.63967 8.22847 5.60183 8.18087C 5.50789 8.05163 5.47415 8.0255 5.47415 8.0255C 5.48375 8.01225 5.50006 7.99088 5.52187 7.96307C 5.52578 7.95813 5.52979 7.953 5.53408 7.94768C 5.5379 7.94282 5.54153 7.93825 5.54573 7.93303C 5.55766 7.9181 5.57042 7.90204 5.58431 7.88487C 5.5844 7.88478 5.58459 7.8845 5.58478 7.88431C 5.5981 7.8678 5.61246 7.85007 5.62737 7.83178C 5.62905 7.82972 5.63082 7.82758 5.63249 7.82543C 5.64806 7.8064 5.66409 7.78671 5.68096 7.76627L 8.67964 4.11862C 8.82047 3.94738 8.75439 3.80722 8.53285 3.80722L 6.30166 3.80722C 6.08013 3.80722 5.78366 3.94738 5.64284 4.11862L 2.60016 7.81983C 2.45943 7.99116 2.34415 8.01906 2.34415 7.88179L 2.34415 7.22886L 2.34415 6.81995L 2.34415 6.01322L 2.34415 0.403501C 2.34415 0.181594 2.16287 0 1.94134 0L 0.4029 0C 0.181272 0 0 0.181594 0 0.403501L 0 3.40381L 0 4.21054L 0 6.91373L 0 7.72054L 0 9.83678L 0 10.6122L 0 11.3877L 0 13.3467C 0 13.5686 0.17158 13.7501 0.381278 13.7501C 0.693588 13.7501 0.83842 13.6578 1.01857 13.4386L 1.07748 13.3668C 1.07785 13.3664 1.07822 13.3659 1.07869 13.3654L 1.15837 13.2684C 1.24896 13.1582 1.37487 13.0051 1.52399 12.8235L 1.66342 12.654C 1.69641 12.6138 1.73006 12.5728 1.76445 12.5309L 1.8624 12.4118C 2.04544 12.1891 2.242 11.95 2.43632 11.7136L 2.71368 11.3759C 2.75553 11.3251 2.79682 11.2749 2.83736 11.2254L 2.90353 11.145C 2.96774 11.0669 3.02991 10.9913 3.08909 10.9192L 3.10074 10.905C 3.25293 10.7197 3.38434 10.5599 3.48416 10.4386L 3.66515 10.2182C 3.67363 10.2079 3.6795 10.2008 3.6795 10.2008C 3.73235 10.1365 3.79582 10.0977 3.86124 10.0841C 3.90477 10.0749 3.94922 10.0771 3.99182 10.09C 4.05566 10.1096 4.1154 10.1541 4.16218 10.2228L 6.33205 13.4166C 6.45675 13.6 6.73998 13.7501 6.96161 13.7501L 8.99177 13.7501C 9.21339 13.7501 9.39476 13.7499 9.39476 13.7497C 9.39476 13.7494 9.29271 13.5993 9.16801 13.4158Z"/>
</defs>
</svg>
