<svg version="1" xmlns="http://www.w3.org/2000/svg" width="682.667" height="682.667" viewBox="0 0 512.000000 512.000000"><path d="M245 8.9c-1.4 2.7-1.4 490.5 0 493.2.9 1.7 2.2 1.9 10.5 1.9s9.6-.2 10.5-1.9c.6-1.3 1-18.7 1-49.5 0-40.9.2-47.6 1.4-47.6 5.2 0 26.2-3.5 35.7-5.9 48.4-12.2 89.2-41 117.1-82.5 34.2-51 42.9-114.3 23.7-172.1-22.7-68.3-83.4-120.6-155.4-133.9C279 8.6 262.6 7 253.4 7c-6.2 0-7.5.3-8.4 1.9zM286.3 32c23.7 4 51.8 15.7 71.7 29.7 12.2 8.7 33.6 30.1 42.3 42.3 8.2 11.5 19.5 34.1 23.7 47.1 14.1 43.9 11.1 89.7-8.6 130.9-6.5 13.6-11.4 21.6-20.2 32.9-25.9 33.3-63.4 56.4-104.6 64.5-6.7 1.3-14.7 2.7-17.8 3l-5.8.6V30h3.9c2.1 0 9.1.9 15.4 2z"/><path d="M327.9 151.2L288 190.5l.2 13c.3 12.6.4 13 2.5 13 1.5 0 11.2-8.8 31.2-28.3l29.1-28.4v69c0 62 .2 69 1.6 69.6 2.9 1.1 17.9.7 19.2-.6.9-.9 1.2-22.8 1.2-92.3 0-93.7 0-93.5-3.8-93.5-.7 0-19.3 17.7-41.3 39.2zM139.2 113.2c-1.7 1.7-1.7 182.9 0 184.6 1.3 1.3 16.3 1.7 19.2.6 1.4-.6 1.6-7.6 1.6-69.6v-69l29.1 28.4c19.9 19.3 29.8 28.3 31.2 28.3 2.1 0 2.2-.4 2.5-12.9l.3-12.8-9.3-9.3c-40.8-40.6-70.7-69.5-72-69.5-.8 0-1.9.5-2.6 1.2z"/><path d="M57 196.5c-1 1.2-1.2 5.1-.7 16.3 1.9 46.5 18.4 88.6 48.7 123.8 26.1 30.4 65.7 54.3 105.2 63.4 12.6 2.9 12.8 2.7 12.8-8.9 0-4.7-.4-9.2-.9-9.9-.4-.7-3.7-2-7.2-2.8-49.7-11.4-94.2-46.3-117.2-91.9-12.3-24.3-18.1-47-19.3-75-.4-7.7-1.1-14.6-1.7-15.3-1.5-1.9-18.1-1.7-19.7.3z"/></svg>