<svg id="Layer_1" data-name="Layer 1" xmlns="http://www.w3.org/2000/svg" viewBox="0 0 1491.58571 1092.50805">
  <title>Melrose_Park_Black</title>
  <g>
    <path d="M228.52885,875.24128a3.44388,3.44388,0,0,1-5.506.00012l-69.75245-84.43834c-1.5142-1.833-2.75309-1.38747-2.75309.99007V935.34907a4.33551,4.33551,0,0,0,4.3228,4.32281h17.36125a4.33551,4.33551,0,0,0,4.3228-4.32281V860.49018c0-2.37754,1.23379-2.81887,2.74175-.98073l43.76829,53.35192a3.41566,3.41566,0,0,0,5.48348,0l43.7683-53.35192c1.508-1.83814,2.74174-1.39681,2.74174.98073v74.85889a4.33551,4.33551,0,0,0,4.32281,4.32281h17.36124a4.33551,4.33551,0,0,0,4.3228-4.32281V791.78515c0-2.37754-1.23883-2.823-2.75295-.99Z"/>
    <path d="M342.51085,874.98522a1.74776,1.74776,0,0,1-1.746-1.95943c.85682-5.4858,3.76563-10.14382,8.87533-14.11725a32.21581,32.21581,0,0,1,20.29143-6.76114,27.2684,27.2684,0,0,1,18.60711,6.76114,20.99054,20.99054,0,0,1,7.52758,14.21316,1.77125,1.77125,0,0,1-1.775,1.86352Zm27.4208-44.39845c-16.0687,0-29.38345,5.06887-39.74467,15.4301-10.35326,10.14571-15.4301,23.676-15.4301,40.37528v1.06167c0,16.6993,5.07684,30.22958,15.4301,40.37528,10.36122,9.93816,24.107,15.007,40.79835,15.007q23.19309,0,38.54164-10.24093a1.79444,1.79444,0,0,0,.788-1.49065l0-19.03049a1.725,1.725,0,0,0-2.827-1.31475c-8.67731,6.63864-20.4389,9.88557-35.441,9.88557-18.09014,0-30.32094-9.96972-31.98109-25.77259a1.78029,1.78029,0,0,1,1.76392-1.92654h79.67647c.21553-2.746.43106-5.915.43106-9.084,0-15.015-4.86129-27.69913-14.59193-37.84484-9.50711-10.36123-21.98369-15.4301-37.41377-15.4301"/>
    <rect x="435.71062" y="792.31967" width="25.37625" height="147.34822" rx="4.32281" ry="4.32281"/>
    <path d="M625.0134,910.28685A31.87963,31.87963,0,0,1,601.553,919.794c-9.51511,0-17.33791-3.169-23.676-9.50711a33.54585,33.54585,0,0,1-9.29954-23.8915c0-9.51509,3.169-17.3379,9.29954-23.676,6.3381-6.55361,14.1609-9.72264,23.676-9.72264,9.29954,0,17.12235,3.169,23.46044,9.72264,6.346,6.33807,9.51507,14.16088,9.51507,23.676a32.83791,32.83791,0,0,1-9.51507,23.8915M601.553,829.95137c-16.27625,0-30.02205,5.49194-41.22144,16.28422-11.20737,10.77633-16.91483,24.30659-16.91483,40.15976s5.70746,29.38343,16.91483,40.15976c11.19939,10.7843,24.94519,16.28421,41.22144,16.28421,16.28419,0,30.014-5.49991,41.2214-16.28421,11.19939-10.77633,16.91483-24.3066,16.91483-40.15976s-5.71544-29.38343-16.91483-40.15976c-11.20737-10.79228-24.93721-16.28422-41.2214-16.28422"/>
    <path d="M737.64454,886.183a83.56923,83.56923,0,0,0-10.9919-6.55359c-3.169-1.47676-7.82278-3.59211-13.95329-5.915-3.16906-1.27719-6.76114-2.53842-9.29957-3.38456-2.33088-1.06167-2.746-1.48474-4.43825-2.3229-2.746-1.69228-4.23075-3.80763-4.23075-6.76912,0-6.13053,5.07685-9.092,15.43812-9.092a51.28379,51.28379,0,0,1,25.12008,6.5223,1.697,1.697,0,0,0,2.563-1.45467V838.1426a1.7888,1.7888,0,0,0-.84922-1.53118c-7.46253-4.50209-16.70165-6.65686-27.8956-6.65686-10.99184,0-20.08386,2.746-27.48362,8.23791-7.18423,5.49991-10.78429,13.1072-10.78429,22.62228,0,13.31475,7.61529,23.46046,22.62229,30.022,4.86133,1.89184,13.7458,5.49193,17.96852,7.39176a48.63822,48.63822,0,0,1,6.76114,3.177c4.86931,2.53044,6.76912,5.28439,6.76912,8.661,0,6.5536-6.76912,10.15369-17.96851,10.15369-14.44763,0-26.79362-3.86515-36.70565-11.7465a1.71177,1.71177,0,0,0-2.82346,1.29532v20.26953a1.79859,1.79859,0,0,0,.79978,1.49342c11.01272,7.2583,23.65519,10.88745,38.30625,10.88745q21.88794,0,32.34494-9.52307c6.97668-6.54562,10.56876-14.16089,10.56876-23.25291,0-10.35325-3.38453-17.753-11.83794-23.46045"/>
    <path d="M785.72768,874.98522a1.74776,1.74776,0,0,1-1.74595-1.95943c.85682-5.4858,3.76563-10.14382,8.87532-14.11725a32.216,32.216,0,0,1,20.29148-6.76114,27.26824,27.26824,0,0,1,18.60706,6.76114,20.9905,20.9905,0,0,1,7.52761,14.21315,1.77124,1.77124,0,0,1-1.775,1.86353Zm27.42085-44.39845c-16.0687,0-29.3835,5.06887-39.7447,15.4301-10.35323,10.14571-15.43009,23.676-15.43009,40.37528v1.06167c0,16.6993,5.07686,30.22958,15.43009,40.37528,10.3612,9.93816,24.107,15.007,40.80633,15.007q23.18123,0,38.534-10.24069a1.79466,1.79466,0,0,0,.78758-1.4906V912.07406a1.7249,1.7249,0,0,0-2.82684-1.3147c-8.67737,6.63858-20.439,9.88552-35.44107,9.88552-18.09015,0-30.321-9.96972-31.98111-25.77259a1.78029,1.78029,0,0,1,1.76392-1.92654h79.67651c.21553-2.746.43106-5.915.43106-9.084,0-15.015-4.86133-27.69913-14.592-37.84484-9.50713-10.36123-21.98368-15.4301-37.41376-15.4301"/>
    <path d="M1113.54866,909.64586a31.54166,31.54166,0,0,1-23.02942,9.30755,30.63749,30.63749,0,0,1-22.63026-9.30755c-5.915-6.13053-8.86852-13.95334-8.86852-23.25291s2.95353-17.12237,8.86852-23.2529a30.63062,30.63062,0,0,1,22.63026-9.29956,31.53485,31.53485,0,0,1,23.02942,9.29956c6.354,6.13053,9.52308,13.95334,9.52308,23.2529s-3.16906,17.12238-9.52308,23.25291m7.61528-61.08977c-3.58416-10.36123-16.4838-17.761-34.02923-17.761-15.015,0-27.69117,5.29237-38.05243,16.06869-10.14568,10.56878-15.22254,23.676-15.22254,39.52914s5.07686,28.96037,15.22254,39.74467q15.54189,15.85317,38.05243,15.85317c17.54543,0,30.44507-7.39974,34.02923-17.761v13.70895a1.72913,1.72913,0,0,0,1.72913,1.72913h21.91a1.72912,1.72912,0,0,0,1.72912-1.72913V834.85512a1.72912,1.72912,0,0,0-1.72912-1.72912h-21.91a1.72912,1.72912,0,0,0-1.72913,1.72912Z"/>
    <path d="M1189.6424,848.97517V837.44482a4.33551,4.33551,0,0,0-4.3228-4.32281h-16.50713a4.33552,4.33552,0,0,0-4.32281,4.32281v97.89627a4.33552,4.33552,0,0,0,4.32281,4.32281h16.50713a4.33551,4.33551,0,0,0,4.3228-4.32281V883.643c0-17.54544,11.20731-27.47562,28.75274-27.47562,4.70962,0,5.33582.066,5.33582.066a3.81834,3.81834,0,0,0,4.299-3.86991v-16.5151c0-2.37754-1.66314-4.5527-3.69586-4.83369h-2.98551c-15.00694,0-26.62947,6.76115-31.70621,17.96054"/>
    <path d="M504.19712,848.97517V837.44482a4.33551,4.33551,0,0,0-4.3228-4.32281H483.36719a4.33551,4.33551,0,0,0-4.32281,4.32281v97.89627a4.33551,4.33551,0,0,0,4.32281,4.32281h16.50713a4.33551,4.33551,0,0,0,4.3228-4.32281V883.643c0-17.54544,11.19939-27.47562,28.7528-27.47562,4.70965,0,5.33582.066,5.33582.066a3.81834,3.81834,0,0,0,4.299-3.86991v-16.5151c0-2.37754-1.66315-4.5527-3.69589-4.83369h-2.98545c-15.007,0-26.63745,6.76115-31.7063,17.96054"/>
    <path d="M981.93982,869.06224H957.72529c-2.37754,0-4.3228-1.09559-4.3228-2.43465V820.53318a4.33551,4.33551,0,0,1,4.3228-4.32281h24.21453c11.838,0,23.04537,11.1036,23.04537,26.52572,0,15.22254-11.20737,26.32615-23.04537,26.32615m34.66784-63.42065c-9.72265-8.88447-29.14986-12.52624-29.14986-12.52624a56.23073,56.23073,0,0,0-8.5716-.79647H931.29539a4.33551,4.33551,0,0,0-4.3228,4.3228V935.3443a4.33551,4.33551,0,0,0,4.3228,4.3228h17.78429a4.33552,4.33552,0,0,0,4.32281-4.3228V897.26857a4.33551,4.33551,0,0,1,4.3228-4.32281H983.209a46.79561,46.79561,0,0,0,33.39866-13.53028c9.72259-9.084,14.5919-22.9336,14.5919-36.67939,0-14.16089-4.86931-28.218-14.5919-37.0945"/>
    <g>
      <path d="M621.02513,271.36972a4.19194,4.19194,0,0,0-7.13345,2.982V479.19588a4.18978,4.18978,0,0,0,4.18651,4.18652h16.92734a4.18979,4.18979,0,0,0,4.18652-4.18652V324.84139l65.33542,64.45251a3.41817,3.41817,0,0,0,5.81785-2.43532v-25.622a4.16941,4.16941,0,0,0-1.23958-2.982Z"/>
      <path d="M906.08262,216.293a233.63172,233.63172,0,0,0-162.85909-66.03122h-4.14559a4.18978,4.18978,0,0,0-4.18652,4.18652V713.21994a4.18979,4.18979,0,0,0,4.18652,4.18652h16.92734a4.18978,4.18978,0,0,0,4.18651-4.18652v-108.791A227.54143,227.54143,0,0,0,974.8035,376.78112C974.6047,316.13215,950.19893,259.13761,906.08262,216.293Zm43.42051,161.23359c0,106.48142-83.12228,194.93624-189.31134,201.53176V175.99194C866.38085,182.58746,949.50313,271.04521,949.50313,377.52662Z"/>
      <path d="M707.01248,575.34548A202.25362,202.25362,0,0,1,545.58009,377.52662V369.063a4.18979,4.18979,0,0,0-4.18652-4.18652H524.46623a4.18979,4.18979,0,0,0-4.18652,4.18652v8.46366a227.59059,227.59059,0,0,0,185.08974,223.283,4.306,4.306,0,0,0,.77181.07017,4.15985,4.15985,0,0,0,2.66043-.96477,4.22169,4.22169,0,0,0,1.54363-3.26268V579.40336A4.12427,4.12427,0,0,0,707.01248,575.34548Z"/>
    </g>
  </g>
  <path d="M874.05809,271.36972a4.19194,4.19194,0,0,1,7.13345,2.982V479.19588a4.18979,4.18979,0,0,1-4.18652,4.18652H860.07769a4.18978,4.18978,0,0,1-4.18652-4.18652V324.84139L790.55575,389.2939a3.41817,3.41817,0,0,1-5.81786-2.43532v-25.622a4.16941,4.16941,0,0,1,1.23958-2.982Z"/>
  <path d="M1338.54989,936.09l-36.94849-54.30115c-.46093-.67755-.91076-1.28711-1.31543-1.79748a9.97193,9.97193,0,0,0-1.37011-1.66522c.102-.14246.27685-.37067.51135-.66858.04211-.05335.08557-.10816.131-.16541.04126-.052.08032-.10162.12476-.15716q.1919-.24042.41406-.51569l.00513-.00623c.14331-.17742.29687-.36657.45666-.56243l.0564-.06916q.2492-.30524.51928-.6336l32.17469-39.08832c1.511-1.83563.802-3.33753-1.57544-3.33753h-23.939a10.41727,10.41727,0,0,0-7.06982,3.33759l-32.646,39.663c-1.51086,1.8357-2.74707,2.13428-2.74707.66352V796.64643a4.33557,4.33557,0,0,0-4.32275-4.32282H1244.502a4.3355,4.3355,0,0,0-4.32276,4.32282V935.34906a4.224,4.224,0,0,0,4.091,4.32282c3.35131,0,4.9049-.98914,6.83776-3.33795l.6327-.76892.01257-.01532.85522-1.03931c.97168-1.18079,2.32312-2.82306,3.92334-4.7677l1.49488-1.81671,1.08545-1.31909,1.05078-1.277c1.96338-2.38611,4.07177-4.94818,6.15661-7.48175l2.97718-3.61792q.67363-.81858,1.32714-1.613l.70948-.86206c.68872-.837,1.35571-1.64764,1.99109-2.41967l.12585-.153c1.63257-1.98376,3.04272-3.69757,4.11279-4.99792l1.94275-2.361.15381-.18689a3.46925,3.46925,0,0,1,1.94971-1.25036,2.80068,2.80068,0,0,1,1.40075.0639,3.46969,3.46969,0,0,1,1.82789,1.42267l23.28308,34.22479a9.16924,9.16924,0,0,0,6.75427,3.57416h21.78345l4.32287-.004S1339.88729,938.05561,1338.54989,936.09Z"/>
</svg>
