<?xml version="1.0" encoding="UTF-8"?>
<svg width="32px" height="32px" viewBox="0 0 32 32" version="1.1" xmlns="http://www.w3.org/2000/svg" xmlns:xlink="http://www.w3.org/1999/xlink">
    <!-- Generator: Sketch 49.1 (51147) - http://www.bohemiancoding.com/sketch -->
    <title>Page 1</title>
    <desc>Created with Sketch.</desc>
    <defs></defs>
    <g id="Symbols" stroke="none" stroke-width="1" fill="none" fill-rule="evenodd">
        <g id="Facebook/white" transform="translate(1.000000, 1.000000)">
            <g id="Page-1">
                <path d="M15,0 C6.7155,0 0,6.7155 0,15 C0,23.2845 6.7155,30 15,30 C23.2845,30 30,23.2845 30,15 C30,6.7155 23.2845,0 15,0" id="Fill-1" stroke="#FFFFFF"></path>
                <path d="M19,7.33033541 C18.0739635,7 15.9187396,7 15.9187396,7 C14.6013267,7 13.8225539,7.52951854 13.2626866,8.28136474 C12.7247098,9.00796237 12.7028192,10.1588762 12.7028192,10.907917 L12.7028192,11.0390693 L12.7028192,11.8329964 L12.7028192,12.631833 L11,12.631833 L11,15.1707166 L12.7028192,15.1707166 L12.7028192,24 L15.9187396,24 L15.9187396,15.1707166 L18.4613599,15.1707166 L18.6557214,12.631833 L15.9187396,12.631833 L15.9187396,11.8329964 L15.9187396,10.907917 L15.9187396,10.6463138 C15.9187396,9.95688766 16.5223881,9.71702628 17.1917081,9.71702628 C17.1917081,9.71702628 17.855058,9.71702628 18.571476,9.93654854 L19,7.33033541 Z" id="Fill-3" fill="#FFFFFF"></path>
            </g>
        </g>
    </g>
</svg>