<?xml version="1.0" encoding="UTF-8"?>
<svg width="60px" height="75px" viewBox="0 0 60 75" version="1.1" xmlns="http://www.w3.org/2000/svg" xmlns:xlink="http://www.w3.org/1999/xlink">
    <!-- Generator: Sketch 49.1 (51147) - http://www.bohemiancoding.com/sketch -->
    <title>Page 1 Copy</title>
    <desc>Created with Sketch.</desc>
    <defs>
        <polygon id="path-1" points="0.3302 0.134 32 0.134 32 75 0.3302 75"></polygon>
    </defs>
    <g id="Symbols" stroke="none" stroke-width="1" fill="none" fill-rule="evenodd">
        <g id="MP-Icon-Marker" transform="translate(-6.000000, -9.000000)">
            <g id="Page-1-Copy" transform="translate(6.000000, 8.000000)">
                <path d="M13.2993,16.9869 C13.1383,16.8279 12.9063,16.7829 12.6973,16.8709 C12.4873,16.9579 12.3583,17.1539 12.3583,17.3809 L12.3583,44.4209 C12.3583,44.7259 12.6053,44.9739 12.9103,44.9739 L15.1443,44.9739 C15.4493,44.9739 15.6973,44.7259 15.6973,44.4209 L15.6973,24.0459 L24.3223,32.5539 C24.4543,32.6829 24.6423,32.7189 24.8133,32.6489 C24.9843,32.5769 25.0903,32.4169 25.0903,32.2319 L25.0903,28.8499 C25.0903,28.7009 25.0323,28.5609 24.9263,28.4559 L13.2993,16.9869 Z" id="Fill-1" fill="#FEFEFE"></path>
                <path d="M35.1626,32.6721 C35.3326,32.7421 35.5206,32.7071 35.6536,32.5771 L44.3026,24.0451 L44.3026,44.4211 C44.3026,44.7261 44.5506,44.9741 44.8556,44.9741 L47.0896,44.9741 C47.3946,44.9741 47.6426,44.7261 47.6426,44.4211 L47.6426,17.3801 C47.6426,17.1541 47.5136,16.9581 47.3036,16.8711 C47.0956,16.7821 46.8636,16.8271 46.7016,16.9871 L35.0496,28.4811 C34.9436,28.5851 34.8856,28.7251 34.8856,28.8741 L34.8856,32.2561 C34.8856,32.4411 34.9916,32.6001 35.1626,32.6721" id="Fill-3" fill="#FEFEFE"></path>
                <g id="Group-7" transform="translate(28.000000, 0.866300)">
                    <mask id="mask-2" fill="white">
                        <use xlink:href="#path-1"></use>
                    </mask>
                    <g id="Clip-6"></g>
                    <path d="M22.9282,8.8502 C20.1132,6.1162 16.8442,3.9682 13.2122,2.4682 C9.4632,0.9192 5.4992,0.1332 1.4302,0.1332 L0.8832,0.1332 C0.5782,0.1332 0.3302,0.3812 0.3302,0.6862 L0.3302,74.4472 C0.3302,74.7522 0.5782,75.0002 0.8832,75.0002 L3.1172,75.0002 C3.4222,75.0002 3.6702,74.7522 3.6702,74.4472 L3.6702,60.0862 C11.3262,59.6642 18.4622,56.3522 23.7662,50.7582 C29.1012,45.1322 32.0252,37.7722 32.0002,30.0352 C31.9732,22.0292 28.7522,14.5062 22.9282,8.8502 M28.6602,30.1342 C28.6602,44.1902 17.6872,55.8662 3.6702,56.7372 L3.6702,3.5302 C17.6872,4.4012 28.6602,16.0782 28.6602,30.1342" id="Fill-5" fill="#FEFEFE" mask="url(#mask-2)"></path>
                </g>
                <path d="M24.6504,57.1135 C18.7234,55.9005 13.3224,52.6475 9.4414,47.9505 C5.5064,43.1905 3.3404,37.1705 3.3404,31.0005 L3.3404,29.8835 C3.3404,29.5785 3.0924,29.3305 2.7874,29.3305 L0.5534,29.3305 C0.2484,29.3305 0.0004,29.5785 0.0004,29.8835 L0.0004,31.0005 C0.0004,38.0245 2.4884,44.8595 7.0074,50.2465 C11.4704,55.5655 17.6594,59.1985 24.4334,60.4745 C24.4674,60.4815 24.5014,60.4845 24.5354,60.4845 C24.6614,60.4845 24.7864,60.4405 24.8864,60.3565 C25.0164,60.2495 25.0894,60.0925 25.0894,59.9265 L25.0894,57.6495 C25.0894,57.3875 24.9094,57.1675 24.6504,57.1135" id="Fill-8" fill="#FEFEFE"></path>
            </g>
        </g>
    </g>
</svg>