
<svg id="logo" viewBox="0 0 83 19" version="1.1" xmlns="http://www.w3.org/2000/svg" xmlns:xlink="http://www.w3.org/1999/xlink">
<title>Page 1</title>
<desc>Created using Figma</desc>
<g id="Canvas" transform="translate(-690 -1943)">
<g id="Page 1">
<mask id="mask0_outline" mask-type="alpha">
<g id="Clip 2">
<use xlink:href="#path0_fill" transform="translate(690 1943)" fill="#FFFFFF"/>
</g>
</mask>
<g id="Fill 1" mask="url(#mask0_outline)">
<use xlink:href="#path1_fill" transform="translate(690 1943)" fill="#0E2C51"/>
</g>
</g>
</g>
<defs>
<path id="path0_fill" fill-rule="evenodd" d="M 0 0L 83 0L 83 19L 0 19L 0 0Z"/>
<path id="path1_fill" fill-rule="evenodd" d="M 82.5579 14.2839L 82.5579 15.5737L 82.4183 15.5737C 82.2839 15.2227 82.077 14.9438 81.7963 14.7366C 81.515 14.5299 81.204 14.4263 80.864 14.4263C 80.4055 14.4263 80.0504 14.6249 79.8 15.0214C 79.549 15.4173 79.4238 15.9763 79.4238 16.6977C 79.4238 17.3631 79.5483 17.8692 79.798 18.2176C 80.0471 18.5653 80.4081 18.7392 80.8792 18.7392C 81.3331 18.7392 81.5598 18.5767 81.5598 18.2517L 81.5598 17.569C 81.5598 17.2534 81.405 17.0662 81.0946 17.0047L 81.0946 16.8703L 83 16.8703L 83 17.0047C 82.8333 17.0508 82.7187 17.1244 82.6541 17.2253C 82.5896 17.327 82.5579 17.4828 82.5579 17.6961L 82.5579 18.6703C 82.1046 18.8903 81.5183 18.9999 80.8001 18.9999C 80.3205 18.9999 79.8962 18.899 79.5253 18.697C 79.155 18.4951 78.8651 18.2076 78.6543 17.8358C 78.4434 17.4634 78.3387 17.0568 78.3387 16.6168C 78.3387 15.9141 78.5719 15.329 79.0377 14.8629C 79.5042 14.3982 80.0912 14.1655 80.8001 14.1655C 81.0795 14.1655 81.3845 14.225 81.7153 14.3461C 81.8885 14.4089 82.0144 14.441 82.0928 14.441C 82.2087 14.441 82.3175 14.3889 82.4183 14.2839L 82.5579 14.2839ZM 71.4432 14.4183L 71.4432 14.2839L 72.971 14.2839L 72.971 14.4183C 72.5323 14.4437 72.3135 14.6945 72.3135 15.1706L 72.3135 18.9351L 72.1653 18.9351L 68.9066 15.2087L 68.9066 18.0184C 68.9066 18.2638 68.9508 18.4357 69.0384 18.5339C 69.1273 18.6322 69.3052 18.7031 69.5721 18.7466L 69.5721 18.881L 68.0106 18.881L 68.0106 18.7466C 68.2228 18.7138 68.3743 18.6403 68.4665 18.5259C 68.5581 18.4129 68.6042 18.2351 68.6042 17.995L 68.6042 14.875C 68.4283 14.6905 68.3058 14.5735 68.2399 14.522C 68.1727 14.4712 68.0936 14.4364 68.0034 14.4183L 68.0034 14.2839L 69.3639 14.2839L 72.0111 17.3651L 72.0111 15.2976C 72.0111 14.9934 71.9716 14.7828 71.8925 14.6657C 71.8135 14.5494 71.6639 14.4671 71.4432 14.4183ZM 62.6206 14.2839L 62.6206 14.4183C 62.3979 14.4692 62.2477 14.538 62.1699 14.6243C 62.0922 14.7099 62.054 14.8864 62.054 15.1552L 62.054 18.1027C 62.054 18.3093 62.0902 18.4537 62.1627 18.5353C 62.2352 18.6175 62.3874 18.6884 62.6206 18.7466L 62.6206 18.881L 60.4813 18.881L 60.4813 18.7466C 60.6421 18.7058 60.7626 18.6617 60.8417 18.6128C 60.9214 18.5634 60.9768 18.5032 61.0084 18.4283C 61.04 18.3541 61.0552 18.2123 61.0552 18.0024L 61.0552 15.0636C 61.0552 14.8556 61.0183 14.7105 60.9438 14.6276C 60.87 14.5447 60.7152 14.4745 60.4813 14.4183L 60.4813 14.2839L 62.6206 14.2839ZM 54.0767 18.7466L 54.0767 18.881L 51.9526 18.881L 51.9526 18.7466C 52.1753 18.7031 52.3255 18.6369 52.4033 18.5473C 52.481 18.4577 52.5199 18.2939 52.5199 18.0558L 52.5199 14.5454L 52.0672 14.5454C 51.7932 14.5454 51.5764 14.6049 51.4163 14.7259C 51.2569 14.8463 51.1383 15.0368 51.0605 15.2976L 50.9281 15.2976L 50.9736 14.1876L 51.1132 14.1876C 51.2114 14.2518 51.3603 14.2839 51.5593 14.2839L 54.4819 14.2839C 54.6862 14.2839 54.8344 14.2518 54.9279 14.1876L 55.0676 14.1876L 55.1137 15.2976L 54.9813 15.2976C 54.9029 15.0368 54.7843 14.8463 54.6249 14.7259C 54.4648 14.6049 54.2487 14.5454 53.9739 14.5454L 53.522 14.5454L 53.522 18.0639C 53.522 18.2885 53.5608 18.449 53.6386 18.5453C 53.717 18.6416 53.8633 18.7084 54.0767 18.7466ZM 45.1974 15.8687L 45.3456 15.8687L 45.3456 17.2922L 45.1974 17.2922C 45.1447 16.9011 44.9352 16.7052 44.5702 16.7052L 43.7723 16.7052L 43.7723 18.0559C 43.7723 18.2631 43.8191 18.4089 43.9113 18.4932C 44.0049 18.5781 44.165 18.6195 44.391 18.6195L 44.6552 18.6195C 45.0979 18.6195 45.4148 18.3347 45.6059 17.765L 45.7383 17.765L 45.6553 18.881L 42.2069 18.881L 42.2069 18.7466C 42.4349 18.6991 42.5864 18.6289 42.6609 18.5373C 42.7366 18.447 42.7742 18.2712 42.7742 18.0097L 42.7742 15.0556C 42.7742 14.8409 42.7353 14.6911 42.6576 14.6082C 42.5798 14.5253 42.4296 14.4625 42.2069 14.4183L 42.2069 14.2839L 45.6026 14.2839L 45.6026 15.305L 45.4702 15.305C 45.3937 15.0054 45.3002 14.8042 45.1882 14.7005C 45.0762 14.5969 44.8963 14.5454 44.6493 14.5454L 43.7723 14.5454L 43.7723 16.4444L 44.5702 16.4444C 44.7514 16.4444 44.8904 16.4009 44.9859 16.3133C 45.0821 16.2251 45.1526 16.078 45.1974 15.8687ZM 35.3273 15.1853L 34.4846 15.993L 36.2971 18.2578C 36.4487 18.4477 36.5666 18.5727 36.6522 18.6349C 36.7379 18.6971 36.8433 18.7339 36.9685 18.7466L 36.9685 18.881L 34.9004 18.881L 34.9004 18.7466C 35.1092 18.6991 35.214 18.6249 35.214 18.5286C 35.214 18.4744 35.1824 18.4089 35.1198 18.3327L 33.7019 16.548L 33.7019 18.0485C 33.7019 18.2712 33.7329 18.4236 33.7948 18.5065C 33.8574 18.5901 34.0155 18.6704 34.2692 18.7466L 34.2692 18.881L 32.1293 18.881L 32.1293 18.7466C 32.3684 18.6904 32.5246 18.6189 32.5957 18.5319C 32.6682 18.4457 32.7038 18.2939 32.7038 18.0793L 32.7038 15.0636C 32.7038 14.8536 32.6662 14.7079 32.5918 14.6256C 32.518 14.544 32.3632 14.4745 32.1293 14.4183L 32.1293 14.2839L 34.2692 14.2839L 34.2692 14.4183C 34.0485 14.4692 33.8983 14.5394 33.8199 14.6276C 33.7408 14.7159 33.7019 14.8416 33.7019 15.0054L 33.7019 16.3675L 35.0967 15.0054C 35.1903 14.9158 35.237 14.8276 35.237 14.7413C 35.237 14.5929 35.0967 14.4852 34.8174 14.4183L 34.8174 14.2839L 36.6997 14.2839L 36.6997 14.4183C 36.4882 14.4183 36.2793 14.4752 36.0738 14.5888C 35.8689 14.7032 35.6198 14.9018 35.3273 15.1853ZM 24.009 14.5454L 23.6993 14.5454L 23.6993 16.4297C 23.7771 16.4344 23.8502 16.4371 23.9187 16.4371C 24.2791 16.4371 24.5413 16.3582 24.7067 16.201C 24.8714 16.0439 24.9538 15.7951 24.9538 15.4541C 24.9538 14.8483 24.6395 14.5454 24.009 14.5454ZM 22.126 18.881L 22.126 18.7466C 22.5094 18.7158 22.7011 18.5206 22.7011 18.1602L 22.7011 15.0482C 22.7011 14.8356 22.661 14.6885 22.5819 14.6062C 22.5028 14.5247 22.3506 14.4625 22.126 14.4183L 22.126 14.2839L 24.2811 14.2839C 24.8457 14.2839 25.2799 14.3849 25.5836 14.5875C 25.8873 14.7894 26.0395 15.0736 26.0395 15.4394C 26.0395 15.7022 25.9605 15.9288 25.8023 16.1187C 25.6449 16.308 25.4176 16.4457 25.1231 16.5326L 25.1231 16.548C 25.2291 16.5734 25.3438 16.663 25.467 16.8148C 25.5908 16.9679 25.7701 17.2662 26.0046 17.7115C 26.2345 18.1428 26.4019 18.4169 26.506 18.5319C 26.6107 18.6463 26.7544 18.7192 26.9355 18.7466L 26.9355 18.881L 25.6291 18.881C 25.4578 18.6757 25.2384 18.3033 24.9702 17.7643C 24.7857 17.3932 24.6487 17.1465 24.5591 17.0241C 24.4695 16.9011 24.3766 16.8148 24.2797 16.7647C 24.1822 16.7152 23.9892 16.6904 23.6993 16.6904L 23.6993 18.1027C 23.6993 18.3046 23.7428 18.4544 23.8311 18.5533C 23.9194 18.651 24.0696 18.7158 24.2811 18.7466L 24.2811 18.881L 22.126 18.881ZM 13.364 17.0047L 14.7133 17.0047L 14.0242 15.1398L 13.364 17.0047ZM 14.6758 18.8809L 14.6758 18.7465C 14.8615 18.7111 14.9933 18.667 15.0697 18.6148C 15.1462 18.5613 15.1844 18.4884 15.1844 18.3935C 15.1844 18.3172 15.1547 18.1989 15.0974 18.0404L 14.8352 17.3343L 13.2184 17.3343L 12.995 17.9448C 12.9384 18.1006 12.9094 18.2263 12.9094 18.3206C 12.9094 18.5232 13.0609 18.6649 13.364 18.7465L 13.364 18.8809L 11.9007 18.8809L 11.9007 18.7465C 12.0766 18.7158 12.2308 18.6228 12.3625 18.4664C 12.493 18.3106 12.6234 18.0558 12.7513 17.7027L 14.0538 14.1655L 14.6731 14.1655L 16.0508 17.8445C 16.1766 18.1721 16.3005 18.4008 16.4217 18.5299C 16.5429 18.6589 16.7004 18.7311 16.8947 18.7465L 16.8947 18.8809L 14.6758 18.8809ZM 6.14768 14.2839L 6.14768 14.4183C 5.96321 14.4518 5.83012 14.5113 5.74711 14.5975C 5.66409 14.6831 5.62258 14.8048 5.62258 14.9633C 5.62127 15.0221 5.62522 15.089 5.63576 15.1626L 6.04556 18.0331C 6.07587 18.2431 6.14571 18.4036 6.25508 18.5166C 6.3651 18.6296 6.52586 18.7058 6.73735 18.7466L 6.73735 18.881L 4.49925 18.881L 4.49925 18.7466C 4.68637 18.6991 4.81945 18.6229 4.89983 18.5206C 4.98087 18.4183 5.02106 18.2712 5.02106 18.0793C 5.02106 17.9843 5.01249 17.8693 4.99471 17.7336L 4.62443 15.1091L 3.13347 18.881L 2.97205 18.881L 1.50085 15.1091L 1.10818 17.8105C 1.09302 17.9181 1.08512 18.0151 1.08512 18.1027C 1.08512 18.5039 1.27025 18.7192 1.64118 18.7466L 1.64118 18.881L 0 18.881L 0 18.7466C 0.23982 18.7365 0.420343 18.6556 0.540912 18.5039C 0.661481 18.3507 0.749766 18.0946 0.805109 17.7336L 1.25181 14.7326C 1.06008 14.5307 0.840686 14.4264 0.59362 14.4183L 0.59362 14.2839L 2.23283 14.2839L 3.41414 17.315L 4.61192 14.2839L 6.14768 14.2839ZM 79.8026 0.523588L 79.8026 0.246094L 82.9611 0.246094L 82.9611 0.523588C 82.0546 0.576412 81.6013 1.09462 81.6013 2.07889L 81.6013 9.86344L 81.2949 9.86344L 74.5562 2.1578L 74.5562 7.96846C 74.5562 8.4753 74.6478 8.8317 74.8303 9.0343C 75.0128 9.23825 75.3798 9.38535 75.9326 9.47495L 75.9326 9.75245L 72.7029 9.75245L 72.7029 9.47495C 73.141 9.40608 73.4553 9.25429 73.6457 9.01826C 73.8354 8.78289 73.931 8.41713 73.931 7.91965L 73.931 1.46774C 73.566 1.08727 73.315 0.843877 73.1766 0.738228C 73.0382 0.63258 72.8755 0.561033 72.6877 0.523588L 72.6877 0.246094L 75.5017 0.246094L 80.976 6.61776L 80.976 2.34101C 80.976 1.71113 80.8943 1.2765 80.7309 1.03578C 80.5682 0.795064 80.2585 0.623887 79.8026 0.523588ZM 64.7876 5.07046C 64.7876 3.59472 64.5438 2.4707 64.0562 1.6984C 63.5694 0.925426 62.8565 0.53894 61.9183 0.53894C 60.99 0.53894 60.2844 0.925426 59.7994 1.6984C 59.3145 2.4707 59.0721 3.5994 59.0721 5.0865C 59.0721 6.46796 59.3172 7.54116 59.8074 8.30811C 60.2969 9.07507 61.0012 9.45888 61.9183 9.45888C 62.8203 9.45888 63.5232 9.07774 64.0292 8.31547C 64.5346 7.55453 64.7876 6.47264 64.7876 5.07046ZM 67.0315 5.00693C 67.0315 6.46261 66.5526 7.6575 65.5933 8.59363C 64.6333 9.53042 63.4092 9.99849 61.9182 9.99849C 60.4325 9.99849 59.213 9.53042 58.259 8.59363C 57.305 7.6575 56.828 6.46261 56.828 5.00693C 56.828 3.55193 57.3063 2.35369 58.263 1.41288C 59.219 0.470737 60.4378 0 61.9182 0C 63.4092 0 64.6333 0.470737 65.5933 1.41288C 66.5526 2.35369 67.0315 3.55193 67.0315 5.00693ZM 49.3666 9.47494L 49.3666 9.75243L 44.9721 9.75243L 44.9721 9.47494C 45.4327 9.38533 45.7436 9.24759 45.9044 9.0617C 46.0645 8.87715 46.1442 8.53814 46.1442 8.04601L 46.1442 0.785687L 45.2093 0.785687C 44.642 0.785687 44.1934 0.910058 43.8639 1.1588C 43.5332 1.40754 43.2874 1.80138 43.1267 2.34099L 42.8533 2.34099L 42.9468 0.0474854L 43.2361 0.0474854C 43.439 0.179212 43.7467 0.246078 44.1584 0.246078L 50.2027 0.246078C 50.625 0.246078 50.932 0.179212 51.1251 0.0474854L 51.4143 0.0474854L 51.5085 2.34099L 51.2344 2.34099C 51.0737 1.80138 50.8279 1.40754 50.4979 1.1588C 50.1671 0.910058 49.7191 0.785687 49.1525 0.785687L 48.2163 0.785687L 48.2163 8.06206C 48.2163 8.52811 48.2973 8.85977 48.4587 9.05836C 48.6201 9.25628 48.9232 9.39536 49.3666 9.47494ZM 36.6496 0L 36.6496 2.50748L 36.3755 2.50748C 36.1943 1.95249 35.8807 1.4851 35.436 1.1073C 34.9906 0.72884 34.5321 0.538941 34.059 0.538941C 33.6321 0.538941 33.2691 0.66398 32.97 0.912722C 32.6708 1.1608 32.5213 1.4657 32.5213 1.82544C 32.5213 1.99996 32.5602 2.17315 32.6386 2.34499C 32.717 2.51684 32.8296 2.67732 32.9792 2.82442C 33.1274 2.97287 33.6057 3.30318 34.4148 3.81471C 35.2397 4.32557 35.772 4.68196 36.0112 4.88323C 36.2497 5.0845 36.479 5.34126 36.6977 5.65353C 37.0304 6.13563 37.1971 6.66321 37.1971 7.23424C 37.1971 8.0821 36.9039 8.75344 36.3176 9.25226C 35.7312 9.74974 35.0209 9.99849 34.1868 9.99849C 33.7388 9.99849 33.2045 9.91624 32.5839 9.75242C 32.2558 9.66817 32.0265 9.62537 31.8954 9.62537C 31.6766 9.62537 31.5179 9.72902 31.4184 9.93496L 31.145 9.93496L 31.145 7.07042L 31.4184 7.07042C 31.5594 7.81063 31.8519 8.39437 32.2946 8.82031C 32.738 9.24624 33.2823 9.45888 33.9286 9.45888C 34.4293 9.45888 34.8417 9.33183 35.1685 9.07774C 35.4933 8.82365 35.6567 8.50136 35.6567 8.10952C 35.6567 7.79257 35.5526 7.49235 35.3438 7.20883C 35.1356 6.92599 34.5769 6.51075 33.669 5.96245C 32.8342 5.45627 32.2808 5.06578 32.0107 4.79096C 31.7406 4.51547 31.537 4.20655 31.3986 3.86486C 31.2616 3.52317 31.1924 3.16143 31.1924 2.78096C 31.1924 1.96453 31.4671 1.29787 32.016 0.77899C 32.5648 0.258772 33.2717 0 34.1355 0C 34.401 0 34.7212 0.0448003 35.0954 0.13507C 35.4709 0.219989 35.7358 0.261446 35.8919 0.261446C 36.0428 0.261446 36.2042 0.173852 36.3755 0L 36.6496 0ZM 22.8303 5.07046C 22.8303 3.59472 22.5872 2.4707 22.0996 1.6984C 21.6121 0.925426 20.8992 0.53894 19.9617 0.53894C 19.0334 0.53894 18.3271 0.925426 17.8422 1.6984C 17.3579 2.4707 17.1155 3.5994 17.1155 5.0865C 17.1155 6.46796 17.3606 7.54116 17.8501 8.30811C 18.3403 9.07507 19.0439 9.45888 19.9617 9.45888C 20.863 9.45888 21.5673 9.07774 22.0726 8.31547C 22.578 7.55453 22.8303 6.47264 22.8303 5.07046ZM 25.075 5.00693C 25.075 6.46261 24.5954 7.6575 23.6361 8.59363C 22.6768 9.53042 21.452 9.99849 19.9617 9.99849C 18.476 9.99849 17.2565 9.53042 16.3018 8.59363C 15.3478 7.6575 14.8715 6.46261 14.8715 5.00693C 14.8715 3.55193 15.3498 2.35369 16.3058 1.41288C 17.2624 0.470737 18.4813 0 19.9617 0C 21.452 0 22.6768 0.470737 23.6361 1.41288C 24.5954 2.35369 25.075 3.55193 25.075 5.00693ZM 4.43009 5.1333L 3.31927 5.1333L 3.31927 8.04599C 3.31927 8.46992 3.42403 8.76948 3.63289 8.94734C 3.84108 9.12387 4.19027 9.2128 4.68045 9.2128C 5.2688 9.2128 5.73197 9.0336 6.06798 8.6772C 6.40465 8.32014 6.57199 7.82667 6.57199 7.19679C 6.57199 6.5736 6.38291 6.07344 6.00539 5.69765C 5.62721 5.32253 5.10211 5.1333 4.43009 5.1333ZM 3.31927 0.785645L 3.31927 4.60236L 4.07826 4.60236C 4.67716 4.60236 5.14625 4.43319 5.48556 4.09485C 5.8242 3.75651 5.99419 3.2851 5.99419 2.68197C 5.99419 1.4182 5.30569 0.785645 3.93002 0.785645L 3.31927 0.785645ZM 5.72272 9.75245L 0.0830078 9.75245L 0.0830078 9.47495C 0.569894 9.37398 0.886799 9.22955 1.03438 9.04233C 1.1813 8.85443 1.25575 8.55421 1.25575 8.14097L 1.25575 1.82547C 1.25575 1.39151 1.17406 1.08326 1.01132 0.900713C 0.847268 0.718168 0.53827 0.591791 0.0830078 0.523588L 0.0830078 0.246094L 5.01973 0.246094C 6.02974 0.246094 6.81838 0.440674 7.38631 0.829166C 7.95357 1.21833 8.23753 1.7673 8.23753 2.47541C 8.23753 3.57603 7.54443 4.32225 6.15822 4.71342L 6.15822 4.74484C 7.92985 5.07383 8.81666 5.90965 8.81666 7.25299C 8.81666 7.99922 8.53533 8.60168 7.97268 9.06172C 7.41003 9.52243 6.66026 9.75245 5.72272 9.75245Z"/>
</defs>
</svg>
