<?xml version="1.0" encoding="UTF-8"?>
<svg width="72px" height="91px" viewBox="0 0 72 91" version="1.1" xmlns="http://www.w3.org/2000/svg" xmlns:xlink="http://www.w3.org/1999/xlink">
    <!-- Generator: Sketch 49.1 (51147) - http://www.bohemiancoding.com/sketch -->
    <title>MP Icon Marker</title>
    <desc>Created with Sketch.</desc>
    <defs>
        <polygon id="path-1" points="0.3302 0.134 32 0.134 32 75 0.3302 75"></polygon>
    </defs>
    <g id="MP-Icon-Marker" stroke="none" stroke-width="1" fill="none" fill-rule="evenodd">
        <g id="Page-1" transform="translate(3.000000, 6.000000)" fill="#00B398" fill-opacity="0.99">
            <circle id="Oval" cx="33" cy="33" r="33"></circle>
            <path d="M16.2993,18.9869 C16.1383,18.8279 15.9063,18.7829 15.6973,18.8709 C15.4873,18.9579 15.3583,19.1539 15.3583,19.3809 L15.3583,46.4209 C15.3583,46.7259 15.6053,46.9739 15.9103,46.9739 L18.1443,46.9739 C18.4493,46.9739 18.6973,46.7259 18.6973,46.4209 L18.6973,26.0459 L27.3223,34.5539 C27.4543,34.6829 27.6423,34.7189 27.8133,34.6489 C27.9843,34.5769 28.0903,34.4169 28.0903,34.2319 L28.0903,30.8499 C28.0903,30.7009 28.0323,30.5609 27.9263,30.4559 L16.2993,18.9869 Z" id="Fill-1" stroke-opacity="0.99" stroke="#00B398" stroke-width="6"></path>
            <path d="M38.1626,34.6721 C38.3326,34.7421 38.5206,34.7071 38.6536,34.5771 L47.3026,26.0451 L47.3026,46.4211 C47.3026,46.7261 47.5506,46.9741 47.8556,46.9741 L50.0896,46.9741 C50.3946,46.9741 50.6426,46.7261 50.6426,46.4211 L50.6426,19.3801 C50.6426,19.1541 50.5136,18.9581 50.3036,18.8711 C50.0956,18.7821 49.8636,18.8271 49.7016,18.9871 L38.0496,30.4811 C37.9436,30.5851 37.8856,30.7251 37.8856,30.8741 L37.8856,34.2561 C37.8856,34.4411 37.9916,34.6001 38.1626,34.6721" id="Fill-3" stroke-opacity="0.99" stroke="#00B398" stroke-width="6"></path>
            <path d="M53.9282,11.7165 C51.1132,8.9825 47.8442,6.8345 44.2122,5.3345 C40.4632,3.7855 36.4992,2.9995 32.4302,2.9995 L31.8832,2.9995 C31.5782,2.9995 31.3302,3.2475 31.3302,3.5525 L31.3302,77.3135 C31.3302,77.6185 31.5782,77.8665 31.8832,77.8665 L34.1172,77.8665 C34.4222,77.8665 34.6702,77.6185 34.6702,77.3135 L34.6702,62.9525 C42.3262,62.5305 49.4622,59.2185 54.7662,53.6245 C60.1012,47.9985 63.0252,40.6385 63.0002,32.9015 C62.9732,24.8955 59.7522,17.3725 53.9282,11.7165 M59.6602,33.0005 C59.6602,47.0565 48.6872,58.7325 34.6702,59.6035 L34.6702,6.3965 C48.6872,7.2675 59.6602,18.9445 59.6602,33.0005" id="Fill-5" stroke-opacity="0.99" stroke="#00B398" stroke-width="6"></path>
            <path d="M27.6504,59.1135 C21.7234,57.9005 16.3224,54.6475 12.4414,49.9505 C8.5064,45.1905 6.3404,39.1705 6.3404,33.0005 L6.3404,31.8835 C6.3404,31.5785 6.0924,31.3305 5.7874,31.3305 L3.5534,31.3305 C3.2484,31.3305 3.0004,31.5785 3.0004,31.8835 L3.0004,33.0005 C3.0004,40.0245 5.4884,46.8595 10.0074,52.2465 C14.4704,57.5655 20.6594,61.1985 27.4334,62.4745 C27.4674,62.4815 27.5014,62.4845 27.5354,62.4845 C27.6614,62.4845 27.7864,62.4405 27.8864,62.3565 C28.0164,62.2495 28.0894,62.0925 28.0894,61.9265 L28.0894,59.6495 C28.0894,59.3875 27.9094,59.1675 27.6504,59.1135" id="Fill-8" stroke-opacity="0.99" stroke="#00B398" stroke-width="6"></path>
        </g>
        <g id="Page-1-Copy" transform="translate(6.000000, 8.000000)">
            <path d="M13.2993,16.9869 C13.1383,16.8279 12.9063,16.7829 12.6973,16.8709 C12.4873,16.9579 12.3583,17.1539 12.3583,17.3809 L12.3583,44.4209 C12.3583,44.7259 12.6053,44.9739 12.9103,44.9739 L15.1443,44.9739 C15.4493,44.9739 15.6973,44.7259 15.6973,44.4209 L15.6973,24.0459 L24.3223,32.5539 C24.4543,32.6829 24.6423,32.7189 24.8133,32.6489 C24.9843,32.5769 25.0903,32.4169 25.0903,32.2319 L25.0903,28.8499 C25.0903,28.7009 25.0323,28.5609 24.9263,28.4559 L13.2993,16.9869 Z" id="Fill-1" fill="#FEFEFE"></path>
            <path d="M35.1626,32.6721 C35.3326,32.7421 35.5206,32.7071 35.6536,32.5771 L44.3026,24.0451 L44.3026,44.4211 C44.3026,44.7261 44.5506,44.9741 44.8556,44.9741 L47.0896,44.9741 C47.3946,44.9741 47.6426,44.7261 47.6426,44.4211 L47.6426,17.3801 C47.6426,17.1541 47.5136,16.9581 47.3036,16.8711 C47.0956,16.7821 46.8636,16.8271 46.7016,16.9871 L35.0496,28.4811 C34.9436,28.5851 34.8856,28.7251 34.8856,28.8741 L34.8856,32.2561 C34.8856,32.4411 34.9916,32.6001 35.1626,32.6721" id="Fill-3" fill="#FEFEFE"></path>
            <g id="Group-7" transform="translate(28.000000, 0.866300)">
                <mask id="mask-2" fill="white">
                    <use xlink:href="#path-1"></use>
                </mask>
                <g id="Clip-6"></g>
                <path d="M22.9282,8.8502 C20.1132,6.1162 16.8442,3.9682 13.2122,2.4682 C9.4632,0.9192 5.4992,0.1332 1.4302,0.1332 L0.8832,0.1332 C0.5782,0.1332 0.3302,0.3812 0.3302,0.6862 L0.3302,74.4472 C0.3302,74.7522 0.5782,75.0002 0.8832,75.0002 L3.1172,75.0002 C3.4222,75.0002 3.6702,74.7522 3.6702,74.4472 L3.6702,60.0862 C11.3262,59.6642 18.4622,56.3522 23.7662,50.7582 C29.1012,45.1322 32.0252,37.7722 32.0002,30.0352 C31.9732,22.0292 28.7522,14.5062 22.9282,8.8502 M28.6602,30.1342 C28.6602,44.1902 17.6872,55.8662 3.6702,56.7372 L3.6702,3.5302 C17.6872,4.4012 28.6602,16.0782 28.6602,30.1342" id="Fill-5" fill="#FEFEFE" mask="url(#mask-2)"></path>
            </g>
            <path d="M24.6504,57.1135 C18.7234,55.9005 13.3224,52.6475 9.4414,47.9505 C5.5064,43.1905 3.3404,37.1705 3.3404,31.0005 L3.3404,29.8835 C3.3404,29.5785 3.0924,29.3305 2.7874,29.3305 L0.5534,29.3305 C0.2484,29.3305 0.0004,29.5785 0.0004,29.8835 L0.0004,31.0005 C0.0004,38.0245 2.4884,44.8595 7.0074,50.2465 C11.4704,55.5655 17.6594,59.1985 24.4334,60.4745 C24.4674,60.4815 24.5014,60.4845 24.5354,60.4845 C24.6614,60.4845 24.7864,60.4405 24.8864,60.3565 C25.0164,60.2495 25.0894,60.0925 25.0894,59.9265 L25.0894,57.6495 C25.0894,57.3875 24.9094,57.1675 24.6504,57.1135" id="Fill-8" fill="#FEFEFE"></path>
        </g>
    </g>
</svg>