<?xml version="1.0" encoding="UTF-8"?>
<svg width="66px" height="81px" viewBox="0 0 66 81" version="1.1" xmlns="http://www.w3.org/2000/svg" xmlns:xlink="http://www.w3.org/1999/xlink">
    <!-- Generator: Sketch 49.1 (51147) - http://www.bohemiancoding.com/sketch -->
    <title>Page 1</title>
    <desc>Created with Sketch.</desc>
    <defs></defs>
    <g id="Symbols" stroke="none" stroke-width="1" fill="none" fill-rule="evenodd" fill-opacity="0.99" opacity="0.282665308">
        <g id="MP-Icon-Marker" transform="translate(-3.000000, -6.000000)" fill="#00B398">
            <g id="Page-1" transform="translate(3.000000, 6.000000)">
                <circle id="Oval" cx="33" cy="33" r="33"></circle>
                <path d="M16.2993,18.9869 C16.1383,18.8279 15.9063,18.7829 15.6973,18.8709 C15.4873,18.9579 15.3583,19.1539 15.3583,19.3809 L15.3583,46.4209 C15.3583,46.7259 15.6053,46.9739 15.9103,46.9739 L18.1443,46.9739 C18.4493,46.9739 18.6973,46.7259 18.6973,46.4209 L18.6973,26.0459 L27.3223,34.5539 C27.4543,34.6829 27.6423,34.7189 27.8133,34.6489 C27.9843,34.5769 28.0903,34.4169 28.0903,34.2319 L28.0903,30.8499 C28.0903,30.7009 28.0323,30.5609 27.9263,30.4559 L16.2993,18.9869 Z" id="Fill-1" stroke-opacity="0.99" stroke="#00B398" stroke-width="6"></path>
                <path d="M38.1626,34.6721 C38.3326,34.7421 38.5206,34.7071 38.6536,34.5771 L47.3026,26.0451 L47.3026,46.4211 C47.3026,46.7261 47.5506,46.9741 47.8556,46.9741 L50.0896,46.9741 C50.3946,46.9741 50.6426,46.7261 50.6426,46.4211 L50.6426,19.3801 C50.6426,19.1541 50.5136,18.9581 50.3036,18.8711 C50.0956,18.7821 49.8636,18.8271 49.7016,18.9871 L38.0496,30.4811 C37.9436,30.5851 37.8856,30.7251 37.8856,30.8741 L37.8856,34.2561 C37.8856,34.4411 37.9916,34.6001 38.1626,34.6721" id="Fill-3" stroke-opacity="0.99" stroke="#00B398" stroke-width="6"></path>
                <path d="M53.9282,11.7165 C51.1132,8.9825 47.8442,6.8345 44.2122,5.3345 C40.4632,3.7855 36.4992,2.9995 32.4302,2.9995 L31.8832,2.9995 C31.5782,2.9995 31.3302,3.2475 31.3302,3.5525 L31.3302,77.3135 C31.3302,77.6185 31.5782,77.8665 31.8832,77.8665 L34.1172,77.8665 C34.4222,77.8665 34.6702,77.6185 34.6702,77.3135 L34.6702,62.9525 C42.3262,62.5305 49.4622,59.2185 54.7662,53.6245 C60.1012,47.9985 63.0252,40.6385 63.0002,32.9015 C62.9732,24.8955 59.7522,17.3725 53.9282,11.7165 M59.6602,33.0005 C59.6602,47.0565 48.6872,58.7325 34.6702,59.6035 L34.6702,6.3965 C48.6872,7.2675 59.6602,18.9445 59.6602,33.0005" id="Fill-5" stroke-opacity="0.99" stroke="#00B398" stroke-width="6"></path>
                <path d="M27.6504,59.1135 C21.7234,57.9005 16.3224,54.6475 12.4414,49.9505 C8.5064,45.1905 6.3404,39.1705 6.3404,33.0005 L6.3404,31.8835 C6.3404,31.5785 6.0924,31.3305 5.7874,31.3305 L3.5534,31.3305 C3.2484,31.3305 3.0004,31.5785 3.0004,31.8835 L3.0004,33.0005 C3.0004,40.0245 5.4884,46.8595 10.0074,52.2465 C14.4704,57.5655 20.6594,61.1985 27.4334,62.4745 C27.4674,62.4815 27.5014,62.4845 27.5354,62.4845 C27.6614,62.4845 27.7864,62.4405 27.8864,62.3565 C28.0164,62.2495 28.0894,62.0925 28.0894,61.9265 L28.0894,59.6495 C28.0894,59.3875 27.9094,59.1675 27.6504,59.1135" id="Fill-8" stroke-opacity="0.99" stroke="#00B398" stroke-width="6"></path>
            </g>
        </g>
    </g>
</svg>