<?xml version="1.0" encoding="utf-8"?>
<!-- Generator: Adobe Illustrator 21.0.0, SVG Export Plug-In . SVG Version: 6.00 Build 0)  -->
<svg version="1.1" id="Layer_1" xmlns="http://www.w3.org/2000/svg" xmlns:xlink="http://www.w3.org/1999/xlink" x="0px" y="0px"
	 viewBox="0 0 419.1 200.9" style="enable-background:new 0 0 419.1 200.9;" xml:space="preserve">
<style type="text/css">
	.st0{fill:#FFFFFF;}
	.st1{fill:#0074BC;}
	.st2{fill:#ED1846;}
	.st3{fill:#2E3B42;}
</style>
<rect class="st0" width="419.1" height="200.9"/>
<g>
	<path class="st1" d="M151.1,117.5c-9.6-8.6-15.5-20.2-15.5-33.7c0-24.5,19.9-44.5,44.4-44.4c16.5,0,28.3,7.2,38,20.7
		c0.6,0.9,0.9,2.5-0.1,3.7l-63,54.1C153.8,118.6,152.1,118.4,151.1,117.5"/>
	<path class="st2" d="M223,65.4c-0.6-1.2-0.4-2.9,0.7-4.1c0,0,23.9-20.6,26.1-22.5c1.1-0.9,2.9-0.5,3.8,0.3l26.2,21.6
		c1.8,1.3,2.3,2.2,2.4,4V114c0,2.2-0.9,3-2.8,3h-60.8c-1.8,0-2.6-2-1.5-3.4c6-7.8,10.1-16.3,10.2-28.8C227.3,77,225.8,71.3,223,65.4
		"/>
	<polyline class="st3" points="334.8,146.5 344.4,146.5 344.4,151.5 334.8,151.5 334.8,157.6 344.4,157.6 344.4,162.6 334.8,162.6 
		329.7,162.6 329.7,136.2 334.8,136.2 344.4,136.2 344.4,141.2 334.8,141.2 	"/>
	<path class="st3" d="M314.2,151.9c2.5,1.1,3.8,1.7,3.8,4.2c0,2.4-1.6,3.1-3.8,3.1c-2.3,0-5.4-1-6.8-2.2v5.1c1.7,1.3,4,2.1,6.6,2.1
		c6.3,0,9.5-3.6,9.5-8c0-5.1-3.2-7.7-8.4-9.6c-1.9-0.7-3.4-2-3.4-3.6c0-1.6,1.6-2.8,3.7-2.9c2.8-0.1,4.5,0.4,6.3,1.5v-5.2
		c-1.7-0.8-4.1-1.4-6.6-1.4c-4.9,0-8.8,3.5-8.8,7.7C306.2,147.5,309.4,149.7,314.2,151.9"/>
	<polygon class="st3" points="235.2,146.9 243,146.9 243,136.2 248.3,136.2 248.3,162.7 243,162.7 243,151.9 235.2,151.9 
		235.2,162.7 229.7,162.7 229.7,136.2 235.2,136.2 	"/>
	<path class="st3" d="M160,151.7c2.5,1.1,3.8,1.7,3.8,4.2c0,2.4-1.6,3.1-3.8,3.1c-2.3,0-5.4-1-6.8-2.2v5.1c1.7,1.3,4,2.1,6.6,2.1
		c6.3,0,9.5-3.6,9.5-8c0-5.1-3.2-7.7-8.4-9.6c-1.9-0.7-3.4-2-3.4-3.6c0-1.6,1.6-2.8,3.7-2.9c2.8-0.1,4.5,0.4,6.3,1.5v-5.2
		c-1.7-0.8-4.1-1.4-6.6-1.4c-4.9,0-8.8,3.5-8.8,7.7C152.1,147.4,155.3,149.6,160,151.7"/>
	<polygon class="st3" points="126,148.8 135.9,162.7 129.3,162.7 120.8,150.7 120.8,162.7 115.4,162.7 115.4,136.2 120.8,136.2 
		120.8,146.7 128.9,136.2 135.4,136.2 	"/>
	<path class="st3" d="M77.6,151.6c2.5,1.1,3.8,1.7,3.8,4.2c0,2.4-1.6,3.1-3.8,3.1c-2.3,0-5.4-1-6.8-2.2v5.1c1.7,1.3,4,2.1,6.6,2.1
		c6.3,0,9.5-3.6,9.5-8c0-5.1-3.2-7.7-8.4-9.6c-1.9-0.7-3.4-2-3.4-3.6c0-1.6,1.6-2.8,3.7-2.9c2.8-0.1,4.6,0.4,6.3,1.5v-5.2
		c-1.7-0.8-4.1-1.4-6.6-1.4c-4.9,0-8.8,3.5-8.8,7.7C69.6,147.3,72.8,149.5,77.6,151.6"/>
	<polygon class="st3" points="97.8,146.6 97.8,141.3 107.5,141.3 107.5,136.3 97.8,136.3 92.7,136.3 92.7,162.7 97.8,162.7 
		107.5,162.7 107.5,157.7 97.8,157.7 97.8,151.6 107.5,151.6 107.5,146.6 	"/>
	<rect x="140.4" y="136.2" class="st3" width="5.7" height="26.5"/>
	<path class="st3" d="M193.9,136.2h-5.5l0,19.1c0,2.1-1.7,3.8-3.8,3.8c-2.1,0-3.8-1.7-3.8-3.8l0-19.1h-5.7v18.5
		c0,5.8,4.2,9.3,9.4,9.3c5.1,0,9.4-3.2,9.3-9.3V136.2z"/>
	<rect x="200.9" y="136.2" class="st3" width="5.7" height="26.5"/>
	<path class="st3" d="M300.9,136.2h-5.5l0,19.1c0,2.1-1.7,3.8-3.8,3.8c-2.1,0-3.8-1.7-3.8-3.8v-19.1h-5.7v18.5
		c0,5.8,4.2,9.3,9.4,9.3c5.1,0,9.3-3.2,9.3-9.3L300.9,136.2z"/>
	<line class="st3" x1="334.8" y1="141.2" x2="334.8" y2="146.5"/>
	<path class="st3" d="M265.3,158.9c-3.7,0.1-6-4.3-6-9.7c0-5.3,2.1-9.7,6-9.7c3.9,0,6,4.3,6,9.7C271.3,154.6,269,158.8,265.3,158.9
		 M265.3,134.9c-7.5,0-11.2,6.4-11.2,14.3c0,7.9,4.2,14.3,11.2,14.3c7.4,0,11.2-6.4,11.2-14.3C276.6,141.3,272.8,134.9,265.3,134.9"
		/>
</g>
</svg>
