<?xml version="1.0" encoding="UTF-8"?>
<svg width="32px" height="32px" viewBox="0 0 32 32" version="1.1" xmlns="http://www.w3.org/2000/svg" xmlns:xlink="http://www.w3.org/1999/xlink">
    <!-- Generator: Sketch 49.1 (51147) - http://www.bohemiancoding.com/sketch -->
    <title>Page 1</title>
    <desc>Created with Sketch.</desc>
    <defs></defs>
    <g id="Symbols" stroke="none" stroke-width="1" fill="none" fill-rule="evenodd">
        <g id="Instagram/white" transform="translate(1.000000, 1.000000)">
            <g id="Page-1">
                <path d="M21.3303,17.979525 C21.2958,18.739275 21.1638,19.151025 21.05355,19.424775 C20.90805,19.787775 20.73405,20.047275 20.45355,20.319525 C20.17155,20.592525 19.90455,20.760525 19.5288,20.901525 C19.24605,21.008025 18.82005,21.134775 18.03555,21.170025 C17.1888,21.206775 16.93455,21.215025 14.78805,21.215025 C12.64155,21.215025 12.3873,21.206775 11.54055,21.170025 C10.7553,21.134775 10.3308,21.008025 10.04805,20.901525 C9.67155,20.760525 9.4053,20.592525 9.12255,20.319525 C8.84205,20.047275 8.66805,19.787775 8.5218,19.424775 C8.4123,19.151025 8.28105,18.739275 8.24505,17.979525 C8.2068,17.159025 8.19855,16.913025 8.19855,14.836275 C8.19855,12.758025 8.2068,12.511275 8.24505,11.690025 C8.28105,10.931775 8.4123,10.520025 8.5218,10.244775 C8.66805,9.882525 8.84205,9.622275 9.12255,9.350775 C9.4053,9.079275 9.67155,8.909775 10.04805,8.768775 C10.3308,8.661525 10.7553,8.534775 11.54055,8.501775 C12.3873,8.463525 12.64155,8.455275 14.78805,8.455275 C16.93455,8.455275 17.1888,8.463525 18.03555,8.501775 C18.82005,8.534775 19.24605,8.661525 19.5288,8.768775 C19.90455,8.909775 20.17155,9.079275 20.45355,9.350775 C20.73405,9.622275 20.90805,9.882525 21.05355,10.244775 C21.1638,10.520025 21.2958,10.931775 21.3303,11.690025 C21.37005,12.511275 21.37755,12.758025 21.37755,14.836275 C21.37755,16.913025 21.37005,17.159025 21.3303,17.979525 M22.77855,11.627775 C22.7373,10.798275 22.60155,10.233525 22.4043,9.737025 C22.19805,9.226275 21.92355,8.792775 21.47655,8.360025 C21.0303,7.927275 20.5818,7.660275 20.0538,7.461525 C19.54155,7.269525 18.95805,7.138275 18.1008,7.100025 C17.2443,7.061775 16.9713,7.052775 14.78805,7.052775 C12.6048,7.052775 12.33105,7.061775 11.4738,7.100025 C10.6188,7.138275 10.0338,7.269525 9.5223,7.461525 C8.99355,7.660275 8.5458,7.927275 8.0988,8.360025 C7.6518,8.792775 7.3773,9.226275 7.1718,9.737025 C6.97305,10.233525 6.83805,10.798275 6.79755,11.627775 C6.7593,12.456525 6.7503,12.722025 6.7503,14.836275 C6.7503,16.949775 6.7593,17.213775 6.79755,18.044025 C6.83805,18.870525 6.97305,19.438275 7.1718,19.932525 C7.3773,20.445525 7.6518,20.879025 8.0988,21.311025 C8.5458,21.744525 8.99355,22.010025 9.5223,22.209525 C10.0338,22.401525 10.6188,22.532025 11.4738,22.570275 C12.33105,22.608525 12.6048,22.616775 14.78805,22.616775 C16.9713,22.616775 17.2443,22.608525 18.1008,22.570275 C18.95805,22.532025 19.54155,22.401525 20.0538,22.209525 C20.5818,22.010025 21.0303,21.744525 21.47655,21.311025 C21.92355,20.879025 22.19805,20.445525 22.4043,19.932525 C22.60155,19.438275 22.7373,18.870525 22.77855,18.044025 C22.8168,17.213775 22.82655,16.949775 22.82655,14.836275 C22.82655,12.722025 22.8168,12.456525 22.77855,11.627775" id="Fill-1" fill="#FFFFFF"></path>
                <path d="M14.787975,17.428725 C13.308225,17.428725 12.108975,16.267725 12.108975,14.835225 C12.108975,13.402725 13.308225,12.240975 14.787975,12.240975 C16.267725,12.240975 17.467725,13.402725 17.467725,14.835225 C17.467725,16.267725 16.267725,17.428725 14.787975,17.428725 M14.787975,10.839225 C12.507975,10.839225 10.659975,12.628725 10.659975,14.835225 C10.659975,17.041725 12.507975,18.831225 14.787975,18.831225 C17.067975,18.831225 18.915225,17.041725 18.915225,14.835225 C18.915225,12.628725 17.067975,10.839225 14.787975,10.839225" id="Fill-3" fill="#FFFFFF"></path>
                <path d="M20.04345,10.681275 C20.04345,11.196525 19.6122,11.615775 19.0782,11.615775 C18.5457,11.615775 18.11445,11.196525 18.11445,10.681275 C18.11445,10.166025 18.5457,9.746775 19.0782,9.746775 C19.6122,9.746775 20.04345,10.166025 20.04345,10.681275" id="Fill-5" fill="#FFFFFF"></path>
                <path d="M15,0 C23.2713158,0 30,6.72868421 30,15 C30,23.2713158 23.2713158,30 15,30 C6.72868421,30 0,23.2713158 0,15 C0,6.72868421 6.72868421,0 15,0" id="Fill-7" stroke="#FFFFFF"></path>
            </g>
        </g>
    </g>
</svg>