<?xml version="1.0" encoding="UTF-8"?>
<svg width="285px" height="131px" viewBox="0 0 285 131" version="1.1" xmlns="http://www.w3.org/2000/svg" xmlns:xlink="http://www.w3.org/1999/xlink">
    <!-- Generator: Sketch 49.1 (51147) - http://www.bohemiancoding.com/sketch -->
    <title>Sekisui House_Colour</title>
    <desc>Created with Sketch.</desc>
    <defs>
        <polygon id="path-1" points="0.172 0.738 216.235 0.738 216.235 130.94 0.172 130.94"></polygon>
        <polygon id="path-3" points="0.06 0.598876639 68.494 0.598876639 68.494 30.7171157 0.06 30.7171157"></polygon>
    </defs>
    <g id="Symbols" stroke="none" stroke-width="1" fill="none" fill-rule="evenodd">
        <g id="Sekisui-House_Colour">
            <g>
                <g id="Group-6" transform="translate(68.000000, 0.000000)">
                    <mask id="mask-2" fill="white">
                        <use xlink:href="#path-1"></use>
                    </mask>
                    <g id="Clip-2"></g>
                    <path d="M16.248,82.764 C6.345,73.868 0.172,61.828 0.172,47.86 C0.172,22.491 20.739,1.862 46.106,1.925 C63.129,1.969 75.383,9.323 85.461,23.348 C86.102,24.24 86.414,25.936 85.324,27.16 L20.098,83.128 C19.011,83.947 17.248,83.663 16.248,82.764" id="Fill-1" fill="#0B69A5" mask="url(#mask-2)"></path>
                    <path d="M90.59,28.852 C90.001,27.649 90.226,25.868 91.316,24.575 C91.316,24.575 116.022,3.264 118.278,1.289 C119.368,0.336 121.274,0.745 122.226,1.563 L149.326,23.894 C151.233,25.256 151.708,26.208 151.845,28.047 L151.845,79.18 C151.845,81.495 150.89,82.31 148.918,82.31 L86.006,82.31 C84.168,82.31 83.35,80.254 84.44,78.84 C90.635,70.805 94.858,61.956 94.992,49.018 C95.079,40.848 93.569,34.94 90.59,28.852" id="Fill-3" fill="#D91F43" mask="url(#mask-2)"></path>
                    <polyline id="Fill-4" fill="#272F32" mask="url(#mask-2)" points="206.256 112.808 216.235 112.808 216.235 117.957 206.256 117.957 206.256 124.255 216.235 124.255 216.235 129.403 200.967 129.403 200.967 102.095 216.235 102.095 216.235 107.303 206.256 107.303"></polyline>
                    <path d="M184.932,118.31 C187.487,119.44 188.854,120.094 188.854,122.648 C188.854,125.144 187.18,125.874 184.932,125.856 C182.56,125.839 179.368,124.851 177.874,123.558 L177.874,128.789 C179.663,130.171 182.04,130.989 184.752,131 C191.228,131.023 194.606,127.313 194.583,122.766 C194.555,117.479 191.257,114.777 185.94,112.845 C183.983,112.134 182.458,110.779 182.458,109.133 C182.458,107.483 184.151,106.205 186.239,106.148 C189.149,106.072 190.946,106.526 192.788,107.7 L192.788,102.303 C191.046,101.469 188.589,100.871 185.911,100.884 C180.832,100.903 176.852,104.457 176.797,108.864 C176.734,113.853 180.061,116.112 184.932,118.31" id="Fill-5" fill="#272F32" mask="url(#mask-2)"></path>
                </g>
                <polyline id="Fill-7" fill="#272F32" points="171.211 113.157 179.352 113.157 179.352 102.087 184.756 102.087 184.756 129.493 179.352 129.493 179.352 118.384 171.211 118.384 171.211 129.493 165.567 129.493 165.567 102.087 171.211 102.087 171.211 113.157"></polyline>
                <path d="M93.48,118.192 C96.035,119.321 97.401,119.975 97.401,122.53 C97.401,125.023 95.73,125.751 93.48,125.735 C91.107,125.719 87.915,124.733 86.424,123.44 L86.424,128.67 C88.21,130.052 90.588,130.87 93.3,130.882 C99.778,130.905 103.157,127.194 103.132,122.648 C103.106,117.36 99.806,114.658 94.491,112.727 C92.53,112.014 91.007,110.661 91.007,109.014 C91.007,107.365 92.7,106.085 94.79,106.032 C97.696,105.953 99.494,106.404 101.335,107.581 L101.335,102.184 C99.595,101.351 97.141,100.754 94.461,100.762 C89.382,100.784 85.4,104.338 85.346,108.745 C85.282,113.735 88.609,115.993 93.48,118.192" id="Fill-8" fill="#272F32"></path>
                <g id="Group-12" transform="translate(0.000000, 100.000000)">
                    <mask id="mask-4" fill="white">
                        <use xlink:href="#path-3"></use>
                    </mask>
                    <g id="Clip-10"></g>
                    <polyline id="Fill-9" fill="#272F32" mask="url(#mask-4)" points="58.277 15.114 68.494 29.493 61.662 29.493 52.931 17.157 52.931 29.493 47.287 29.493 47.287 2.087 52.931 2.087 52.931 13.016 61.248 2.087 67.956 2.087 58.277 15.114"></polyline>
                    <path d="M8.136,18.028 C10.691,19.155 12.057,19.809 12.057,22.363 C12.057,24.86 10.387,25.588 8.136,25.572 C5.764,25.553 2.571,24.569 1.08,23.276 L1.08,28.507 C2.867,29.889 5.244,30.707 7.959,30.717 C14.435,30.741 17.812,27.028 17.789,22.482 C17.76,17.196 14.461,14.495 9.147,12.56 C7.186,11.848 5.664,10.497 5.664,8.848 C5.664,7.202 7.355,5.922 9.445,5.866 C12.356,5.79 14.153,6.241 15.994,7.418 L15.994,2.021 C14.25,1.188 11.796,0.589 9.118,0.599 C4.038,0.62 0.056,4.174 0.001,8.581 C-0.062,13.571 3.265,15.83 8.136,18.028" id="Fill-11" fill="#272F32" mask="url(#mask-4)"></path>
                </g>
                <polyline id="Fill-13" fill="#272F32" points="29.109 112.898 29.109 107.393 39.088 107.393 39.088 102.184 23.821 102.184 23.821 129.493 39.088 129.493 39.088 124.344 29.109 124.344 29.109 118.05 39.088 118.05 39.088 112.898 29.109 112.898"></polyline>
                <polygon id="Fill-14" fill="#272F32" points="73.127 129.493 79.011 129.493 79.011 102.088 73.127 102.088"></polygon>
                <path d="M128.483144,102.087 L122.794,102.087 L122.81,121.859 C122.81,124.018 121.06,125.767 118.904,125.767 C116.746,125.767 114.997,124.018 114.997,121.859 L115.012,102.087 L109.13,102.087 L109.13,121.25 C109.13,127.237 113.505,130.891 118.828,130.891 C124.153,130.891 128.512,127.532 128.483,121.25 L128.483144,102.087" id="Fill-15" fill="#272F32"></path>
                <polygon id="Fill-16" fill="#272F32" points="135.776 129.464 141.655 129.464 141.655 102.087 135.776 102.087"></polygon>
                <path d="M239.174,102.087 L233.471,102.087 L233.487,121.843 C233.487,124.002 231.739,125.751 229.58,125.751 C227.424,125.751 225.682,124.002 225.682,121.843 L225.682,102.087 L219.805,102.087 L219.805,121.232 C219.809,127.221 224.184,130.876 229.506,130.876 C234.831,130.876 239.174,127.516 239.147,121.232 L239.174,102.087" id="Fill-17" fill="#272F32"></path>
                <path d="M274.256,107.303 L274.256,112.808" id="Fill-18" fill="#272F32"></path>
                <path d="M202.417,100.81 C194.632,100.807 190.803,107.43 190.803,115.597 C190.803,123.766 195.17,130.39 202.417,130.387 C210.083,130.385 214.032,123.766 214.032,115.597 C214.032,107.43 210.143,100.813 202.417,100.81 M202.417,125.595 C198.585,125.659 196.19,121.12 196.19,115.597 C196.19,110.077 198.406,105.599 202.417,105.602 C206.43,105.602 208.644,110.077 208.644,115.597 C208.644,121.12 206.25,125.535 202.417,125.595" id="Fill-19" fill="#272F32"></path>
            </g>
        </g>
    </g>
</svg>