<?xml version="1.0" encoding="UTF-8"?>
<svg width="281px" height="81px" viewBox="0 0 281 81" version="1.1" xmlns="http://www.w3.org/2000/svg" xmlns:xlink="http://www.w3.org/1999/xlink">
    <!-- Generator: Sketch 49.1 (51147) - http://www.bohemiancoding.com/sketch -->
    <title>Group</title>
    <desc>Created with Sketch.</desc>
    <defs></defs>
    <g id="Page-1" stroke="none" stroke-width="1" fill="none" fill-rule="evenodd">
        <g id="Group">
            <rect id="Rectangle" fill="#182A54" x="0" y="0" width="281" height="81"></rect>
            <path d="M33.244,42.06 L15.578,42.06 L15.578,41.208 C17.101,40.9 18.096,40.459 18.559,39.884 C19.019,39.308 19.251,38.389 19.251,37.125 L19.251,17.776 C19.251,16.446 18.996,15.503 18.485,14.942 C17.973,14.384 17.006,13.998 15.578,13.788 L15.578,12.937 L31.041,12.937 C34.207,12.937 36.677,13.533 38.454,14.724 C40.232,15.915 41.121,17.596 41.121,19.767 C41.121,23.138 38.95,25.424 34.608,26.623 L34.608,26.72 C40.158,27.726 42.934,30.285 42.934,34.403 C42.934,36.687 42.054,38.534 40.291,39.945 C38.528,41.354 36.18,42.06 33.244,42.06 Z M25.717,14.592 L25.717,26.283 L28.092,26.283 C29.969,26.283 31.439,25.765 32.5,24.727 C33.563,23.692 34.092,22.248 34.092,20.402 C34.092,16.528 31.937,14.591 27.628,14.591 L25.717,14.591 L25.717,14.592 Z M29.195,27.912 L25.717,27.912 L25.717,36.834 C25.717,38.132 26.043,39.05 26.698,39.593 C27.351,40.136 28.444,40.407 29.98,40.407 C31.824,40.407 33.272,39.859 34.327,38.766 C35.381,37.671 35.905,36.16 35.905,34.232 C35.905,32.322 35.314,30.788 34.13,29.637 C32.945,28.489 31.301,27.912 29.195,27.912 Z M93.235,27.522 C93.235,32.016 91.741,35.709 88.755,38.6 C85.771,41.494 81.955,42.941 77.315,42.941 C72.69,42.941 68.893,41.494 65.921,38.6 C62.952,35.708 61.467,32.016 61.467,27.522 C61.467,23.027 62.956,19.326 65.935,16.418 C68.913,13.508 72.706,12.054 77.315,12.054 C81.955,12.054 85.77,13.508 88.756,16.418 C91.741,19.326 93.235,23.027 93.235,27.522 Z M86.248,27.718 C86.248,23.158 85.49,19.688 83.973,17.3 C82.454,14.915 80.235,13.722 77.315,13.722 C74.426,13.722 72.227,14.915 70.718,17.3 C69.208,19.688 68.454,23.175 68.454,27.767 C68.454,32.034 69.217,35.351 70.742,37.72 C72.268,40.089 74.458,41.274 77.315,41.274 C80.123,41.274 82.314,40.096 83.888,37.743 C85.461,35.389 86.248,32.049 86.248,27.718 Z M128.622,12.055 L128.622,19.801 L127.784,19.801 C127.249,18.118 126.252,16.618 124.906,15.475 C123.543,14.306 122.139,13.722 120.689,13.722 C119.383,13.722 118.272,14.106 117.354,14.873 C116.439,15.641 115.981,16.582 115.981,17.693 C115.981,18.231 116.101,18.767 116.341,19.297 C116.58,19.829 116.927,20.324 117.382,20.781 C117.837,21.237 119.302,22.258 121.78,23.837 C124.305,25.418 125.935,26.517 126.668,27.141 C127.398,27.761 128.1,28.554 128.771,29.519 C129.79,31.009 130.299,32.636 130.299,34.403 C130.299,37.021 129.402,39.096 127.607,40.634 C125.811,42.172 123.635,42.942 121.083,42.942 C119.71,42.942 118.074,42.686 116.174,42.181 C115.169,41.921 114.466,41.789 114.067,41.789 C113.397,41.789 112.91,42.107 112.606,42.744 L111.768,42.744 L111.768,33.894 L112.606,33.894 C113.038,36.183 113.932,37.985 115.289,39.3 C116.646,40.615 118.314,41.274 120.293,41.274 C121.825,41.274 123.089,40.879 124.089,40.096 C125.084,39.311 125.584,38.315 125.584,37.105 C125.584,36.125 125.265,35.2 124.626,34.323 C123.987,33.449 122.277,32.166 119.497,30.473 C116.94,28.91 115.247,27.702 114.42,26.852 C113.612,26.032 112.975,25.059 112.545,23.993 C112.122,22.928 111.908,21.791 111.913,20.644 C111.913,18.124 112.754,16.063 114.436,14.459 C116.117,12.855 118.279,12.054 120.925,12.054 C121.738,12.054 122.718,12.193 123.865,12.47 C125.013,12.733 125.824,12.863 126.303,12.863 C126.765,12.863 127.258,12.593 127.784,12.054 L128.622,12.054 L128.622,12.055 Z M167.869,41.199 L167.869,42.059 L154.428,42.059 L154.428,41.199 C155.837,40.923 156.787,40.498 157.28,39.925 C157.769,39.353 158.015,38.305 158.015,36.784 L158.015,14.337 L155.155,14.337 C153.419,14.337 152.047,14.721 151.039,15.49 C150.027,16.26 149.276,17.476 148.785,19.143 L147.948,19.143 L148.235,12.054 L149.12,12.054 C149.741,12.463 150.683,12.667 151.941,12.667 L170.428,12.667 C171.718,12.667 172.66,12.463 173.25,12.054 L174.134,12.054 L174.421,19.143 L173.583,19.143 C173.092,17.476 172.34,16.259 171.33,15.49 C170.319,14.72 168.948,14.337 167.217,14.337 L164.354,14.337 L164.354,36.833 C164.354,38.273 164.6,39.299 165.094,39.913 C165.588,40.527 166.514,40.956 167.869,41.199 Z M222.956,27.522 C222.956,32.016 221.465,35.709 218.477,38.6 C215.491,41.494 211.677,42.941 207.035,42.941 C202.409,42.941 198.613,41.494 195.643,38.6 C192.673,35.708 191.188,32.016 191.188,27.522 C191.188,23.027 192.676,19.326 195.657,16.418 C198.634,13.508 202.426,12.054 207.035,12.054 C211.679,12.054 215.491,13.508 218.477,16.418 C221.465,19.326 222.956,23.027 222.956,27.522 Z M215.97,27.718 C215.97,23.158 215.211,19.688 213.695,17.3 C212.178,14.915 209.959,13.722 207.036,13.722 C204.147,13.722 201.949,14.915 200.44,17.3 C198.93,19.688 198.175,23.175 198.175,27.767 C198.175,32.034 198.938,35.351 200.464,37.72 C201.989,40.089 204.18,41.274 207.035,41.274 C209.844,41.274 212.034,40.096 213.609,37.743 C215.183,35.389 215.97,32.049 215.97,27.718 Z M261.726,13.778 L261.726,12.936 L271.493,12.936 L271.493,13.778 C268.689,13.938 267.286,15.507 267.286,18.489 L267.286,42.059 L266.34,42.059 L245.502,18.725 L245.502,36.32 C245.502,37.856 245.786,38.932 246.35,39.549 C246.915,40.164 248.048,40.61 249.76,40.881 L249.76,41.722 L239.775,41.722 L239.775,40.881 C241.129,40.672 242.101,40.213 242.687,39.499 C243.275,38.786 243.571,37.679 243.571,36.173 L243.571,16.637 C242.44,15.484 241.666,14.747 241.237,14.428 C240.79,14.098 240.272,13.876 239.725,13.778 L239.725,12.936 L248.426,12.936 L265.354,32.232 L265.354,19.281 C265.354,17.374 265.1,16.057 264.596,15.329 C264.092,14.6 263.134,14.083 261.726,13.778 Z M34.903,56.178 L34.903,56.591 C34.322,56.695 33.903,56.875 33.642,57.14 C33.381,57.403 33.25,57.778 33.25,58.265 C33.249,58.469 33.262,58.673 33.292,58.875 L34.582,67.694 C34.677,68.337 34.896,68.833 35.242,69.177 C35.587,69.523 36.092,69.759 36.758,69.884 L36.758,70.296 L29.722,70.296 L29.722,69.884 C30.308,69.736 30.728,69.503 30.982,69.19 C31.236,68.875 31.363,68.422 31.363,67.834 C31.363,67.542 31.336,67.19 31.28,66.773 L30.115,58.712 L25.428,70.296 L24.921,70.296 L20.297,58.712 L19.063,67.008 C19.014,67.339 18.991,67.638 18.991,67.905 C18.991,69.137 19.573,69.8 20.738,69.884 L20.738,70.296 L15.58,70.296 L15.58,69.884 C16.333,69.854 16.9,69.604 17.279,69.137 C17.659,68.668 17.935,67.882 18.109,66.773 L19.514,57.555 C18.912,56.936 18.222,56.615 17.444,56.59 L17.444,56.177 L22.598,56.177 L26.313,65.487 L30.079,56.177 L34.903,56.177 L34.903,56.178 Z M60.978,69.416 L60.978,69.013 C61.536,68.907 61.93,68.776 62.161,68.617 C62.384,68.473 62.514,68.222 62.505,67.958 C62.505,67.729 62.417,67.377 62.244,66.901 L61.457,64.786 L56.601,64.786 L55.928,66.614 C55.758,67.081 55.671,67.454 55.671,67.74 C55.671,68.344 56.126,68.769 57.038,69.013 L57.038,69.416 L52.642,69.416 L52.642,69.013 C53.171,68.922 53.634,68.643 54.028,68.175 C54.422,67.71 54.813,66.946 55.197,65.89 L59.111,55.296 L60.969,55.296 L65.107,66.313 C65.485,67.295 65.857,67.98 66.221,68.366 C66.586,68.752 67.059,68.97 67.643,69.013 L67.643,69.416 L60.978,69.416 Z M57.037,63.798 L61.091,63.798 L59.019,58.213 L57.037,63.798 Z M83.527,70.297 L83.527,69.885 C84.722,69.792 85.32,69.192 85.32,68.083 L85.32,58.524 C85.32,57.873 85.195,57.42 84.948,57.17 C84.7,56.917 84.227,56.726 83.527,56.591 L83.527,56.178 L90.25,56.178 C92.01,56.178 93.364,56.491 94.313,57.112 C95.26,57.732 95.734,58.602 95.734,59.727 C95.734,60.536 95.488,61.233 94.995,61.814 C94.502,62.395 93.794,62.818 92.874,63.086 L92.874,63.133 C93.205,63.211 93.564,63.486 93.948,63.953 C94.334,64.422 94.892,65.339 95.624,66.705 C96.341,68.03 96.862,68.872 97.189,69.226 C97.517,69.579 97.963,69.8 98.528,69.884 L98.528,70.296 L94.453,70.296 C93.919,69.668 93.235,68.524 92.397,66.866 C91.821,65.728 91.396,64.969 91.115,64.594 C90.836,64.218 90.545,63.952 90.243,63.797 C89.94,63.646 89.336,63.57 88.432,63.57 L88.432,67.906 C88.432,68.526 88.569,68.986 88.844,69.291 C89.119,69.592 89.588,69.791 90.248,69.884 L90.248,70.296 L83.527,70.296 L83.527,70.297 Z M89.399,56.979 L88.434,56.979 L88.434,62.768 C88.677,62.782 88.905,62.791 89.118,62.791 C90.243,62.791 91.061,62.548 91.577,62.065 C92.092,61.583 92.348,60.818 92.348,59.773 C92.347,57.913 91.366,56.979 89.399,56.979 Z M124.329,58.944 L121.716,61.427 L127.334,68.382 C127.803,68.964 128.17,69.351 128.437,69.539 C128.701,69.73 129.028,69.845 129.416,69.884 L129.416,70.296 L123.004,70.296 L123.004,69.884 C123.652,69.736 123.977,69.513 123.977,69.213 C123.977,69.047 123.88,68.847 123.685,68.611 L119.29,63.131 L119.29,67.738 C119.29,68.422 119.386,68.891 119.577,69.147 C119.77,69.403 120.261,69.648 121.047,69.883 L121.047,70.295 L114.415,70.295 L114.415,69.883 C115.156,69.71 115.639,69.49 115.861,69.223 C116.085,68.956 116.195,68.494 116.195,67.832 L116.195,58.569 C116.195,57.923 116.08,57.476 115.848,57.224 C115.619,56.972 115.14,56.761 114.414,56.588 L114.414,56.175 L121.046,56.175 L121.046,56.588 C120.363,56.743 119.899,56.959 119.656,57.232 C119.409,57.503 119.29,57.889 119.29,58.391 L119.29,62.576 L123.613,58.392 C123.903,58.117 124.049,57.845 124.049,57.578 C124.049,57.125 123.613,56.793 122.747,56.589 L122.747,56.176 L128.583,56.176 L128.583,56.589 C127.926,56.589 127.28,56.764 126.643,57.112 C126.006,57.465 125.235,58.076 124.329,58.944 Z M155.151,61.045 L155.593,61.045 L155.593,65.418 L155.151,65.418 C154.993,64.217 154.365,63.614 153.269,63.614 L150.876,63.614 L150.876,67.762 C150.876,68.401 151.016,68.847 151.293,69.107 C151.573,69.366 152.052,69.495 152.73,69.495 L153.525,69.495 C154.852,69.495 155.802,68.618 156.375,66.869 L156.771,66.869 L156.523,70.297 L146.181,70.297 L146.181,69.885 C146.864,69.737 147.319,69.523 147.543,69.243 C147.77,68.964 147.88,68.422 147.88,67.622 L147.88,58.549 C147.88,57.888 147.765,57.43 147.532,57.174 C147.298,56.918 146.848,56.725 146.18,56.591 L146.18,56.178 L156.363,56.178 L156.363,59.314 L155.967,59.314 C155.738,58.395 155.455,57.778 155.122,57.458 C154.783,57.139 154.246,56.979 153.506,56.979 L150.874,56.979 L150.874,62.816 L153.267,62.816 C153.81,62.816 154.226,62.682 154.514,62.413 C154.805,62.141 155.014,61.688 155.151,61.045 Z M182.615,69.011 L182.615,69.416 L175.895,69.416 L175.895,69.011 C176.6,68.88 177.076,68.681 177.319,68.412 C177.568,68.141 177.689,67.649 177.689,66.933 L177.689,56.369 L176.256,56.369 C175.39,56.369 174.704,56.552 174.199,56.914 C173.695,57.274 173.319,57.848 173.074,58.634 L172.655,58.634 L172.798,55.297 L173.241,55.297 C173.552,55.488 174.021,55.585 174.649,55.585 L183.894,55.585 C184.54,55.585 185.009,55.488 185.304,55.297 L185.746,55.297 L185.892,58.634 L185.474,58.634 C185.225,57.848 184.85,57.275 184.345,56.914 C183.838,56.551 183.155,56.369 182.288,56.369 L180.857,56.369 L180.857,66.957 C180.857,67.635 180.98,68.117 181.225,68.406 C181.476,68.694 181.938,68.895 182.615,69.011 Z M208.837,56.178 L208.837,56.591 C208.194,56.748 207.762,56.958 207.535,57.222 C207.31,57.484 207.201,58.028 207.201,58.855 L207.201,67.907 C207.201,68.542 207.305,68.987 207.514,69.237 C207.724,69.49 208.164,69.705 208.836,69.885 L208.836,70.297 L202.659,70.297 L202.659,69.885 C203.123,69.761 203.472,69.622 203.7,69.472 C203.929,69.324 204.091,69.135 204.181,68.908 C204.271,68.679 204.317,68.244 204.317,67.599 L204.317,58.572 C204.317,57.935 204.209,57.489 203.994,57.235 C203.781,56.977 203.335,56.765 202.659,56.591 L202.659,56.178 L208.837,56.178 Z M235.993,56.586 L235.993,56.179 L240.606,56.179 L240.606,56.586 C239.282,56.665 238.621,57.428 238.621,58.871 L238.621,70.297 L238.172,70.297 L228.333,58.985 L228.333,67.515 C228.333,68.261 228.465,68.782 228.73,69.08 C228.997,69.379 229.535,69.594 230.34,69.726 L230.34,70.134 L225.625,70.134 L225.625,69.726 C226.265,69.625 226.724,69.402 227,69.055 C227.278,68.712 227.419,68.174 227.419,67.445 L227.419,57.972 C226.886,57.413 226.518,57.057 226.316,56.902 C226.105,56.743 225.862,56.633 225.602,56.585 L225.602,56.178 L229.711,56.178 L237.705,65.534 L237.705,59.254 C237.705,58.33 237.585,57.692 237.348,57.338 C237.11,56.985 236.659,56.735 235.993,56.586 Z M270.664,55.335 L270.664,59.185 L270.24,59.185 C269.833,58.139 269.204,57.307 268.355,56.688 C267.54,56.081 266.547,55.755 265.531,55.761 C264.141,55.761 263.066,56.352 262.306,57.535 C261.545,58.721 261.165,60.386 261.165,62.542 C261.165,64.529 261.543,66.039 262.299,67.078 C263.055,68.116 264.148,68.637 265.575,68.637 C266.951,68.637 267.638,68.149 267.638,67.182 L267.638,65.142 C267.638,64.203 267.168,63.642 266.231,63.458 L266.231,63.058 L272.003,63.058 L272.003,63.458 C271.498,63.595 271.149,63.814 270.955,64.117 C270.76,64.418 270.663,64.886 270.663,65.519 L270.663,68.429 C269.288,69.087 267.512,69.415 265.336,69.415 C263.884,69.415 262.597,69.113 261.473,68.509 C260.367,67.921 259.451,67.03 258.834,65.938 C258.197,64.832 257.867,63.576 257.878,62.299 C257.878,60.2 258.584,58.456 259.995,57.064 C261.409,55.675 263.187,54.982 265.336,54.982 C266.183,54.982 267.107,55.158 268.108,55.518 C268.634,55.709 269.015,55.805 269.254,55.805 C269.605,55.805 269.934,55.648 270.239,55.334 L270.664,55.334 L270.664,55.335 Z" id="Shape" fill="#FFFFFF" fill-rule="nonzero"></path>
        </g>
    </g>
</svg>