<?xml version="1.0" encoding="utf-8"?>
<!-- Generator: Adobe Illustrator 16.0.0, SVG Export Plug-In . SVG Version: 6.00 Build 0)  -->
<!DOCTYPE svg PUBLIC "-//W3C//DTD SVG 1.1//EN" "http://www.w3.org/Graphics/SVG/1.1/DTD/svg11.dtd">
<svg version="1.1" id="Layer_1" xmlns="http://www.w3.org/2000/svg" xmlns:xlink="http://www.w3.org/1999/xlink" x="0px" y="0px"
	 width="277px" height="200px" viewBox="21 15 277 200" enable-background="new 21 15 277 200" xml:space="preserve">
<g>
	<g>
		<path fill="#182A54" d="M49.244,179.06H31.578v-0.852c1.523-0.308,2.518-0.749,2.981-1.324c0.46-0.576,0.692-1.495,0.692-2.759
			v-19.349c0-1.33-0.255-2.273-0.766-2.834c-0.512-0.558-1.479-0.944-2.907-1.154v-0.851h15.463c3.166,0,5.636,0.596,7.413,1.787
			c1.778,1.191,2.667,2.872,2.667,5.043c0,3.371-2.171,5.657-6.513,6.856v0.097c5.55,1.006,8.326,3.565,8.326,7.683
			c0,2.284-0.88,4.131-2.643,5.542C54.528,178.354,52.18,179.06,49.244,179.06L49.244,179.06z M41.717,151.592v11.691h2.375
			c1.877,0,3.347-0.518,4.408-1.556c1.063-1.035,1.592-2.479,1.592-4.325c0-3.874-2.155-5.811-6.464-5.811H41.717L41.717,151.592z
			 M45.195,164.912h-3.478v8.922c0,1.298,0.326,2.216,0.981,2.759c0.653,0.543,1.746,0.814,3.282,0.814
			c1.844,0,3.292-0.548,4.347-1.641c1.054-1.095,1.578-2.606,1.578-4.534c0-1.91-0.591-3.444-1.775-4.595
			C48.945,165.489,47.301,164.912,45.195,164.912z M109.235,164.522c0,4.494-1.494,8.187-4.48,11.078
			c-2.984,2.894-6.8,4.341-11.44,4.341c-4.625,0-8.422-1.447-11.394-4.341c-2.969-2.892-4.454-6.584-4.454-11.078
			c0-4.495,1.489-8.196,4.468-11.104c2.978-2.91,6.771-4.364,11.38-4.364c4.64,0,8.455,1.454,11.441,4.364
			C107.741,156.326,109.235,160.027,109.235,164.522 M102.248,164.718c0-4.56-0.758-8.03-2.275-10.418
			c-1.519-2.385-3.738-3.578-6.658-3.578c-2.889,0-5.088,1.193-6.597,3.578c-1.51,2.388-2.264,5.875-2.264,10.467
			c0,4.267,0.763,7.584,2.288,9.953c1.526,2.369,3.716,3.554,6.573,3.554c2.808,0,4.999-1.178,6.573-3.531
			C101.461,172.389,102.248,169.049,102.248,164.718 M144.622,149.055v7.746h-0.838c-0.535-1.683-1.532-3.183-2.878-4.326
			c-1.363-1.169-2.767-1.753-4.217-1.753c-1.306,0-2.417,0.384-3.335,1.151c-0.915,0.768-1.373,1.709-1.373,2.82
			c0,0.538,0.12,1.074,0.36,1.604c0.239,0.532,0.586,1.027,1.041,1.484c0.455,0.456,1.92,1.477,4.398,3.056
			c2.525,1.581,4.155,2.68,4.888,3.304c0.73,0.62,1.432,1.413,2.103,2.378c1.019,1.49,1.528,3.117,1.528,4.884
			c0,2.618-0.897,4.693-2.692,6.231c-1.796,1.538-3.972,2.308-6.524,2.308c-1.373,0-3.009-0.256-4.909-0.761
			c-1.005-0.26-1.708-0.392-2.107-0.392c-0.67,0-1.157,0.318-1.461,0.955h-0.838v-8.85h0.838c0.432,2.289,1.326,4.091,2.683,5.406
			c1.357,1.315,3.025,1.974,5.004,1.974c1.532,0,2.796-0.395,3.796-1.178c0.995-0.785,1.495-1.781,1.495-2.991
			c0-0.98-0.319-1.905-0.958-2.782c-0.639-0.874-2.349-2.157-5.129-3.85c-2.557-1.563-4.25-2.771-5.077-3.621
			c-0.808-0.82-1.445-1.793-1.875-2.859c-0.423-1.065-0.637-2.202-0.632-3.349c0-2.52,0.841-4.581,2.523-6.185
			c1.681-1.604,3.843-2.405,6.489-2.405c0.813,0,1.793,0.139,2.94,0.416c1.148,0.263,1.959,0.393,2.438,0.393
			c0.462,0,0.955-0.27,1.481-0.809H144.622L144.622,149.055z M183.869,178.199v0.86h-13.441v-0.86
			c1.409-0.276,2.359-0.701,2.852-1.274c0.489-0.572,0.735-1.62,0.735-3.141v-22.447h-2.86c-1.736,0-3.108,0.384-4.116,1.153
			c-1.012,0.77-1.763,1.986-2.254,3.653h-0.837l0.287-7.089h0.885c0.621,0.409,1.563,0.613,2.821,0.613h18.487
			c1.29,0,2.232-0.204,2.822-0.613h0.884l0.287,7.089h-0.838c-0.491-1.667-1.243-2.884-2.253-3.653
			c-1.011-0.77-2.382-1.153-4.113-1.153h-2.863v22.496c0,1.44,0.246,2.466,0.74,3.08S182.514,177.956,183.869,178.199
			 M238.956,164.522c0,4.494-1.491,8.187-4.479,11.078c-2.986,2.894-6.8,4.341-11.442,4.341c-4.626,0-8.422-1.447-11.392-4.341
			c-2.97-2.892-4.455-6.584-4.455-11.078c0-4.495,1.488-8.196,4.469-11.104c2.977-2.91,6.769-4.364,11.378-4.364
			c4.644,0,8.456,1.454,11.442,4.364C237.465,156.326,238.956,160.027,238.956,164.522 M231.97,164.718
			c0-4.56-0.759-8.03-2.275-10.418c-1.517-2.385-3.736-3.578-6.659-3.578c-2.889,0-5.087,1.193-6.596,3.578
			c-1.51,2.388-2.265,5.875-2.265,10.467c0,4.267,0.763,7.584,2.289,9.953c1.525,2.369,3.716,3.554,6.571,3.554
			c2.809,0,4.999-1.178,6.574-3.531C231.183,172.389,231.97,169.049,231.97,164.718 M277.726,150.778v-0.842h9.767v0.842
			c-2.804,0.16-4.207,1.729-4.207,4.711v23.57h-0.946l-20.838-23.334v17.595c0,1.536,0.284,2.612,0.848,3.229
			c0.565,0.615,1.698,1.061,3.41,1.332v0.841h-9.985v-0.841c1.354-0.209,2.326-0.668,2.912-1.382
			c0.588-0.713,0.884-1.82,0.884-3.326v-19.536c-1.131-1.153-1.905-1.89-2.334-2.209c-0.447-0.33-0.965-0.552-1.512-0.65v-0.842
			h8.701l16.928,19.296v-12.951c0-1.907-0.254-3.224-0.758-3.952C280.092,151.6,279.134,151.083,277.726,150.778 M50.903,193.178
			v0.413c-0.581,0.104-1,0.284-1.261,0.549c-0.261,0.263-0.392,0.638-0.392,1.125c-0.001,0.204,0.012,0.408,0.042,0.61l1.29,8.819
			c0.095,0.643,0.314,1.139,0.66,1.483c0.345,0.346,0.85,0.582,1.516,0.707v0.412h-7.036v-0.412c0.586-0.148,1.006-0.381,1.26-0.694
			c0.254-0.315,0.381-0.768,0.381-1.356c0-0.292-0.027-0.644-0.083-1.061l-1.165-8.061l-4.687,11.584h-0.507l-4.624-11.584
			l-1.234,8.296c-0.049,0.331-0.072,0.63-0.072,0.897c0,1.232,0.582,1.895,1.747,1.979v0.412h-5.158v-0.412
			c0.753-0.03,1.32-0.28,1.699-0.747c0.38-0.469,0.656-1.255,0.83-2.364l1.405-9.218c-0.602-0.619-1.292-0.94-2.07-0.965v-0.413
			h5.154l3.715,9.31l3.766-9.31H50.903L50.903,193.178z M76.978,206.416v-0.403c0.558-0.106,0.952-0.237,1.183-0.396
			c0.223-0.144,0.353-0.395,0.344-0.659c0-0.229-0.088-0.581-0.261-1.057l-0.787-2.115h-4.856l-0.673,1.828
			c-0.17,0.467-0.257,0.84-0.257,1.126c0,0.604,0.455,1.029,1.367,1.273v0.403h-4.396v-0.403c0.529-0.091,0.992-0.37,1.386-0.838
			c0.394-0.465,0.785-1.229,1.169-2.285l3.914-10.594h1.858l4.138,11.017c0.378,0.982,0.75,1.667,1.114,2.053
			c0.365,0.386,0.838,0.604,1.422,0.647v0.403H76.978z M73.037,200.798h4.054l-2.072-5.585L73.037,200.798L73.037,200.798z
			 M99.527,207.297v-0.412c1.195-0.093,1.793-0.693,1.793-1.802v-9.559c0-0.651-0.125-1.104-0.372-1.354
			c-0.248-0.253-0.721-0.444-1.421-0.579v-0.413h6.723c1.76,0,3.114,0.313,4.063,0.934c0.947,0.62,1.421,1.49,1.421,2.615
			c0,0.809-0.246,1.506-0.739,2.087c-0.493,0.581-1.201,1.004-2.121,1.272v0.047c0.331,0.078,0.69,0.353,1.074,0.82
			c0.386,0.469,0.944,1.386,1.676,2.752c0.717,1.325,1.238,2.167,1.565,2.521c0.328,0.353,0.774,0.574,1.339,0.658v0.412h-4.075
			c-0.534-0.628-1.218-1.772-2.056-3.43c-0.576-1.138-1.001-1.897-1.282-2.272c-0.279-0.376-0.57-0.642-0.872-0.797
			c-0.303-0.151-0.907-0.227-1.811-0.227v4.336c0,0.62,0.137,1.08,0.412,1.385c0.275,0.301,0.744,0.5,1.404,0.593v0.412H99.527
			L99.527,207.297z M105.399,193.979h-0.965v5.789c0.243,0.014,0.471,0.023,0.684,0.023c1.125,0,1.943-0.243,2.459-0.726
			c0.515-0.482,0.771-1.247,0.771-2.292C108.347,194.913,107.366,193.979,105.399,193.979L105.399,193.979z M140.329,195.944
			l-2.613,2.483l5.618,6.955c0.469,0.582,0.836,0.969,1.103,1.157c0.264,0.191,0.591,0.306,0.979,0.345v0.412h-6.412v-0.412
			c0.648-0.148,0.973-0.371,0.973-0.671c0-0.166-0.097-0.366-0.292-0.602l-4.395-5.48v4.607c0,0.684,0.096,1.153,0.287,1.409
			c0.193,0.256,0.684,0.501,1.47,0.736v0.412h-6.632v-0.412c0.741-0.173,1.224-0.393,1.446-0.66
			c0.224-0.267,0.334-0.729,0.334-1.391v-9.263c0-0.646-0.115-1.093-0.347-1.345c-0.229-0.252-0.708-0.463-1.434-0.636v-0.413h6.632
			v0.413c-0.683,0.155-1.147,0.371-1.39,0.644c-0.247,0.271-0.366,0.657-0.366,1.159v4.185l4.323-4.184
			c0.29-0.275,0.436-0.547,0.436-0.814c0-0.453-0.436-0.785-1.302-0.989v-0.413h5.836v0.413c-0.657,0-1.303,0.175-1.94,0.523
			C142.006,194.465,141.235,195.076,140.329,195.944 M171.151,198.045h0.442v4.373h-0.442c-0.158-1.201-0.786-1.804-1.882-1.804
			h-2.393v4.148c0,0.639,0.14,1.085,0.417,1.345c0.28,0.259,0.759,0.388,1.437,0.388h0.795c1.327,0,2.277-0.877,2.85-2.626h0.396
			l-0.248,3.428h-10.342v-0.412c0.683-0.148,1.138-0.362,1.362-0.642c0.227-0.279,0.337-0.821,0.337-1.621v-9.073
			c0-0.661-0.115-1.119-0.348-1.375c-0.234-0.256-0.684-0.449-1.352-0.583v-0.413h10.183v3.136h-0.396
			c-0.229-0.919-0.512-1.536-0.845-1.856c-0.339-0.319-0.876-0.479-1.616-0.479h-2.632v5.837h2.393c0.543,0,0.959-0.134,1.247-0.403
			C170.805,199.141,171.014,198.688,171.151,198.045 M198.615,206.011v0.405h-6.72v-0.405c0.705-0.131,1.181-0.33,1.424-0.599
			c0.249-0.271,0.37-0.763,0.37-1.479v-10.564h-1.433c-0.866,0-1.552,0.183-2.057,0.545c-0.504,0.36-0.88,0.934-1.125,1.72h-0.419
			l0.143-3.337h0.443c0.311,0.191,0.78,0.288,1.408,0.288h9.245c0.646,0,1.115-0.097,1.41-0.288h0.442l0.146,3.337h-0.418
			c-0.249-0.786-0.624-1.359-1.129-1.72c-0.507-0.363-1.19-0.545-2.057-0.545h-1.431v10.588c0,0.678,0.123,1.16,0.368,1.449
			C197.476,205.694,197.938,205.895,198.615,206.011 M224.837,193.178v0.413c-0.643,0.157-1.075,0.367-1.302,0.631
			c-0.225,0.262-0.334,0.806-0.334,1.633v9.052c0,0.635,0.104,1.08,0.313,1.33c0.21,0.253,0.65,0.468,1.322,0.648v0.412h-6.177
			v-0.412c0.464-0.124,0.813-0.263,1.041-0.413c0.229-0.148,0.391-0.337,0.481-0.564c0.09-0.229,0.136-0.664,0.136-1.309v-9.027
			c0-0.637-0.108-1.083-0.323-1.337c-0.213-0.258-0.659-0.47-1.335-0.644v-0.413H224.837L224.837,193.178z M251.993,193.586v-0.407
			h4.613v0.407c-1.324,0.079-1.985,0.842-1.985,2.285v11.426h-0.449l-9.839-11.312v8.53c0,0.746,0.132,1.267,0.397,1.565
			c0.267,0.299,0.805,0.514,1.61,0.646v0.408h-4.715v-0.408c0.64-0.101,1.099-0.324,1.375-0.671c0.278-0.343,0.419-0.881,0.419-1.61
			v-9.473c-0.533-0.559-0.901-0.915-1.103-1.07c-0.211-0.159-0.454-0.269-0.714-0.317v-0.407h4.109l7.994,9.356v-6.28
			c0-0.924-0.12-1.562-0.357-1.916C253.11,193.985,252.659,193.735,251.993,193.586 M286.664,192.335v3.85h-0.424
			c-0.407-1.046-1.036-1.878-1.885-2.497c-0.815-0.607-1.808-0.933-2.824-0.927c-1.39,0-2.465,0.591-3.225,1.774
			c-0.761,1.186-1.141,2.851-1.141,5.007c0,1.987,0.378,3.497,1.134,4.536c0.756,1.038,1.849,1.559,3.276,1.559
			c1.376,0,2.063-0.488,2.063-1.455v-2.04c0-0.939-0.47-1.5-1.407-1.684v-0.4h5.772v0.4c-0.505,0.137-0.854,0.356-1.048,0.659
			c-0.195,0.301-0.292,0.769-0.292,1.402v2.91c-1.375,0.658-3.151,0.986-5.327,0.986c-1.452,0-2.739-0.302-3.863-0.906
			c-1.106-0.588-2.022-1.479-2.639-2.571c-0.637-1.106-0.967-2.362-0.956-3.639c0-2.099,0.706-3.843,2.117-5.235
			c1.414-1.389,3.192-2.082,5.341-2.082c0.847,0,1.771,0.176,2.772,0.536c0.526,0.191,0.907,0.287,1.146,0.287
			c0.351,0,0.68-0.157,0.985-0.471H286.664L286.664,192.335z"/>
	</g>
	<g>
		<path fill="#CF202F" d="M162.183,25.6c-25.253,0-45.798,20.545-45.798,45.799c0,25.252,20.545,45.797,45.798,45.797
			c25.253,0,45.797-20.545,45.797-45.798S187.436,25.6,162.183,25.6 M162.183,120.816c-27.25,0-49.418-22.169-49.418-49.417
			c0-27.25,22.168-49.418,49.418-49.418c27.249,0,49.417,22.169,49.417,49.418C211.6,98.647,189.432,120.816,162.183,120.816"/>
		<path fill="#CF202F" d="M151.206,66.104h-11.968v-0.591c1.033-0.214,1.705-0.523,2.019-0.924c0.313-0.401,0.469-1.042,0.469-1.922
			V49.18c0-0.925-0.173-1.586-0.521-1.975c-0.345-0.391-1.002-0.658-1.968-0.804v-0.593h10.475c2.143,0,3.818,0.416,5.023,1.244
			c1.203,0.831,1.806,2.002,1.806,3.516c0,2.349-1.47,3.943-4.413,4.779v0.068c3.759,0.699,5.64,2.484,5.64,5.354
			c0,1.592-0.596,2.879-1.791,3.862C154.787,65.614,153.194,66.104,151.206,66.104z M146.107,46.959v8.15h1.608
			c1.271,0,2.267-0.363,2.986-1.084c0.72-0.723,1.081-1.729,1.081-3.016c0-2.7-1.461-4.05-4.381-4.05H146.107L146.107,46.959z
			 M148.463,56.243h-2.355v6.218c0,0.905,0.219,1.545,0.664,1.923c0.441,0.378,1.182,0.566,2.223,0.566
			c1.248,0,2.23-0.381,2.944-1.142c0.712-0.764,1.072-1.816,1.072-3.161c0-1.332-0.403-2.399-1.204-3.201
			S149.889,56.242,148.463,56.243L148.463,56.243z M186.029,81.106v0.591c-0.82,0.149-1.414,0.411-1.785,0.788
			c-0.37,0.379-0.557,0.919-0.557,1.621c-0.003,0.257,0.015,0.553,0.061,0.878l1.824,12.673c0.136,0.926,0.446,1.638,0.937,2.134
			c0.489,0.498,1.203,0.836,2.147,1.017v0.593h-9.969v-0.593c0.83-0.213,1.425-0.547,1.785-0.999
			c0.358-0.452,0.538-1.102,0.538-1.949c0-0.417-0.039-0.925-0.117-1.525l-1.65-11.589l-6.639,16.656h-0.718l-6.551-16.656
			l-1.751,11.928c-0.064,0.426-0.098,0.856-0.102,1.288c0,1.774,0.825,2.723,2.475,2.846v0.593h-7.305v-0.593
			c1.064-0.044,1.868-0.403,2.406-1.076c0.54-0.672,0.931-1.804,1.178-3.397l1.991-13.25c-0.854-0.889-1.834-1.354-2.934-1.388
			v-0.591h7.299l5.264,13.381l5.334-13.381H186.029L186.029,81.106z M139.149,96.107l-2.558-2.564l47.741-48.618l2.559,2.564
			L139.149,96.107z"/>
	</g>
</g>
</svg>
