<?xml version="1.0" encoding="UTF-8"?>
<svg width="161px" height="45px" viewBox="0 0 161 45" version="1.1" xmlns="http://www.w3.org/2000/svg" xmlns:xlink="http://www.w3.org/1999/xlink">
    <!-- Generator: Sketch 49.1 (51147) - http://www.bohemiancoding.com/sketch -->
    <title>payce_block_pms_Landscape</title>
    <desc>Created with Sketch.</desc>
    <defs></defs>
    <g id="Symbols" stroke="none" stroke-width="1" fill="none" fill-rule="evenodd">
        <g id="payce_block_pms_Landscape">
            <g>
                <polygon id="Fill-1" fill="#D0232B" points="0 45 160.583 45 160.583 0.133 0 0.133"></polygon>
                <path d="M24.102,11.501 L11.48,11.501 L11.48,33.692 L16.351,33.692 L16.351,25.097 L24.693,25.097 C29.987,25.097 33.586,22.257 33.586,18.171 C33.586,14.255 30.07,11.501 24.102,11.501 M25.115,21.077 L16.351,21.077 L16.351,15.483 L25.115,15.483 C27.703,15.483 28.843,16.704 28.843,18.257 C28.843,19.812 27.703,21.077 25.115,21.077" id="Fill-3" fill="#FFFFFE"></path>
                <path d="M49.105,11.501 L38.267,33.692 L43.599,33.652 L46.227,27.977 L56.219,27.977 L58.849,33.652 L64.184,33.692 L53.341,11.501 L49.105,11.501 Z M47.876,24.038 L51.264,17.156 L54.439,24.038 L47.876,24.038 Z" id="Fill-4" fill="#FFFFFE"></path>
                <path d="M79.491,18.745 C79.533,18.745 73.856,11.458 73.856,11.458 L68.184,11.458 L77.033,22.851 L77.033,33.692 L81.987,33.692 L81.987,22.851 L90.84,11.458 L85.166,11.458 L79.491,18.745" id="Fill-5" fill="#FFFFFE"></path>
                <path d="M109.322,30.008 C104.156,30.008 100.683,26.865 100.683,22.279 C100.683,18.032 104.156,15.102 109.193,15.059 C113.516,15.018 117.625,17.649 117.625,17.649 L119.782,14.382 C119.782,14.382 115.127,11.076 109.322,10.952 C101.062,10.781 95.898,15.996 95.898,22.533 C95.898,29.029 101.232,34.115 108.771,34.115 C116.057,34.115 120.675,30.008 120.675,30.008 L118.555,26.819 C118.555,26.819 114.064,30.008 109.322,30.008" id="Fill-6" fill="#FFFFFE"></path>
                <path d="M133.15,20.51 L133.15,15.369 L149.201,15.369 L149.201,11.43 L128.279,11.43 L128.279,33.581 C128.279,33.581 149.201,33.662 149.201,33.621 L149.201,29.61 L133.15,29.61 L133.15,24.449 L133.146,24.449 L133.146,20.51 L133.15,20.51" id="Fill-7" fill="#FFFFFE"></path>
                <polyline id="Fill-8" fill="#FFFFFE" points="145.889 24.476 138.01 24.476 138.01 20.484 145.889 20.484 148.735 22.48 145.889 24.476"></polyline>
                <path d="M155.267,11.232 C154.07,11.232 153.096,12.205 153.096,13.403 C153.096,14.6 154.07,15.575 155.267,15.575 C156.466,15.575 157.44,14.6 157.44,13.403 C157.44,12.205 156.466,11.232 155.267,11.232 Z M155.267,15.827 C153.932,15.827 152.844,14.739 152.844,13.403 C152.844,12.067 153.932,10.98 155.267,10.98 C156.605,10.98 157.692,12.067 157.692,13.403 C157.692,14.739 156.605,15.827 155.267,15.827 Z" id="Fill-9" fill="#FFFFFE"></path>
                <path d="M155.008,13.491 L155.465,13.491 C155.728,13.493 155.849,13.378 155.849,13.169 C155.849,12.961 155.728,12.847 155.465,12.847 L155.008,12.847 L155.008,13.491 Z M154.775,12.651 L155.544,12.651 C155.892,12.651 156.082,12.844 156.082,13.169 C156.082,13.493 155.892,13.69 155.544,13.688 L155.008,13.688 L155.008,14.405 L154.775,14.405 L154.775,12.651 Z" id="Fill-10" fill="#FFFFFE"></path>
            </g>
        </g>
    </g>
</svg>