<?xml version="1.0" encoding="UTF-8"?>
<svg width="1191px" height="154px" viewBox="0 0 1191 154" version="1.1" xmlns="http://www.w3.org/2000/svg" xmlns:xlink="http://www.w3.org/1999/xlink">
    <!-- Generator: Sketch 49.1 (51147) - http://www.bohemiancoding.com/sketch -->
    <title>Page 1</title>
    <desc>Created with Sketch.</desc>
    <defs></defs>
    <g id="Symbols" stroke="none" stroke-width="1" fill="none" fill-rule="evenodd">
        <g id="MelroseLogo/white" transform="translate(-1.000000, 0.000000)" fill="#FFFFFF">
            <g id="Page-1">
                <path d="M79.0115,85.5759 C77.4975,87.4089 75.0195,87.4089 73.5055,85.5759 L3.7535,1.1379 C2.2395,-0.6951 0.9995,-0.2491 0.9995,2.1279 L0.9995,145.6829 C0.9995,148.0609 2.9455,150.0069 5.3235,150.0069 L22.6835,150.0069 C25.0615,150.0069 27.0065,148.0609 27.0065,145.6829 L27.0065,70.8249 C27.0065,68.4469 28.2405,68.0059 29.7485,69.8449 L73.5165,123.1959 C75.0245,125.0339 77.4925,125.0339 79.0005,123.1959 L122.7685,69.8449 C124.2765,68.0059 125.5105,68.4469 125.5105,70.8249 L125.5105,145.6829 C125.5105,148.0609 127.4555,150.0069 129.8335,150.0069 L147.1945,150.0069 C149.5725,150.0069 151.5175,148.0609 151.5175,145.6829 L151.5175,2.1199 C151.5175,-0.2581 150.2785,-0.7031 148.7645,1.1299 L79.0115,85.5759 Z" id="Fill-1"></path>
                <path d="M220.4143,40.9216 C204.3453,40.9216 191.0313,45.9896 180.6693,56.3516 C170.3163,66.4966 165.2393,80.0266 165.2393,96.7276 L165.2393,97.7886 C165.2393,114.4876 170.3163,128.0186 180.6693,138.1636 C191.0313,148.1026 204.7763,153.1706 221.4683,153.1706 C236.9303,153.1706 249.7673,149.7576 260.0093,142.9296 C260.5043,142.6006 260.7973,142.0336 260.7973,141.4396 L260.7973,122.4086 C260.7973,120.9416 259.1363,120.2026 257.9703,121.0936 C249.2933,127.7326 237.5323,130.9796 222.5293,130.9796 C204.4393,130.9796 192.2083,121.0096 190.5483,105.2066 C190.4413,104.1896 191.2893,103.2796 192.3123,103.2796 L271.9893,103.2796 C272.2043,100.5346 272.4203,97.3646 272.4203,94.1956 C272.4203,79.1816 267.5593,66.4966 257.8283,56.3516 C248.3213,45.9896 235.8443,40.9216 220.4143,40.9216 Z M192.9933,85.3196 C191.9523,85.3196 191.0863,84.3896 191.2473,83.3596 C192.1043,77.8746 195.0133,73.2166 200.1223,69.2426 C205.8303,64.8136 212.5993,62.4826 220.4143,62.4826 C227.8143,62.4826 233.9443,64.8136 239.0213,69.2426 C243.5713,73.2276 246.0823,78.0676 246.5493,83.4566 C246.6353,84.4546 245.7763,85.3196 244.7743,85.3196 L192.9933,85.3196 Z" id="Fill-4"></path>
                <path d="M286.1931,145.6794 C286.1931,148.0574 288.1381,150.0024 290.5161,150.0024 L307.2471,150.0024 C309.6241,150.0024 311.5691,148.0574 311.5691,145.6794 L311.5691,6.9774 C311.5691,4.5994 309.6241,2.6544 307.2471,2.6544 L290.5161,2.6544 C288.1381,2.6544 286.1931,4.5994 286.1931,6.9774 L286.1931,145.6794 Z" id="Fill-6"></path>
                <path d="M452.0359,40.2859 C435.7599,40.2859 422.0139,45.7779 410.8139,56.5699 C399.6069,67.3469 393.8989,80.8769 393.8989,96.7299 C393.8989,112.5829 399.6069,126.1129 410.8139,136.8899 C422.0139,147.6749 435.7599,153.1739 452.0359,153.1739 C468.3199,153.1739 482.0499,147.6749 493.2569,136.8899 C504.4559,126.1129 510.1719,112.5829 510.1719,96.7299 C510.1719,80.8769 504.4559,67.3469 493.2569,56.5699 C482.0499,45.7779 468.3199,40.2859 452.0359,40.2859 M475.4959,120.6219 C469.1579,126.9599 461.3349,130.1289 452.0359,130.1289 C442.5209,130.1289 434.6979,126.9599 428.3599,120.6219 C422.2289,114.0679 419.0599,106.2449 419.0599,96.7299 C419.0599,87.2149 422.2289,79.3919 428.3599,73.0549 C434.6979,66.5009 442.5209,63.3319 452.0359,63.3319 C461.3349,63.3319 469.1579,66.5009 475.4959,73.0549 C481.8419,79.3919 485.0109,87.2149 485.0109,96.7299 C485.0109,106.2449 481.8419,114.0679 475.4959,120.6219" id="Fill-8"></path>
                <path d="M588.1272,96.5173 C584.1122,93.7713 580.3042,91.4493 577.1352,89.9633 C573.9662,88.4873 569.3132,86.3713 563.1822,84.0493 C560.0132,82.7723 556.4212,81.5103 553.8822,80.6643 C551.5512,79.6033 551.1362,79.1793 549.4442,78.3413 C546.6982,76.6493 545.2132,74.5343 545.2132,71.5723 C545.2132,65.4423 550.2902,62.4803 560.6512,62.4803 C569.5882,62.4803 578.0142,64.7103 585.7722,69.0023 C586.9302,69.6433 588.3352,68.8713 588.3352,67.5483 L588.3352,48.4773 C588.3352,47.8563 588.0172,47.2663 587.4852,46.9463 C580.0232,42.4443 570.7842,40.2883 559.5902,40.2883 C548.5982,40.2883 539.5062,43.0353 532.1062,48.5273 C524.9222,54.0273 521.3222,61.6343 521.3222,71.1493 C521.3222,84.4643 528.9372,94.6103 543.9442,101.1713 C548.8052,103.0633 557.6902,106.6633 561.9132,108.5633 C564.2352,109.4093 566.3512,110.4713 568.6742,111.7403 C573.5432,114.2703 575.4432,117.0243 575.4432,120.4013 C575.4432,126.9543 568.6742,130.5543 557.4742,130.5543 C543.0272,130.5543 530.6812,126.6903 520.7692,118.8083 C519.6192,117.8943 517.9452,118.6343 517.9452,120.1033 L517.9452,140.3723 C517.9452,140.9693 518.2482,141.5383 518.7452,141.8673 C529.7582,149.1243 542.4002,152.7533 557.0512,152.7533 C571.6432,152.7533 582.4192,149.5773 589.3962,143.2313 C596.3732,136.6853 599.9652,129.0703 599.9652,119.9783 C599.9652,109.6243 596.5812,102.2253 588.1272,96.5173" id="Fill-10"></path>
                <path d="M663.6316,40.9216 C647.5626,40.9216 634.2476,45.9896 623.8866,56.3516 C613.5326,66.4966 608.4566,80.0266 608.4566,96.7276 L608.4566,97.7886 C608.4566,114.4876 613.5326,128.0186 623.8866,138.1636 C634.2476,148.1026 647.9936,153.1706 664.6936,153.1706 C680.1476,153.1706 692.9916,149.7576 703.2276,142.9306 C703.7216,142.6006 704.0146,142.0336 704.0146,141.4396 L704.0146,122.4086 C704.0146,120.9416 702.3536,120.2026 701.1876,121.0946 C692.5106,127.7326 680.7486,130.9796 665.7466,130.9796 C647.6556,130.9796 635.4256,121.0096 633.7656,105.2066 C633.6586,104.1896 634.5056,103.2796 635.5286,103.2796 L715.2056,103.2796 C715.4216,100.5346 715.6366,97.3646 715.6366,94.1956 C715.6366,79.1816 710.7756,66.4966 701.0446,56.3516 C691.5376,45.9896 679.0616,40.9216 663.6316,40.9216 Z M636.2106,85.3196 C635.1686,85.3196 634.3036,84.3896 634.4646,83.3596 C635.3206,77.8746 638.2306,73.2166 643.3396,69.2426 C649.0476,64.8136 655.8166,62.4826 663.6316,62.4826 C671.0306,62.4826 677.1616,64.8136 682.2376,69.2426 C686.7886,73.2276 689.2996,78.0676 689.7666,83.4566 C689.8526,84.4546 688.9936,85.3196 687.9906,85.3196 L636.2106,85.3196 Z" id="Fill-12"></path>
                <path d="M971.6462,58.8904 C968.0622,48.5294 955.1632,41.1294 937.6172,41.1294 C922.6022,41.1294 909.9262,46.4224 899.5652,57.1984 C889.4192,67.7674 884.3422,80.8744 884.3422,96.7274 C884.3422,112.5804 889.4192,125.6884 899.5652,136.4724 C909.9262,147.0404 922.6022,152.3264 937.6172,152.3264 C955.1632,152.3264 968.0622,144.9254 971.6462,134.5644 L971.6462,148.2734 C971.6462,149.2284 972.4202,150.0024 973.3752,150.0024 L995.2862,150.0024 C996.2412,150.0024 997.0142,149.2284 997.0142,148.2734 L997.0142,45.1904 C997.0142,44.2354 996.2412,43.4604 995.2862,43.4604 L973.3752,43.4604 C972.4202,43.4604 971.6462,44.2354 971.6462,45.1904 L971.6462,58.8904 Z M964.0312,119.9804 C957.9092,126.1114 950.0852,129.2874 941.0012,129.2874 C931.9022,129.2874 924.5102,126.1114 918.3722,119.9804 C912.4572,113.8504 909.5022,106.0274 909.5022,96.7274 C909.5022,87.4284 912.4572,79.6054 918.3722,73.4744 C924.5102,67.3444 931.9022,64.1754 941.0012,64.1754 C950.0852,64.1754 957.9092,67.3444 964.0312,73.4744 C970.3852,79.6054 973.5542,87.4284 973.5542,96.7274 C973.5542,106.0274 970.3852,113.8504 964.0312,119.9804 Z" id="Fill-14"></path>
                <path d="M1040.1248,59.3103 L1040.1248,47.7793 C1040.1248,45.4023 1038.1798,43.4563 1035.8028,43.4563 L1019.2958,43.4563 C1016.9178,43.4563 1014.9728,45.4023 1014.9728,47.7793 L1014.9728,145.6753 C1014.9728,148.0533 1016.9178,149.9983 1019.2958,149.9983 L1035.8028,149.9983 C1038.1798,149.9983 1040.1248,148.0533 1040.1248,145.6753 L1040.1248,93.9773 C1040.1248,76.4323 1051.3328,66.5013 1068.8778,66.5013 C1073.5878,66.5013 1074.2138,66.5683 1074.2138,66.5683 C1076.5778,66.8173 1078.5128,65.0763 1078.5128,62.6983 L1078.5128,46.1833 C1078.5128,43.8053 1076.8498,41.6303 1074.8168,41.3493 L1071.8318,41.3493 C1056.8238,41.3493 1045.2018,48.1103 1040.1248,59.3103" id="Fill-16"></path>
                <path d="M354.68,59.3103 L354.68,47.7793 C354.68,45.4023 352.735,43.4563 350.357,43.4563 L333.85,43.4563 C331.472,43.4563 329.527,45.4023 329.527,47.7793 L329.527,145.6753 C329.527,148.0533 331.472,149.9983 333.85,149.9983 L350.357,149.9983 C352.735,149.9983 354.68,148.0533 354.68,145.6753 L354.68,93.9773 C354.68,76.4323 365.879,66.5013 383.433,66.5013 C388.142,66.5013 388.768,66.5683 388.768,66.5683 C391.133,66.8173 393.068,65.0763 393.068,62.6983 L393.068,46.1833 C393.068,43.8053 391.405,41.6303 389.371,41.3493 L386.386,41.3493 C371.379,41.3493 359.749,48.1103 354.68,59.3103" id="Fill-18"></path>
                <path d="M1189.033,146.4246 L1152.084,92.1236 C1151.623,91.4456 1151.174,90.8366 1150.768,90.3256 C1149.76,88.9406 1149.398,88.6606 1149.398,88.6606 C1149.501,88.5186 1149.676,88.2896 1149.91,87.9916 C1149.952,87.9396 1149.996,87.8846 1150.041,87.8266 C1150.082,87.7756 1150.121,87.7256 1150.166,87.6696 C1150.294,87.5096 1150.431,87.3376 1150.58,87.1536 C1150.582,87.1526 1150.583,87.1506 1150.585,87.1486 C1150.728,86.9706 1150.882,86.7806 1151.042,86.5856 C1151.06,86.5626 1151.079,86.5396 1151.098,86.5166 C1151.264,86.3126 1151.437,86.1016 1151.617,85.8826 L1183.792,46.7946 C1185.303,44.9586 1184.594,43.4566 1182.217,43.4566 L1158.277,43.4566 C1155.9,43.4566 1152.719,44.9586 1151.208,46.7946 L1118.561,86.4566 C1117.051,88.2926 1115.814,88.5916 1115.814,87.1206 L1115.814,80.1236 L1115.814,75.7416 L1115.814,67.0966 L1115.814,6.9816 C1115.814,4.6036 1113.869,2.6576 1111.492,2.6576 L1094.985,2.6576 C1092.607,2.6576 1090.662,4.6036 1090.662,6.9816 L1090.662,39.1336 L1090.662,47.7786 L1090.662,76.7466 L1090.662,85.3936 L1090.662,108.0706 L1090.662,116.3806 L1090.662,124.6906 L1090.662,145.6836 C1090.662,148.0616 1092.503,150.0066 1094.753,150.0066 C1098.104,150.0066 1099.658,149.0176 1101.591,146.6686 L1102.223,145.9006 C1102.227,145.8946 1102.231,145.8896 1102.236,145.8846 L1103.092,144.8456 C1104.063,143.6636 1105.415,142.0226 1107.014,140.0766 L1108.51,138.2606 C1108.864,137.8296 1109.225,137.3906 1109.595,136.9416 L1110.645,135.6646 C1112.609,133.2786 1114.718,130.7166 1116.803,128.1826 L1119.779,124.5656 C1120.228,124.0196 1120.671,123.4816 1121.106,122.9516 L1121.816,122.0896 C1122.505,121.2526 1123.172,120.4426 1123.807,119.6706 L1123.933,119.5176 C1125.565,117.5326 1126.975,115.8206 1128.046,114.5196 L1129.989,112.1576 C1130.079,112.0486 1130.142,111.9716 1130.142,111.9716 C1130.709,111.2826 1131.39,110.8676 1132.093,110.7216 C1132.559,110.6236 1133.036,110.6456 1133.493,110.7846 C1134.179,110.9946 1134.819,111.4706 1135.321,112.2076 L1158.604,146.4326 C1159.941,148.3986 1162.98,150.0066 1165.358,150.0066 L1187.141,150.0066 C1189.519,150.0066 1191.465,150.0046 1191.465,150.0026 C1191.465,150.0006 1190.37,148.3906 1189.033,146.4246" id="Fill-22"></path>
                <path d="M867.0906,15.9763 C857.3676,7.0913 837.9406,3.4503 837.9406,3.4503 C835.6036,3.0113 831.7466,2.6533 829.3686,2.6533 L781.7776,2.6533 C779.4006,2.6533 777.4546,4.5983 777.4546,6.9763 L777.4546,145.6793 C777.4546,148.0563 779.4006,150.0013 781.7776,150.0013 L799.5626,150.0013 C801.9406,150.0013 803.8856,148.0563 803.8856,145.6793 L803.8856,107.6033 C803.8856,105.2253 805.8306,103.2803 808.2076,103.2803 L833.6926,103.2803 C846.3756,103.2803 857.5826,98.8423 867.0906,89.7493 C876.8136,80.6653 881.6826,66.8163 881.6826,53.0713 C881.6826,38.9103 876.8136,24.8523 867.0906,15.9763 M832.4226,79.3973 L808.2076,79.3973 C805.8306,79.3973 803.8856,78.3013 803.8856,76.9623 L803.8856,70.2053 L803.8856,30.8683 C803.8856,28.4903 805.8306,26.5443 808.2076,26.5443 L832.4226,26.5443 C844.2606,26.5443 855.4676,37.6483 855.4676,53.0713 C855.4676,68.2933 844.2606,79.3973 832.4226,79.3973" id="Fill-20"></path>
            </g>
        </g>
    </g>
</svg>