<?xml version="1.0" encoding="UTF-8"?>
<svg width="202px" height="252px" viewBox="0 0 202 252" version="1.1" xmlns="http://www.w3.org/2000/svg" xmlns:xlink="http://www.w3.org/1999/xlink">
    <!-- Generator: Sketch 49.1 (51147) - http://www.bohemiancoding.com/sketch -->
    <title>Group</title>
    <desc>Created with Sketch.</desc>
    <defs></defs>
    <g id="Page-1" stroke="none" stroke-width="1" fill="none" fill-rule="evenodd">
        <g id="Melrose_Park_White" transform="translate(-164.000000, 0.000000)" fill="#FFFFFF" fill-rule="nonzero">
            <g id="Group">
                <g transform="translate(163.911029, 0.000000)" id="Shape">
                    <path d="M44.7544135,53.874075 C44.2213746,53.3480414 43.425353,53.1938861 42.735078,53.4830161 C42.044803,53.7721461 41.5950988,54.4480887 41.5942753,55.197737 L41.5942753,146.124779 C41.5950717,147.150773 42.4249533,147.982308 43.4489109,147.983108 L50.9477695,147.983108 C51.9717279,147.982308 52.8016107,147.150774 52.8024095,146.124779 L52.8024095,77.6092929 L81.7461823,106.21873 C82.1810017,106.648232 82.8307215,106.77405 83.3939482,106.537817 C83.9571748,106.301585 84.3237027,105.749525 84.323506,105.13773 L84.323506,93.7645349 C84.3253483,93.2673151 84.1274388,92.7902664 83.7743686,92.4408728 L44.7544135,53.874075 Z"></path>
                    <path d="M171.035674,29.426401 C151.710088,10.6205475 125.828123,0.105830776 98.8886444,0.11619995 L97.0521365,0.11619995 C96.0281772,0.11699795 95.198293,0.948532988 95.1974965,1.97452913 L95.1974965,250.004311 C95.1982954,251.030306 96.0281782,251.86184 97.0521365,251.862641 L104.550995,251.862641 C105.574953,251.86184 106.404834,251.030306 106.405631,250.004311 L106.405631,201.713729 C159.846301,198.66619 201.590723,154.298016 201.479215,100.664507 C201.391146,73.7434008 190.579322,48.4444372 171.035674,29.426401 Z M190.271081,100.995409 C190.271081,148.260806 153.44768,187.524484 106.405631,190.45213 L106.405631,11.5374059 C153.44768,14.4650516 190.271081,53.7300302 190.271081,100.995423 L190.271081,100.995409 Z"></path>
                    <path d="M82.8470486,188.804047 C41.2525761,180.215546 11.38926,143.548319 11.332051,100.995423 L11.332051,97.2385574 C11.3312521,96.2125622 10.5013693,95.3810286 9.47741099,95.3802282 L1.97855231,95.3802282 C0.954593999,95.3810286 0.124711164,96.2125622 0.123912308,97.2385574 L0.123912308,100.995441 C0.188536456,149.463765 34.5979463,191.056124 82.1191817,200.107188 C82.231987,200.127847 82.3464217,200.138272 82.4610957,200.138336 C82.8918311,200.137986 83.3088362,199.986464 83.6396736,199.71009 C84.0724682,199.354232 84.3233926,198.822812 84.323506,198.261838 L84.323506,190.605275 C84.3256833,189.727941 83.7063707,188.972401 82.8470486,188.804047 Z"></path>
                    <path d="M156.908809,53.5370881 C157.445225,53.0090765 158.246291,52.8543415 158.94094,53.1445587 C159.635589,53.434776 160.088143,54.1132603 160.088971,54.8657275 L160.088971,146.134683 C160.088167,147.164536 159.253026,147.999197 158.222579,148 L150.676209,148 C149.645761,147.999199 148.810619,147.164537 148.809817,146.134683 L148.809817,77.3615577 L119.682643,106.078575 C119.245069,106.509696 118.59123,106.635988 118.024433,106.398867 C117.457635,106.161745 117.088784,105.607608 117.088984,104.99351 L117.088984,93.5775483 C117.08713,93.0784589 117.286294,92.5996163 117.641601,92.2489089 L156.908809,53.5370881 Z"></path>
                </g>
            </g>
        </g>
    </g>
</svg>