<svg width="1191" height="154" xmlns="http://www.w3.org/2000/svg"><g fill="#FFF" fill-rule="evenodd"><path d="M78.011 85.576c-1.513 1.833-3.992 1.833-5.505 0L2.754 1.138C1.24-.695 0-.25 0 2.128v143.555a4.337 4.337 0 0 0 4.324 4.324h17.36a4.336 4.336 0 0 0 4.322-4.324V70.825c0-2.378 1.235-2.82 2.742-.98l43.768 53.35c1.508 1.839 3.977 1.839 5.484 0l43.769-53.35c1.507-1.84 2.741-1.398 2.741.98v74.858a4.336 4.336 0 0 0 4.323 4.324h17.362a4.336 4.336 0 0 0 4.323-4.324V2.12c0-2.378-1.24-2.823-2.754-.99L78.011 85.576zM219.414 40.922c-16.069 0-29.383 5.068-39.745 15.43-10.353 10.145-15.43 23.675-15.43 40.376v1.06c0 16.7 5.077 30.23 15.43 40.376 10.362 9.939 24.107 15.007 40.8 15.007 15.461 0 28.298-3.413 38.54-10.241.495-.33.788-.896.788-1.49v-19.031c0-1.467-1.66-2.206-2.827-1.315-8.677 6.639-20.438 9.886-35.44 9.886-18.09 0-30.322-9.97-31.982-25.773-.107-1.017.741-1.927 1.764-1.927h79.677c.215-2.745.431-5.915.431-9.084 0-15.014-4.86-27.7-14.592-37.844-9.507-10.362-21.984-15.43-37.414-15.43zm-27.42 44.398c-1.042 0-1.908-.93-1.747-1.96.857-5.485 3.766-10.143 8.875-14.117 5.708-4.43 12.477-6.76 20.292-6.76 7.4 0 13.53 2.33 18.607 6.76 4.55 3.985 7.061 8.825 7.528 14.214.086.998-.773 1.863-1.775 1.863h-51.78zM285.193 145.68a4.335 4.335 0 0 0 4.323 4.322h16.731a4.335 4.335 0 0 0 4.322-4.323V6.977a4.335 4.335 0 0 0-4.322-4.323h-16.73a4.335 4.335 0 0 0-4.324 4.323V145.68zM451.036 40.286c-16.276 0-30.022 5.492-41.222 16.284-11.207 10.777-16.915 24.307-16.915 40.16 0 15.853 5.708 29.383 16.915 40.16 11.2 10.785 24.946 16.284 41.222 16.284 16.284 0 30.014-5.5 41.22-16.284 11.2-10.777 16.916-24.307 16.916-40.16 0-15.853-5.716-29.383-16.915-40.16-11.207-10.792-24.937-16.284-41.221-16.284m23.46 80.336c-6.338 6.338-14.161 9.507-23.46 9.507-9.515 0-17.338-3.17-23.676-9.507-6.131-6.554-9.3-14.377-9.3-23.892 0-9.515 3.169-17.338 9.3-23.675 6.338-6.554 14.16-9.723 23.676-9.723 9.299 0 17.122 3.169 23.46 9.723 6.346 6.337 9.515 14.16 9.515 23.675s-3.17 17.338-9.515 23.892M587.127 96.517c-4.015-2.746-7.823-5.068-10.992-6.554-3.169-1.476-7.822-3.592-13.953-5.914-3.169-1.277-6.76-2.539-9.3-3.385-2.33-1.06-2.746-1.485-4.438-2.323-2.746-1.692-4.23-3.807-4.23-6.769 0-6.13 5.076-9.092 15.437-9.092 8.937 0 17.363 2.23 25.121 6.522 1.158.641 2.563-.13 2.563-1.454v-19.07c0-.622-.318-1.212-.85-1.532-7.462-4.502-16.7-6.658-27.895-6.658-10.992 0-20.084 2.747-27.484 8.24-7.184 5.5-10.784 13.106-10.784 22.621 0 13.315 7.615 23.461 22.622 30.022 4.861 1.892 13.746 5.492 17.97 7.392 2.321.846 4.437 1.908 6.76 3.177 4.87 2.53 6.77 5.284 6.77 8.661 0 6.553-6.77 10.153-17.97 10.153-14.447 0-26.793-3.864-36.705-11.746-1.15-.914-2.824-.174-2.824 1.295v20.27c0 .596.303 1.165.8 1.494 11.013 7.257 23.655 10.886 38.306 10.886 14.592 0 25.368-3.176 32.345-9.522 6.977-6.546 10.57-14.16 10.57-23.253 0-10.354-3.385-17.753-11.839-23.46M662.632 40.922c-16.07 0-29.384 5.068-39.745 15.43-10.354 10.145-15.43 23.675-15.43 40.376v1.06c0 16.7 5.076 30.23 15.43 40.376 10.36 9.939 24.107 15.007 40.807 15.007 15.454 0 28.298-3.413 38.534-10.24.494-.33.787-.897.787-1.491v-19.031c0-1.467-1.661-2.206-2.827-1.314-8.677 6.638-20.44 9.885-35.441 9.885-18.091 0-30.321-9.97-31.981-25.773-.107-1.017.74-1.927 1.763-1.927h79.677c.216-2.745.43-5.915.43-9.084 0-15.014-4.86-27.7-14.591-37.844-9.507-10.362-21.983-15.43-37.413-15.43zM635.21 85.32c-1.042 0-1.907-.93-1.746-1.96.856-5.485 3.766-10.143 8.875-14.117 5.708-4.43 12.477-6.76 20.292-6.76 7.399 0 13.53 2.33 18.606 6.76 4.55 3.985 7.062 8.825 7.529 14.214.086.998-.773 1.863-1.776 1.863h-51.78zM970.646 58.89c-3.584-10.36-16.483-17.76-34.029-17.76-15.015 0-27.69 5.292-38.052 16.068-10.146 10.57-15.223 23.676-15.223 39.53 0 15.852 5.077 28.96 15.223 39.744 10.361 10.568 23.037 15.854 38.052 15.854 17.546 0 30.445-7.4 34.03-17.762v13.71c0 .954.773 1.728 1.728 1.728h21.911c.955 0 1.728-.774 1.728-1.729V45.19c0-.955-.773-1.73-1.728-1.73h-21.91a1.73 1.73 0 0 0-1.73 1.73v13.7zm-7.615 61.09c-6.122 6.131-13.946 9.307-23.03 9.307-9.099 0-16.49-3.176-22.629-9.307-5.915-6.13-8.87-13.953-8.87-23.253 0-9.299 2.955-17.122 8.87-23.253 6.138-6.13 13.53-9.299 22.63-9.299 9.083 0 16.907 3.17 23.03 9.3 6.353 6.13 9.522 13.953 9.522 23.252 0 9.3-3.169 17.123-9.523 23.253zM1039.125 59.31V47.78a4.336 4.336 0 0 0-4.322-4.324h-16.507a4.336 4.336 0 0 0-4.323 4.323v97.896a4.335 4.335 0 0 0 4.323 4.323h16.507a4.335 4.335 0 0 0 4.322-4.323V93.977c0-17.545 11.208-27.476 28.753-27.476 4.71 0 5.336.067 5.336.067 2.364.25 4.299-1.492 4.299-3.87V46.183c0-2.378-1.663-4.553-3.696-4.834h-2.985c-15.008 0-26.63 6.761-31.707 17.961M353.68 59.31V47.78a4.336 4.336 0 0 0-4.323-4.324H332.85a4.336 4.336 0 0 0-4.323 4.323v97.896a4.335 4.335 0 0 0 4.323 4.323h16.507a4.335 4.335 0 0 0 4.323-4.323V93.977c0-17.545 11.199-27.476 28.753-27.476 4.709 0 5.335.067 5.335.067 2.365.25 4.3-1.492 4.3-3.87V46.183c0-2.378-1.663-4.553-3.697-4.834h-2.985c-15.007 0-26.637 6.761-31.706 17.961M1188.033 146.425l-36.949-54.301a30.417 30.417 0 0 0-1.316-1.798c-1.008-1.385-1.37-1.665-1.37-1.665a24.819 24.819 0 0 1 .643-.834l.125-.157c.128-.16.265-.332.414-.516l.005-.005a70.488 70.488 0 0 1 .513-.632l.519-.634 32.175-39.088c1.511-1.836.802-3.338-1.575-3.338h-23.94c-2.377 0-5.558 1.502-7.069 3.338l-32.647 39.662c-1.51 1.836-2.747 2.135-2.747.664V6.982a4.336 4.336 0 0 0-4.322-4.324h-16.507a4.336 4.336 0 0 0-4.323 4.324v138.702c0 2.378 1.841 4.323 4.091 4.323 3.351 0 4.905-.99 6.838-3.338l.632-.768a.101.101 0 0 1 .013-.016l.856-1.04c.971-1.181 2.323-2.822 3.922-4.768l1.496-1.816 1.085-1.32 1.05-1.276 6.158-7.482 2.976-3.617 1.327-1.614.71-.862 1.991-2.42.126-.152c1.632-1.985 3.042-3.697 4.113-4.998l1.943-2.362.153-.186c.567-.69 1.248-1.104 1.951-1.25a2.805 2.805 0 0 1 1.4.063c.686.21 1.326.686 1.828 1.423l23.283 34.225c1.337 1.966 4.376 3.574 6.754 3.574h21.783c2.378 0 4.324-.002 4.324-.004s-1.095-1.612-2.432-3.578M866.09 15.976C856.369 7.091 836.94 3.45 836.94 3.45c-2.336-.439-6.193-.797-8.571-.797h-47.591a4.336 4.336 0 0 0-4.323 4.323V145.68a4.336 4.336 0 0 0 4.323 4.322h17.785a4.335 4.335 0 0 0 4.323-4.322v-38.076a4.335 4.335 0 0 1 4.322-4.323h25.485c12.683 0 23.89-4.438 33.398-13.53 9.723-9.085 14.592-22.934 14.592-36.679 0-14.16-4.87-28.219-14.592-37.095m-34.668 63.421h-24.215c-2.377 0-4.322-1.096-4.322-2.435V30.868a4.336 4.336 0 0 1 4.322-4.324h24.215c11.838 0 23.045 11.104 23.045 26.527 0 15.222-11.207 26.326-23.045 26.326"/></g></svg>